<svg id="Layer_1" data-name="Layer 1" xmlns="http://www.w3.org/2000/svg" viewBox="0 0 56.06 29.89"><defs><style>.cls-1{fill:none}.cls-1,.cls-2,.cls-3,.cls-4{stroke:#fff}.cls-1,.cls-2,.cls-4{stroke-linecap:round;stroke-width:1.5px}.cls-1,.cls-4{stroke-linejoin:round}.cls-2,.cls-3,.cls-4{fill:#fff}.cls-2,.cls-3{stroke-miterlimit:10}</style></defs><title>service5</title><circle class="cls-1" cx="876.19" cy="706.14" r="10.62" transform="rotate(-78.11 24.165 881.162)"/><path class="cls-2" d="M20.44 18.78L7.35 27.51"/><rect class="cls-3" x="858.1" y="711.67" width="2.58" height="15.29" rx="1.06" ry="1.06" transform="rotate(56.89 1076.803 -410.52)"/><path class="cls-3" d="M873.41 712.55a.75.75 0 0 1-.75-.75v-11.37a.75.75 0 0 1 .75-.75.75.75 0 0 1 .75.75v11.37a.75.75 0 0 1-.75.75z" transform="translate(-847.74 -694.77)"/><path class="cls-3" d="M878 701.12h-4.4a.75.75 0 0 1 0-1.5h4.4a.75.75 0 0 1 0 1.5zm-1 11.61c-1.75 0-3.4-.06-3.4-.06a.75.75 0 0 1 0-1.5s1.63.06 3.34.06a2.39 2.39 0 1 0 0-4.78h-3.47a.75.75 0 0 1 0-1.5H877a3.89 3.89 0 1 1 0 7.78zm25.53 0h-1.21a6.7 6.7 0 0 1-6.72-5.73 6.55 6.55 0 0 1 6.49-7.41h1.46a.75.75 0 0 1 .75.76.75.75 0 0 1-.75.74h-1.46a5.05 5.05 0 0 0-5 5.55 5.2 5.2 0 0 0 5.24 4.54h1.22a.75.75 0 0 1-.02 1.55zm-44.45.27a.75.75 0 0 1-.69-.46l-4.31-10.36-3.39 10.12a.75.75 0 1 1-1.42-.48l4-12a.75.75 0 0 1 .68-.51.8.8 0 0 1 .72.46l5.07 12.2a.75.75 0 0 1-.66 1.03z" transform="translate(-847.74 -694.77)"/><path class="cls-3" d="M855.66 708.19h-4.75a.75.75 0 0 1 0-1.5h4.75a.75.75 0 1 1 0 1.5z" transform="translate(-847.74 -694.77)"/></svg>