<svg id="Layer_1" data-name="Layer 1" xmlns="http://www.w3.org/2000/svg" viewBox="0 0 44.31 56.71"><defs><style>.cls-1{fill:#010101;}.cls-2{fill:#f2b81b;}</style></defs><title>Icon</title><path class="cls-1" d="M22,23.95a7.53,7.53,0,1,1,7.53-7.53A7.54,7.54,0,0,1,22,23.95Zm0-13.56a6,6,0,1,0,6,6A6,6,0,0,0,22,10.39Z"/><path class="cls-1" d="M22.07,42.16a34.49,34.49,0,0,1-12.2-2.23,0.75,0.75,0,0,1-.48-0.76,12.69,12.69,0,0,1,25.1-1.54,9.84,9.84,0,0,1,.2,1.59,0.75,0.75,0,0,1-.49.73A34.48,34.48,0,0,1,22.07,42.16ZM10.93,38.72a33,33,0,0,0,22.21,0c0-.28-0.07-0.55-0.13-0.82A11.19,11.19,0,0,0,10.93,38.72Z"/><path class="cls-2" d="M22.16,56.71a0.75,0.75,0,0,1-.38-0.11L11.6,50.53A25.19,25.19,0,0,1,0,29.27v-22A0.75,0.75,0,0,1,.53,6.57L21.86,0a0.74,0.74,0,0,1,.44,0L43.78,6.57a0.75,0.75,0,0,1,.53.72v22A25.27,25.27,0,0,1,32.77,50.46L22.54,56.61A0.75,0.75,0,0,1,22.16,56.71ZM1.5,7.84V29.27a23.68,23.68,0,0,0,10.89,20l9.76,5.84L32,49.19A23.77,23.77,0,0,0,42.81,29.24V7.84L22.08,1.53Z"/></svg>