<svg id="Layer_1" data-name="Layer 1" xmlns="http://www.w3.org/2000/svg" viewBox="0 0 44.61 31.14"><defs><style>.cls-1{fill:#f3b81a;}.cls-2{fill:none;stroke:#000;stroke-linecap:round;stroke-miterlimit:10;stroke-width:1.5px;}</style></defs><title>icons</title><path class="cls-1" d="M41.65,1.5a1.39,1.39,0,0,1,.81.25l0,0h0A1.46,1.46,0,0,1,43.11,3V28.18a1.46,1.46,0,0,1-.53,1.12,1.5,1.5,0,0,1-.94.34H2.88A1.53,1.53,0,0,1,2,29.26a1.45,1.45,0,0,1-.5-1.08V3A1.45,1.45,0,0,1,2,1.83l0,0A1.46,1.46,0,0,1,3,1.5H41.65m0-1.5H3A3,3,0,0,0,1.12.65l0,0A3,3,0,0,0,0,3V28.18A2.94,2.94,0,0,0,1,30.4a3,3,0,0,0,1.81.74H41.65a3,3,0,0,0,3-3V3A3,3,0,0,0,43.37.57l-0.06,0A2.88,2.88,0,0,0,41.65,0h0Z"/><line class="cls-2" x1="16.3" y1="15.57" x2="1.4" y2="29.78"/><line class="cls-2" x1="43.18" y1="29.8" x2="28.16" y2="15.64"/><path class="cls-2" d="M43.2,1.34L24.64,18.84a3.75,3.75,0,0,1-4.95,0L1.4,1.36"/></svg>