<svg id="Layer_1" data-name="Layer 1" xmlns="http://www.w3.org/2000/svg" viewBox="0 0 55.73 33.19"><defs><style>.cls-1{fill:none}.cls-1,.cls-3{stroke:#fff;stroke-miterlimit:10}.cls-2,.cls-3{fill:#fff}</style></defs><title>service71</title><circle class="cls-1" cx="36.12" cy="11.37" r="2.8"/><path class="cls-1" d="M40.21 19.67a3.11 3.11 0 0 0-.06-.51 4.12 4.12 0 0 0-8.15.5 11.68 11.68 0 0 0 8.21.01z" transform="translate(.02)"/><path class="cls-2" d="M46 1.16a1.52 1.52 0 0 1 1.18.57 1.53 1.53 0 0 1 .31.93v27.9a1.47 1.47 0 0 1-.27.85 1.53 1.53 0 0 1-1.2.59H24.64V1h21.42m0-1H23.64v33h22.42a2.53 2.53 0 0 0 2.05-1.06 2.47 2.47 0 0 0 .45-1.42V2.57A2.53 2.53 0 0 0 48 1a2.53 2.53 0 0 0-2-1z" transform="translate(.02)"/><path class="cls-2" d="M24 1.16v31H2.54a1.53 1.53 0 0 1-1.22-.62v-.06a1.47 1.47 0 0 1-.32-.85V2.73a1.53 1.53 0 0 1 .31-.92 1.52 1.52 0 0 1 1.18-.57H24m1-1H2.54a2.53 2.53 0 0 0-2 .94A2.53 2.53 0 0 0 0 2.76v27.9a2.47 2.47 0 0 0 .45 1.42 2.53 2.53 0 0 0 2 1.06H24.9v-33z" transform="translate(.02)"/><circle class="cls-1" cx="36.1" cy="14.92" r="9.14"/><path class="cls-1" d="M43.77 20.35l9.67 9.49"/><rect class="cls-3" x="49.06" y="20.15" width="2.22" height="13.17" rx=".96" ry=".96" transform="rotate(-45 50.173 26.708)"/></svg>