<svg id="Layer_1" data-name="Layer 1" xmlns="http://www.w3.org/2000/svg" viewBox="0 0 55.7 32.98"><defs><style>.cls-1{fill:none;stroke:#fff;stroke-miterlimit:10}.cls-2{fill:#fff}</style></defs><title>service7</title><circle class="cls-1" cx="36.1" cy="11.21" r="2.8"/><path class="cls-1" d="M1048.32 537.36a3.11 3.11 0 0 0-.06-.51 4.12 4.12 0 0 0-8.15.5 11.68 11.68 0 0 0 8.21.01z" transform="translate(-1008.11 -517.85)"/><path class="cls-2" d="M1054.15 518.85a1.52 1.52 0 0 1 1.18.57 1.53 1.53 0 0 1 .31.93v27.9a1.47 1.47 0 0 1-.27.85 1.53 1.53 0 0 1-1.2.59h-21.42v-31h21.42m0-1h-22.42v33h22.42a2.53 2.53 0 0 0 2.05-1.06v-.05a2.47 2.47 0 0 0 .45-1.42v-27.9a2.53 2.53 0 0 0-.56-1.58 2.53 2.53 0 0 0-2-.94z" transform="translate(-1008.11 -517.85)"/><path class="cls-2" d="M1032.07 518.85v31h-21.42a1.53 1.53 0 0 1-1.22-.62v-.06a1.47 1.47 0 0 1-.27-.85v-27.9a1.53 1.53 0 0 1 .31-.92 1.52 1.52 0 0 1 1.18-.57h21.42m1-1h-22.42a2.53 2.53 0 0 0-2 .94 2.53 2.53 0 0 0-.56 1.58v27.9a2.47 2.47 0 0 0 .45 1.42v.05a2.53 2.53 0 0 0 2.05 1.06h22.42v-33z" transform="translate(-1008.11 -517.85)"/><circle class="cls-1" cx="36.08" cy="14.76" r="9.14"/><path class="cls-1" d="M43.75 20.19l9.67 9.49"/><rect class="cls-1" x="1057.16" y="537.84" width="2.22" height="13.17" rx=".96" ry=".96" transform="rotate(-45 -70.88 1502.39)"/></svg>