<svg id="Layer_1" data-name="Layer 1" xmlns="http://www.w3.org/2000/svg" viewBox="0 0 78.26 56.18"><defs><style>.cls-1{fill:#010101;}.cls-2{fill:#f2b81b;}</style></defs><title>Icon</title><path class="cls-1" d="M37.72,1.5A3.29,3.29,0,0,1,41,4.79V51.38a3.29,3.29,0,0,1-3.29,3.29H4.32a2.81,2.81,0,0,1-2.25-1.14h0L2,53.43a2.7,2.7,0,0,1-.49-1.57V4.33a2.81,2.81,0,0,1,.57-1.71l0,0,0-.06a2.8,2.8,0,0,1,2.18-1h33.4m0-1.5H4.32A4.3,4.3,0,0,0,1,1.6l0,0A4.3,4.3,0,0,0,0,4.33V51.86a4.2,4.2,0,0,0,.76,2.43l0.06,0.09a4.31,4.31,0,0,0,3.49,1.8h33.4a4.79,4.79,0,0,0,4.79-4.79V4.79A4.79,4.79,0,0,0,37.72,0h0Z"/><path class="cls-1" d="M21.36,35.36a0.75,0.75,0,0,1-.75-0.75V29.86a0.75,0.75,0,0,1,0-.25,0.75,0.75,0,0,1,0-.3c0-.11.19-2.67,2.16-3.48L23,25.75c-0.34-.58-0.72-1.12-1.08-1.61a6.54,6.54,0,0,1-1.32-2.44,0.74,0.74,0,0,1,0-.12V9a0.75,0.75,0,0,1,1.5,0V21.5a6.65,6.65,0,0,0,1,1.76,20.24,20.24,0,0,1,1.29,2c1-.39,1.45-0.75,1.48-1.56,0-1.22-.4-1.65-0.66-1.72a0.79,0.79,0,0,1-.61-0.74c0-.34.12-8.27,4.36-10.51a0.75,0.75,0,0,1,1.1.67s0,4.62,0,9.24C30,30.35,30,30.35,29.51,30.56a0.75,0.75,0,0,1-.29.06H25.36a6.7,6.7,0,0,1-3.72,4.69A0.76,0.76,0,0,1,21.36,35.36Zm0.75-4.75v2.64a5.22,5.22,0,0,0,1.71-2.64H22.11Zm3.42-1.5h3c0-2.33.08-10.14,0.1-16.2-1.78,2-2.35,5.84-2.44,7.82,0.58,0.35,1.33,1.15,1.26,3a3.11,3.11,0,0,1-2.34,2.88A7.13,7.13,0,0,1,25.52,29.11Zm-3.38,0H24a5.68,5.68,0,0,0-.36-2l-0.32.12A2.46,2.46,0,0,0,22.15,29.11Z"/><path class="cls-1" d="M21.35,35.36a0.76,0.76,0,0,1-.28-0.06,6.7,6.7,0,0,1-3.72-4.69H13.48a0.75,0.75,0,0,1-.29-0.06c-0.5-.21-0.5-0.21-0.57-9.95,0-4.62-.05-9.24-0.05-9.24a0.75,0.75,0,0,1,1.1-.67c4.25,2.24,4.38,10.17,4.38,10.51a0.75,0.75,0,0,1-.64.75c-0.24.06-.68,0.49-0.63,1.71,0,0.83.5,1.19,1.55,1.59a20.84,20.84,0,0,1,1.18-1.76,5.08,5.08,0,0,0,1.08-1.93V9a0.75,0.75,0,0,1,1.5,0V21.57a5.33,5.33,0,0,1-1.37,2.81c-0.32.44-.66,0.91-1,1.4l0.16,0.07c2,0.81,2.16,3.37,2.17,3.48a0.75,0.75,0,0,1,0,.3,0.75,0.75,0,0,1,0,.25v4.75A0.75,0.75,0,0,1,21.35,35.36ZM18.9,30.61a5.24,5.24,0,0,0,1.7,2.64V30.61H18.9Zm-0.21-1.5h1.88a2.46,2.46,0,0,0-1.19-1.89l-0.29-.11A5.3,5.3,0,0,0,18.68,29.11Zm-4.48,0h3a6.78,6.78,0,0,1,.48-2.5,3.13,3.13,0,0,1-2.38-2.89c-0.06-1.83.68-2.64,1.26-3-0.08-1.44-.49-5.68-2.46-7.83C14.11,19,14.16,26.79,14.21,29.11Z"/><path class="cls-1" d="M28.8,24.42H27a0.75,0.75,0,0,1,0-1.5h1.8A0.75,0.75,0,0,1,28.8,24.42Z"/><path class="cls-1" d="M15.51,24.42h-1.8a0.75,0.75,0,0,1,0-1.5h1.8A0.75,0.75,0,1,1,15.51,24.42Z"/><path class="cls-1" d="M54.48,56.18a3.15,3.15,0,0,1-3-2.08L49.29,48a3.15,3.15,0,0,1,1.89-4l20.64-7.47a3.15,3.15,0,0,1,4,1.89l2.23,6.15a3.15,3.15,0,0,1-1.89,4L55.55,56l-0.25-.71L55.55,56A3.12,3.12,0,0,1,54.48,56.18ZM72.89,37.77a1.65,1.65,0,0,0-.56.1L51.69,45.33a1.65,1.65,0,0,0-1,2.11l2.22,6.15a1.65,1.65,0,0,0,2.11,1l20.64-7.47a1.65,1.65,0,0,0,1-2.11l-2.23-6.15A1.65,1.65,0,0,0,72.89,37.77Z"/><path class="cls-2" d="M21.18,50.86a2.38,2.38,0,0,1-2.24-1.57L17.77,46a2.38,2.38,0,0,1,1.43-3l11.87-4.3a2.38,2.38,0,0,1,3,1.43l1.18,3.26a2.38,2.38,0,0,1-1.43,3L22,50.71h0A2.39,2.39,0,0,1,21.18,50.86ZM31.87,40a0.88,0.88,0,0,0-.3.05L19.7,44.38a0.88,0.88,0,0,0-.53,1.13l1.18,3.26a0.88,0.88,0,0,0,1.13.53h0L33.36,45a0.88,0.88,0,0,0,.53-1.13L32.7,40.61A0.88,0.88,0,0,0,31.87,40Z"/><path class="cls-2" d="M22,47a0.75,0.75,0,0,1-.25-1.46l9.08-3.29a0.75,0.75,0,1,1,.51,1.41L22.23,47A0.74,0.74,0,0,1,22,47Z"/><path class="cls-1" d="M63.65,49.42a3.25,3.25,0,1,1,3.25-3.25A3.25,3.25,0,0,1,63.65,49.42Zm0-5a1.75,1.75,0,1,0,1.75,1.75A1.75,1.75,0,0,0,63.65,44.43Z"/></svg>