<?xml version="1.0" encoding="utf-8"?>
<!-- Generator: Adobe Illustrator 19.2.0, SVG Export Plug-In . SVG Version: 6.00 Build 0)  -->
<svg version="1.1" id="Layer_1" xmlns="http://www.w3.org/2000/svg" xmlns:xlink="http://www.w3.org/1999/xlink" x="0px" y="0px"
	 viewBox="0 0 475 580.3" style="enable-background:new 0 0 475 580.3;" xml:space="preserve">
<style type="text/css">
	.st0{fill:#2B357E;}
	.st1{fill:#FFFFFF;stroke:#FFFFFF;stroke-miterlimit:10;}
</style>
<path class="st0" d="M256.1,493.2c0,0-15.3-6.4-26.2,6.9c-10.9,13.4-20.8,39.6-51.9,45s-24.2-8.9-24.2-8.9s8.9-6.4,13.9-15.8
	c4.9-9.4-2-24.7,5.9-26.7c7.9-2,23.3,6.4,29.2-0.5c5.9-6.9-4-7.4-6.9-13.4s-5.4-20.8-9.4-22.8c-4-2,2-15.8-3.5-18.3
	c-5.4-2.5-23.7-9.9-27.2-13.9c-3.5-4-20.8-9.9-44,4.5c-23.3,14.3-36.1,11.9-41.1,12.4c-4.9,0.5-22.5-14.8-59.9-19.3
	c-7.3-0.9-12.9-18-3.5-33.1c26-41.8,43-31.4,49.5-57.9c1.2-4.9-8.4-33.1,2.5-41.6c8.9-6.9,12.5-13.6,53.9-8.9
	c43.4,4.9,60.4,15.3,86,10.9c13.4-2.3,19.9,17,25,16.9c11.7-0.1-2.6-20.9,11.7-29.8c14.3-8.9,20.4-8.8,35.6-8.9
	c51.2-0.5,44.8,34.1,56.4,36.6c25.2,5.4,11.1,34.1,26,35.6c14.8,1.5,32.4-7.9,43.3-2.5s4.7,13.9,20.9,10.9
	c16.2-3,42.2,0.5,47.6,11.4c5.4,10.9-14.7,20.8,6.9,56.3c9.3,15.2-26.2,15-33.6,27.3c-7.4,12.4-7.2,19.3-35.9,26.2
	c-28.7,6.9-73.7,24.4-73.7,24.4c1.5,6.4,15.5,12.6,18.9,21.5c3.5,8.9,1.9,19.9,11.3,15s25.4-7,27-4.9c1.1,1.5,6.6,30.1-17.4,20
	c-15.5-6.5-4.4,11.4-38.2,27.1c-31.9,14.8-26.7-4.1-27.7-13.5c-1-9.4,0.5-16.1-18.3-14.7c-10,0.7-15.8-11.8-1.5-16.7
	c15.2-5.2,27.1-8.5,20-16.3c-7.5-8.3-22.4,2.5-31.9,1.1C254.6,512.4,266.5,495.2,256.1,493.2z"/>
<g>
	<path class="st1" d="M267.7,2.3c-84.8,0-154.1,66.8-154.1,149c0,32.5,11.1,63.4,30.8,89l116.4,152.4c2.6,3.4,8.6,4.3,12,1.7
		c0.9-0.9,0.9-0.9,1.7-1.7L391,240.3c19.7-25.7,30.8-56.5,30.8-89C421.8,69.1,352.4,2.3,267.7,2.3z M255.7,209.5
		c-32.5-6.8-53.9-37.7-47.1-70.2c6.8-32.5,37.7-53.9,70.2-47.1c24,5.1,42.8,23.1,47.1,47.1c6,32.5-15.4,64.2-47.1,70.2
		C271.1,211.2,263.4,211.2,255.7,209.5z"/>
</g>
</svg>
