<?xml version="1.0" encoding="utf-8"?>
<!-- Generator: Adobe Illustrator 19.2.0, SVG Export Plug-In . SVG Version: 6.00 Build 0)  -->
<svg version="1.1" id="Layer_1" xmlns="http://www.w3.org/2000/svg" xmlns:xlink="http://www.w3.org/1999/xlink" x="0px" y="0px"
	 viewBox="0 0 507 553" style="enable-background:new 0 0 507 553;" xml:space="preserve">
<style type="text/css">
	.st0{fill:#FFFFFF;}
	.st1{fill:#010101;}
</style>
<path class="st0" d="M273.3,459.3c0,0-16.4-6.9-28,7.4c-11.6,14.3-22.2,42.3-55.5,48.1c-33.3,5.8-25.9-9.5-25.9-9.5
	s9.5-6.9,14.8-16.9c5.3-10-2.1-26.4,6.3-28.5c8.5-2.1,24.8,6.9,31.2-0.5c6.3-7.4-4.2-7.9-7.4-14.3c-3.2-6.3-5.8-22.2-10-24.3
	s2.1-16.9-3.7-19.5s-25.4-10.6-29.1-14.8c-3.7-4.2-22.2-10.6-47,4.8c-24.8,15.3-38.6,12.7-43.8,13.2c-5.3,0.5-24-15.8-63.9-20.6
	c-7.8-0.9-13.8-19.2-3.7-35.4c27.7-44.6,46-33.5,52.8-61.8c1.3-5.2-9-35.4,2.6-44.4c9.5-7.4,13.3-14.5,57.6-9.5
	c46.3,5.2,64.4,16.4,91.8,11.6c14.3-2.5,21.2,18.1,26.6,18.1c12.5-0.1-2.8-22.3,12.5-31.8c15.3-9.5,21.8-9.4,38-9.5
	c54.7-0.5,47.8,36.4,60.2,39.1c26.9,5.8,11.9,36.4,27.7,38s34.6-8.5,46.2-2.6c11.6,5.8,5,14.8,22.3,11.6
	c17.3-3.2,45.1,0.5,50.9,12.1c5.8,11.6-15.7,22.2,7.4,60.1c9.9,16.2-28,16-35.9,29.2c-7.9,13.2-7.7,20.6-38.3,28
	c-30.6,7.4-78.7,26-78.7,26c1.6,6.9,16.5,13.5,20.2,23s2,21.3,12,16c10-5.3,27.1-7.5,28.8-5.3c1.2,1.6,7,32.1-18.6,21.4
	c-16.6-6.9-4.7,12.1-40.8,28.9c-34.1,15.8-28.5-4.4-29.6-14.4c-1.1-10,0.6-17.2-19.5-15.7c-10.7,0.8-16.9-12.6-1.6-17.8
	c16.2-5.5,28.9-9.1,21.4-17.4c-8-8.9-23.9,2.7-34.1,1.2C271.7,479.8,284.4,461.4,273.3,459.3z"/>
<g>
	<path class="st1" d="M296.7,0c-84.8,0-154.1,66.8-154.1,149c0,32.5,11.1,63.4,30.8,89l116.4,152.4c2.6,3.4,8.6,4.3,12,1.7
		c0.9-0.9,0.9-0.9,1.7-1.7L420,238c19.7-25.7,30.8-56.5,30.8-89C450.8,66.7,381.4,0,296.7,0z M284.7,207.2
		c-32.5-6.8-53.9-37.7-47.1-70.2c6.8-32.5,37.7-53.9,70.2-47.1c24,5.1,42.8,23.1,47.1,47.1c6,32.5-15.4,64.2-47.1,70.2
		C300.1,208.9,292.4,208.9,284.7,207.2z"/>
</g>
</svg>
