<?xml version="1.0" encoding="utf-8"?>
<!-- Generator: Adobe Illustrator 19.2.0, SVG Export Plug-In . SVG Version: 6.00 Build 0)  -->
<svg version="1.1" id="Layer_1" xmlns="http://www.w3.org/2000/svg" xmlns:xlink="http://www.w3.org/1999/xlink" x="0px" y="0px"
	 viewBox="0 0 476.9 479.4" style="enable-background:new 0 0 476.9 479.4;" xml:space="preserve">
<style type="text/css">
	.st0{fill:#00AEEF;}
	.st1{fill:#FFFFFF;}
	.st2{fill:#010101;}
	.st3{fill:#2B357E;}
	.st4{fill:#FFFFFF;stroke:#FFFFFF;stroke-miterlimit:10;}
</style>
<g>
	<path class="st1" d="M308.1,108.6c1.7,6.4-3.2,12.6-9.9,12.6h-0.9H176.6c-6.6,0-11.3-6.1-9.6-12.4c11.8-42.5,29-75,40.9-94.2
		c1.9-3.1,4.3-6.7,6.1-9.4c1.8-2.6,4.7-4.3,7.9-4.5c0.9-0.1,2-0.1,3-0.2c4.5-0.3,9.8-0.5,13.4-0.5c5,0,9.9,0.2,14.9,0.5
		c3.1,0.2,5.9,1.8,7.6,4.3c10.7,15.6,31.5,50.1,45.8,99C307.1,105.1,307.6,106.8,308.1,108.6z"/>
	<path class="st1" d="M438.7,121.2H370c-4.6,0-8.5-3.1-9.6-7.5c0,0,0-0.1,0-0.1c-8.2-33.7-19.6-62-30.5-83.9
		c-4-8.1,4.3-16.7,12.7-13.3c44.1,18.1,80.8,49.9,104.6,90C451.2,113.1,446.4,121.2,438.7,121.2z"/>
	<path class="st1" d="M107.2,285.5c0.7,4.9,1.4,9.8,2.3,14.7c1,5.9-3.7,11.3-9.8,11.3H21.5c-4.2,0-8-2.6-9.4-6.5
		C4.3,283,0,259.2,0,234.5c0-19.6,2.7-38.6,7.7-56.6c1.2-4.3,5.1-7.2,9.6-7.2h79.1c5.9,0,10.5,5.1,9.9,10.9
		C102.1,215.8,102.5,250.7,107.2,285.5z"/>
	<path class="st1" d="M308.6,170.7c5,0,9.2,3.6,9.8,8.4c4.5,33.7,4.5,68.1-0.2,102.5c-1,7.3-2.2,14.7-3.6,22c-0.9,4.6-5,7.9-9.8,7.9
		H170.3c-4.8,0-8.9-3.3-9.8-7.9c-1.4-7-2.5-14.1-3.5-21.1c-4.8-34.7-4.9-69.4-0.3-103.4c0.7-4.8,4.9-8.4,9.8-8.4H308.6z"/>
	<path class="st1" d="M476.9,234.5c0,24.7-4.3,48.5-12.1,70.6c-1.4,3.9-5.2,6.5-9.4,6.5h-79.9c-6.1,0-10.8-5.4-9.8-11.3
		c0.8-4.9,1.6-9.8,2.3-14.7c4.7-34.9,5.1-69.7,1-104c-0.7-5.8,3.9-10.9,9.9-10.9h80.8c4.5,0,8.4,3,9.6,7.2
		C474.3,196,476.9,214.9,476.9,234.5z"/>
	<path class="st1" d="M37,121.2h68.7c4.6,0,8.5-3.1,9.6-7.5c0,0,0-0.1,0-0.1c8.2-33.7,19.6-62,30.5-83.9c4-8.1-4.3-16.7-12.7-13.3
		C89,34.6,52.3,66.4,28.4,106.5C24.6,113.1,29.3,121.2,37,121.2z"/>
	<path class="st1" d="M167.7,370.8c-1.7-6.4,3.2-12.6,9.9-12.6h0.9h120.6c6.6,0,11.3,6.1,9.6,12.4c-11.8,42.5-29,75-40.9,94.2
		c-1.9,3.1-4.3,6.7-6.1,9.4c-1.8,2.6-4.7,4.3-7.9,4.5c-0.9,0.1-2,0.1-3,0.2c-4.5,0.3-9.8,0.5-13.4,0.5c-5,0-9.9-0.2-14.9-0.5
		c-3.1-0.2-5.9-1.8-7.6-4.3c-10.7-15.6-31.5-50.1-45.8-99C168.6,374.2,168.2,372.5,167.7,370.8z"/>
	<path class="st1" d="M37,358.1h68.7c4.6,0,8.5,3.1,9.6,7.5c0,0,0,0.1,0,0.1c8.2,33.7,19.6,62,30.5,83.9c4,8.1-4.3,16.7-12.7,13.3
		c-44.1-18.1-80.8-49.9-104.6-90C24.6,366.3,29.3,358.1,37,358.1z"/>
	<path class="st1" d="M438.7,358.1H370c-4.6,0-8.5,3.1-9.6,7.5c0,0,0,0.1,0,0.1c-8.2,33.7-19.6,62-30.5,83.9
		c-4,8.1,4.3,16.7,12.7,13.3c44.1-18.1,80.8-49.9,104.6-90C451.2,366.3,446.4,358.1,438.7,358.1z"/>
</g>
</svg>
