<svg id="Layer_1" data-name="Layer 1" xmlns="http://www.w3.org/2000/svg" viewBox="0 0 47.49 31.05"><defs><style>.cls-1{fill:#a2a2a2;}.cls-2,.cls-3{fill:none;stroke:#a2a2a2;stroke-width:1.5px;}.cls-2{stroke-miterlimit:10;}.cls-3{stroke-linecap:round;stroke-linejoin:round;}</style></defs><title>icons</title><path class="cls-1" d="M44.34,1.5a1.57,1.57,0,0,1,.91.29l0.05,0,0.07,0A1.65,1.65,0,0,1,46,3.15V27.9a1.65,1.65,0,0,1-.6,1.27,1.69,1.69,0,0,1-1.06.38H3.06a1.72,1.72,0,0,1-1-.43A1.64,1.64,0,0,1,1.5,27.9V3.15a1.64,1.64,0,0,1,.62-1.28l0.05,0a1.65,1.65,0,0,1,1-.33H44.34m0-1.5H3.16a3.14,3.14,0,0,0-2,.69l0,0A3.14,3.14,0,0,0,0,3.15V27.9a3.14,3.14,0,0,0,1.08,2.36A3.22,3.22,0,0,0,3,31H44.34a3.16,3.16,0,0,0,3.15-3.15V3.15A3.15,3.15,0,0,0,46.18.6l-0.07,0A3.07,3.07,0,0,0,44.34,0h0Z"/><path class="cls-2" d="M42.41,9.26A4.09,4.09,0,0,1,35.33,12a4.08,4.08,0,1,1,0-5.56A4.09,4.09,0,0,1,42.41,9.26Z"/><line class="cls-3" x1="20.98" y1="22.24" x2="16.13" y2="22.24"/><line class="cls-3" x1="40.87" y1="22.24" x2="36.8" y2="22.24"/><line class="cls-3" x1="31.28" y1="22.24" x2="26.49" y2="22.24"/><line class="cls-3" x1="10.62" y1="22.24" x2="6.34" y2="22.24"/></svg>