<svg id="Layer_1" data-name="Layer 1" xmlns="http://www.w3.org/2000/svg" viewBox="0 0 44.61 31.14"><defs><style>.cls-1{fill:#a2a2a2}.cls-2{fill:none;stroke:#a2a2a2;stroke-linecap:round;stroke-miterlimit:10;stroke-width:1.5px}</style></defs><title>icons</title><path class="cls-1" d="M41.65 1.5a1.39 1.39 0 0 1 .81.25A1.46 1.46 0 0 1 43.11 3v25.18a1.46 1.46 0 0 1-.53 1.12 1.5 1.5 0 0 1-.94.34H2.88a1.53 1.53 0 0 1-.88-.38 1.45 1.45 0 0 1-.5-1.08V3A1.45 1.45 0 0 1 2 1.83a1.46 1.46 0 0 1 1-.33h38.65m0-1.5H3a3 3 0 0 0-1.88.65A3 3 0 0 0 0 3v25.18a2.94 2.94 0 0 0 1 2.22 3 3 0 0 0 1.81.74h38.84a3 3 0 0 0 3-3V3A3 3 0 0 0 43.37.57h-.06A2.88 2.88 0 0 0 41.65 0z"/><path class="cls-2" d="M16.3 15.57L1.4 29.78m41.78.02L28.16 15.64M43.2 1.34l-18.56 17.5a3.75 3.75 0 0 1-4.95 0L1.4 1.36"/></svg>