<?xml version="1.0" encoding="utf-8"?>
<!-- Generator: Adobe Illustrator 19.2.0, SVG Export Plug-In . SVG Version: 6.00 Build 0)  -->
<svg version="1.1" id="Layer_1" xmlns="http://www.w3.org/2000/svg" xmlns:xlink="http://www.w3.org/1999/xlink" x="0px" y="0px"
	 viewBox="0 0 139.5 141.2" style="enable-background:new 0 0 139.5 141.2;" xml:space="preserve">
<style type="text/css">
	.st0{fill:#010101;}
	.st1{fill:#F2B81B;}
	.st2{fill:#AFB0B3;}
	.st3{fill:#FFFFFF;}
	.st4{fill:none;stroke:#010101;stroke-width:5;stroke-miterlimit:10;}
	.st5{fill:none;stroke:#F2B81B;stroke-width:5;stroke-miterlimit:10;}
</style>
<g>
	<path class="st0" d="M73.7,115.2H0.2V19.8h19.1v5.6c0,0.5,0.5,1,1,1h4.3c0.6,0,1-0.5,1-1v-5.6h63.9v5.6c0,0.6,0.5,1,1,1h4.3
		c0.6,0,1-0.5,1-1v-5.6h18.5v55.9h-5V24.8h-8.5v0.6c0,3.3-2.7,6-6,6h-4.3c-3.3,0-6-2.7-6-6v-0.6H30.6v0.6c0,3.3-2.7,6-6,6h-4.3
		c-3.3,0-6-2.7-6-6v-0.6H5.2v85.4h68.5V115.2z"/>
</g>
<g>
	<path class="st0" d="M94.8,31.4h-4.3c-3.3,0-6-2.7-6-6V6c0-3.3,2.7-6,6-6h4.3c3.3,0,6,2.7,6,6v19.4C100.8,28.7,98.1,31.4,94.8,31.4
		z M90.5,5c-0.5,0-1,0.5-1,1v19.4c0,0.6,0.5,1,1,1h4.3c0.6,0,1-0.5,1-1V6c0-0.5-0.5-1-1-1H90.5z"/>
</g>
<g>
	<path class="st0" d="M24.6,31.4h-4.3c-3.3,0-6-2.7-6-6V6c0-3.3,2.7-6,6-6h4.3c3.3,0,6,2.7,6,6v19.4C30.6,28.7,27.9,31.4,24.6,31.4z
		 M20.3,5c-0.6,0-1,0.5-1,1v19.4c0,0.5,0.5,1,1,1h4.3c0.6,0,1-0.5,1-1V6c0-0.5-0.5-1-1-1H20.3z"/>
</g>
<g>
	<path class="st0" d="M36.6,67.8H14V45.2h22.6V67.8z M19,62.8h12.6V50.2H19V62.8z"/>
</g>
<g>
	<path class="st0" d="M68.9,67.8H46.3V45.2h22.6V67.8z M51.3,62.8h12.6V50.2H51.3V62.8z"/>
</g>
<g>
	<path class="st0" d="M101,67.8H78.4V45.2H101V67.8z M83.4,62.8H96V50.2H83.4V62.8z"/>
</g>
<g>
	<path class="st0" d="M36.6,100H14V77.4h22.6V100z M19,95h12.6V82.4H19V95z"/>
</g>
<g>
	<path class="st0" d="M68.9,100H46.3V77.4h22.6V100z M51.3,95h12.6V82.4H51.3V95z"/>
</g>
<g>
	<path class="st0" d="M78.4,91.8V77.4h17.1L88.2,82c-2.3,1.4-3.4,2.5-5.4,4.8L78.4,91.8z"/>
</g>
<g>
	<path class="st1" d="M104.9,141.1c-16.5,0-30.6-11.7-33.7-27.9c-0.4-2.1-0.6-4.2-0.6-6.4c0-8.3,3-16.2,8.4-22.5
		c2.2-2.6,4.8-4.8,7.6-6.5c5.5-3.5,11.8-5.3,18.3-5.3c2.5,0,5,0.3,7.4,0.8c15.6,3.4,26.9,17.5,26.9,33.5
		C139.3,125.7,123.9,141.1,104.9,141.1z M104.9,77.5c-5.6,0-11,1.6-15.6,4.5c-2.4,1.5-4.6,3.4-6.5,5.6c-4.6,5.3-7.2,12.1-7.2,19.2
		c0,1.9,0.2,3.7,0.5,5.5c2.6,13.8,14.7,23.8,28.8,23.8c16.2,0,29.3-13.1,29.3-29.3c0-13.6-9.6-25.7-22.9-28.6
		C109.2,77.7,107.1,77.5,104.9,77.5z"/>
</g>
<g>
	<polygon class="st1" points="116,110.2 101.2,110.2 101.2,88.5 106.2,88.5 106.2,105.2 116,105.2 	"/>
</g>
</svg>
