<svg id="Layer_1" data-name="Layer 1" xmlns="http://www.w3.org/2000/svg" viewBox="0 0 42.63 29.76"><defs><style>.cls-1{fill:#fff}.cls-2{fill:none;stroke:#fff;stroke-linejoin:round;stroke-width:1.5px}</style></defs><title>service8</title><path class="cls-1" d="M1106.26 496a1.26 1.26 0 0 1 .73.23h.06a1.32 1.32 0 0 1 .49 1v24.1a1.33 1.33 0 0 1-.48 1 1.37 1.37 0 0 1-.85.31h-37a1.39 1.39 0 0 1-.8-.34 1.32 1.32 0 0 1-.45-1v-24.1a1.32 1.32 0 0 1 .5-1 1.33 1.33 0 0 1 .8-.26h37m0-1.5h-37a2.82 2.82 0 0 0-1.77.62 2.82 2.82 0 0 0-1 2.19v24.1a2.81 2.81 0 0 0 1 2.12 2.89 2.89 0 0 0 1.73.71h37.1a2.83 2.83 0 0 0 2.83-2.83v-24.1a2.83 2.83 0 0 0-1.18-2.29h-.06a2.75 2.75 0 0 0-1.59-.5z" transform="translate(-1066.46 -494.5)"/><path class="cls-2" d="M1107.66 495.88L1090 512.5a3.58 3.58 0 0 1-4.73 0l-17.46-16.67" transform="translate(-1066.46 -494.5)"/><path class="cls-2" d="M15.58 14.88L1.36 28.46m39.83-.05L26.91 14.95"/></svg>