<svg id="Layer_1" data-name="Layer 1" xmlns="http://www.w3.org/2000/svg" viewBox="0 0 52.57 57.45"><defs><style>.cls-1{fill:#a2a1a1;}</style></defs><title>Icon</title><path class="cls-1" d="M1.54,23.33A0.75,0.75,0,0,1,1,22l5-4.91a0.75,0.75,0,0,1,1,1.07l-5,4.91A0.75,0.75,0,0,1,1.54,23.33Z"/><path class="cls-1" d="M50.94,23.27a0.75,0.75,0,0,1-.52-0.21l-4.68-4.48a0.75,0.75,0,1,1,1-1.08L51.46,22A0.75,0.75,0,0,1,50.94,23.27Z"/><path class="cls-1" d="M37,10a0.75,0.75,0,0,1-.51-0.2l-8-7.45a3.87,3.87,0,0,0-4.91,0L16.1,9.76A0.75,0.75,0,1,1,15,8.69l7.54-7.41a5.39,5.39,0,0,1,6.91,0l8,7.47A0.75,0.75,0,0,1,37,10Z"/><path class="cls-1" d="M46.86,28.48h-1.5V11.57a1.23,1.23,0,0,0-1.23-1.23H8.62a1.23,1.23,0,0,0-1.23,1.23V28.23H5.89V11.57A2.73,2.73,0,0,1,8.62,8.84H44.13a2.73,2.73,0,0,1,2.73,2.73V28.48Z"/><path class="cls-1" d="M51.35,56.38a0.75,0.75,0,0,1-.52-0.21L33.79,40a0.75,0.75,0,0,1,0-1.09L51,22.77a0.75,0.75,0,0,1,1,1.1L35.4,39.42,51.87,55.09A0.75,0.75,0,0,1,51.35,56.38Z"/><path class="cls-1" d="M1.32,56.29A0.75,0.75,0,0,1,.81,55L17.52,39.41,0.87,23.87a0.75,0.75,0,0,1,1-1.1L19.13,38.87a0.75,0.75,0,0,1,0,1.1L1.83,56.09A0.75,0.75,0,0,1,1.32,56.29Z"/><path class="cls-1" d="M51.16,56.31a0.75,0.75,0,0,1-.51-0.2L29.06,35.81a4.07,4.07,0,0,0-5.6,0L2.41,56a0.75,0.75,0,1,1-1-1.08L22.43,34.75a5.57,5.57,0,0,1,7.67,0L51.67,55A0.75,0.75,0,0,1,51.16,56.31Z"/><path class="cls-1" d="M51,21.5h0a4,4,0,0,0-1.41-.71A7.3,7.3,0,0,1,50.45,23a2.27,2.27,0,0,1,.35,1.18V53.91a1.59,1.59,0,0,1-1.65,1.65H3.42a2.12,2.12,0,0,1-1.06-.47,1.89,1.89,0,0,1-.59-1.3V24.33a2.48,2.48,0,0,1,.59-1.53,1.78,1.78,0,0,1,.47-0.47,5.74,5.74,0,0,0-.12-1.41,4,4,0,0,0-1.41.71A3.35,3.35,0,0,0,0,24.33V54a3.57,3.57,0,0,0,1.18,2.59,3.39,3.39,0,0,0,2.12.83H49a3.47,3.47,0,0,0,3.54-3.54V24.33A3.32,3.32,0,0,0,51,21.5Z"/><path class="cls-1" d="M38.28,19.08H13.82a0.75,0.75,0,0,1,0-1.5H38.28A0.75,0.75,0,0,1,38.28,19.08Z"/><path class="cls-1" d="M38.28,25.27H13.82a0.75,0.75,0,1,1,0-1.5H38.28A0.75,0.75,0,0,1,38.28,25.27Z"/></svg>