<svg id="Layer_1" xmlns="http://www.w3.org/2000/svg" viewBox="0 0 541 365"><style>.st0{fill:#fff}.st1{fill:#0096ff}</style><g id="E1T6Dn_1_"><path class="st0" d="M343.9 358.8l-3.7-6.3.6-5.4-5.3 1.6 2.2-5.1 7.5-3.9-3.6-1.7.1-5.6-4.9-4.7 1-3.1-4.1.3-5.8-2.3-4 1.6 3.4-8.8-.8-2-9.9 3.1-7-4.7 6.2-3.3 9.1-1.6 1.9-4.8 4-3.8 3.4 1 1.4-2.8 4.6-.9 4.2-.9c0-.9-.1-3.4-1.2-5.2l-.3-.5.3-.3c1.3-1 7.5-7.7 8-8.3l2-3.5 2.6 2.7 2.5-2.1 4.7 4.7 3.3-6.8 4.5 6.5 1.7-3 4.3 3.8-2.2 1.9c-1 2.1-2.3 5.5-2.3 6.5.3 5.7 3.5 10.3 9.2 12.9 4.4 2 3.5 9.3 3.5 9.6l-.2 3.4 3.1 1.1 10.4-.2 5.2-1.9 5.8-1 1.6 2.8 1.4-3.2 3.9-2.2 6.3 2.9 6.4-1.3-4.7 7.9 3.1 1.4-3.3 3.7-18 3.5-4.3-1.5.1-4-8.2 4.4-.3 3.1 3.9 1 .1.1s.6.8 1.2 1.4l.5.6-.8.2c-4.6 1.1-13.2 2.9-13.3 2.9h-.2l-4.6-4-2.6 4.8-6.4-1.6-4.6 5.5-1.7 9.3-6-.5 1 2.6-7.6 6.3-8.3-2.3z"/><path class="st1" d="M366.4 276.2l4.5 6.4 1.8-3.1 3.4 3-1.9 1.6s-2.4 5.3-2.4 6.8c.3 5.9 3.8 10.7 9.5 13.3 4.2 1.9 3.2 9.1 3.2 9.1l-.2 3.8 3.6 1.3 10.6-.2 5.2-2 5.4-.9 1.9 3.4 1.8-4 3.5-2 6.2 2.9 5.5-1.1-4.4 7.4 3 1.4-2.7 3-17.7 3.4-3.8-1.3.1-4.5-9.2 5-.4 3.8 4.1 1.1s.6.8 1.2 1.4c-4.7 1.1-13.3 2.9-13.3 2.9l-4.9-4.3-2.8 5-6.4-1.6-4.8 5.8-1.6 9-6.4-.5 1.1 3-7.1 5.9-7.8-2-3.5-6 .6-6-5 1.5 1.7-3.9 8.2-4.3-4.2-2 .1-5.5-4.9-4.6 1.1-3.5-4.8.4-5.9-2.4-3.1 1.2 3.1-7.9-1-2.7-10.1 3.2-6.1-4.1 5.4-2.9 9.3-1.7 2-5 3.7-3.5 3.5 1 1.5-3 4.4-.9 4.6-1s.3-3.5-1.3-5.9c0 0 0-.1-.1-.1 1.4-1.1 8.1-8.4 8.1-8.4l1.7-2.9 2.5 2.6 2.5-2.1 4.8 4.8 3.4-6.6m-.1-2l-.7 1.5-2.6 5.4-3.8-3.8-.6-.6-.7.6-1.8 1.5-1.8-1.9-.9-1-.7 1.2-1.6 2.8c-1.9 2.1-6.8 7.3-7.9 8.2l-.7.6.5.8c0 .1.1.1.1.1 1 1.5 1.1 3.5 1.2 4.5l-3.8.8-4.4.9-.5.1-.2.4-1.1 2.3-2.7-.8-.6-.2-.4.4-3.7 3.5-.2.2-.1.2-1.8 4.5-8.8 1.6h-.2l-.1.1-5.4 2.9-1.5.8 1.4.9 6.1 4.1.4.3.5-.1 9.2-2.9.5 1.4-2.9 7.6-1 1.9 2.1-.9 2.8-1.1 5.5 2.2.2.1h.2l3.3-.3-.7 2.1-.2.6.5.4 4.6 4.3-.1 5.1v.6l.6.3 2.4 1.2-6.4 3.3-.3.2-.1.3-1.7 3.9-.9 2 2.1-.6 3.6-1.1-.5 4.5v.3l.2.3 3.5 6 .2.4.4.1 7.8 2 .5.1.4-.3 7.1-5.9.6-.5-.3-.7-.6-1.5 4.8.4.9.1.2-.9 1.6-8.7 4.3-5.2 5.8 1.5.8.2.4-.7 2.1-3.9 3.9 3.5.4.3.5-.1c.1 0 8.7-1.8 13.3-2.9l1.5-.4-1-1.2c-.5-.7-1.2-1.4-1.2-1.4l-.2-.2-.3-.1-3.3-.9.3-2.4 7.2-3.9-.1 2.8v.7l.7.2 3.8 1.3.3.1.3-.1 17.7-3.4.3-.1.2-.3 2.7-3 .9-1-1.2-.6-2-.9 3.8-6.4 1.2-1.9-2.2.5-5.2 1.1-6-2.7-.5-.2-.4.3-3.5 2-.6.1-.1.3-.9 2.1-.9-1.6-.3-.6-.7.1-5.4.9h-.2l-5.1 1.9-10.2.2-2.7-1 .1-3c.1-.7.9-8-3.7-10.1-5.5-2.5-8.7-6.9-8.9-12.4 0-.8 1.1-3.8 2.2-6.2l1.7-1.5.9-.7-.9-.8-3.4-3-.9-.8-.6 1.1-1 1.8-3.6-5.1-1.1-1.4z"/></g><path class="st0" d="M84.5 85.4l-3 .8-1.1-2.7 2.1-3.6-4.5-4-3 1.7-4.4-4.1-3.6-6.8 7.1-.6-6.3-5.6-1-8.5-7.4-8.4 3.7-4.7-3.4-7 .2-2.9 7.2-.4 5.3 3.8 8.1-6-.1-4 3.1-3.6 18.2 1.5 4.8-3.3 2.5 3.7 4.8-1.6 3.7 4V26l-3.7 4.5.2 2.1 2 1.8.1 3.3-2.1 1.1.9 1.8v5.2h6.5l2 5.2 4.7 2.7-.8 2.3-3.6 1.7.7 2.5 3.1.1 1 3.6-3.3 1.3v3.7l-2.1 2.1-2.2.9.3 4-1.1 2.2-7-2.7-5.3.7-1.8 1 .2 2-2-.3v2.6l-4.3.3-.5 2.6-1 1.4 1.7 1.1-.1 2.3-1.9.9-4.9-1.2-5 1.2z"/><path class="st1" d="M106.4 17.7l2.4 3.6 4.9-1.6 3.3 3.6v2.5l-3.7 4.5.3 2.5 2 1.8.1 2.7-2.2 1.2 1.1 2.1v5.5h6.6l2 5.1 4.5 2.6-.7 1.7-3.7 1.8.9 3.2 3.1.1.7 2.8-3.2 1.3v3.8l-1.8 1.9-2.5 1 .3 4.2-.9 1.7-6.7-2.6-5.5.7-2.1 1.2.1 1.7-2-.3v3l-4.2.3-.5 2.8-1.2 1.8 1.9 1.2-.1 1.7-1.6.6-4.8-1.2-4.8 1.1-3.6-4.6-2.9.8-.9-2.1 2.2-3.7-5-4.6-3 1.7-4.2-3.6-3.2-6.1 7.5-.6-7.1-6.3-1-8.5-7.2-8.2 3.6-4.6-3.4-7.2.1-2.3 6.6-.4 5.4 3.9 8.6-6.3-.1-4.2 2.8-3.2 18.1 1.5 4.7-3m.2-1.4l-.8.5-4.3 2.9-17.7-1.4h-.5l-.3.4-2.8 3.2-.3.3v.4l.1 3.6-7.6 5.6-4.8-3.5-.3-.2h-.4l-6.6.4-.9.1v.9l-.1 2.3v.3l.1.2 3.2 6.6-3.3 4.1-.5.7.5.6 7 7.9 1 8.2v.4l.3.3 5.3 4.7-5.2.4-1.5.1.7 1.3 3.2 6.1.1.2.1.1 4.1 3.8.5.5.6-.4 2.4-1.3 3.9 3.5-1.8 3-.3.4.2.5.9 2.1.3.8.8-.2 2.3-.6 3.2 4.1.4.5.6-.1 4.6-1.1 4.6 1.1.3.1.3-.1 1.6-.7.6-.3V89l.1-1.7v-.6l-.5-.3-1-.6.6-.9.1-.2v-.2l.4-2 3.4-.3.9-.1v-2.7l.8.1 1.2.2-.1-1.3-.1-1.1 1.4-.8 5.1-.7 6.5 2.5.9.3.4-.8.9-1.7.1-.2v-.3l-.3-3.4 1.8-.7.2-.1.1-.2 1.8-1.9.3-.3v-3.6l2.5-1 .8-.3-.2-.9-.7-2.8-.2-.7h-.7l-2.4-.1-.5-1.7 3-1.4.4-.2.1-.4.7-1.7.3-.8-.7-.4-4.2-2.4-1.8-4.7-.2-.6h-6.2v-4.7l-.1-.2-.6-1.3 1.4-.8.5-.3v-.6l-.1-2.7v-.4l-.3-.3-1.7-1.5-.2-1.7 3.5-4.2.2-.3V23l-.3-.3-3.3-3.6-.4-.5-.6.2-4.2 1.4-2-3-.6-.9z"/><path class="st0" d="M228.9 145.6l-6.5-5.7 2.2-2.2.1-2-1-1 1-2.1-1.9-2.1 2.5-2.1-1.6-1.3-1.8-3.3v-3.9l6.1-2.4 3.4-3.6-2.2-2.4-.7-2.6 2.1-2.7-.7-5.4-1.6-2.9-.8-4-4.4-1.1 2.2-5.4-1.3-3.6 3.3-3.1-.6-3.9-2.4-1.2 1.2-2.5-3.2-3.9 2.3-2.1-.2-4.3-5.7-2.9-.2-3.4 3.5-3.6-1.2-3.2 2.5.4 4.1-5.8 2.7-.2.4 2.8 2.9.4 2.2-2.7 8.1.3 2.5 1.9 1.8 6.3 2.6 1.9h.1l.1.2 4.9 6.4-.9 6 2 3.4 3.2 3-.8 3.7 8.2-.4 5.1 4.9-.9 3.2 4.6 3.4 5.9-.5 7.8-5.1 5.5 4-1.6 3.5 4.9 4-2.3 5.3-2.6.5-1 4-2.7 2.1.3 3.7-3 5.2-3.5 2.5-5.8-3.1-4.9 1.1-2.1 3.9.4 7.4-2 1 1.7 2.3-3.3 4.3-3.3 3.5-.7 2.9-4.2-.8-1.8 1.2-1.5-2.8-2.1 2.3-4.4-.3-1.4 4.5-3.5-1.8-1.9.1-1.8-2.7-3.7 3.3-2 .1-2 4-4.5.1z"/><path class="st1" d="M229.7 44.6l.4 2.7 3.5.5 2.2-2.8 7.7.3 2.3 1.7 1.8 6.3 2.9 2.1 4.7 6.3-.9 5.9 2.1 3.6 3 2.8-.8 4.1 8.6-.5 4.8 4.6-.9 3.2 5 3.7 6.2-.5 7.7-4.9 4.9 3.5-1.6 3.5 4.9 4-2 4.7-2.6.6-1.1 4.2-2.7 2.2.3 3.8-2.9 4.9-3.2 2.3-5.6-3-5.3 1.2-2.2 4.2.4 7.3-2.2 1 1.8 2.5-3.1 4-3.3 3.6-.6 2.5-3.9-.7-1.5 1-1.6-3-2.4 2.7-4.5-.3-1.3 4.3-3.1-1.6-1.7.1-1.9-2.9-4 3.6-2.2.1-2 3.9-3.7.1-.1-2.6-6.3-5.4 2-2 .1-2.4-.8-.9 1-2.1-1.8-2 2.5-2.1-2-1.6-1.7-3.1v-3.4l5.9-2.3 3.8-4-2.4-2.7-.6-2.3 2-2.6-.7-5.7-1.6-2.9-.9-4.3-4.2-1 2.1-5-1.2-3.4 3.2-3.1-.6-4.4-2.2-1.1 1.1-2.4-3.1-3.7 2.1-1.9-.2-4.9-5.7-2.9-.2-2.9 3.6-3.7-1-2.7 1.9.3 4.1-5.9 1.5-.3m.8-1l-.9.1-2 .1h-.5l-.3.4-3.8 5.4-1.3-.2-1.7-.3.6 1.6.8 2.1-3.2 3.2-.3.3v.4l.2 2.9v.6l.5.3 5.2 2.6.2 3.8-1.7 1.6-.7.6.6.7 2.7 3.3-.9 1.9-.4.9.9.4 1.7.9.5 3.4-2.8 2.7-.5.5.2.6 1.1 3.1-2 4.7-.5 1.1 1.1.3 3.5.9.8 3.7v.1l.1.1 1.5 2.7.6 5.1-1.8 2.3-.3.4.1.5.6 2.3.1.2.2.2 1.8 2-3 3.2-5.7 2.2-.6.2v4.4l.1.2 1.7 3.1.1.2.2.1 1 .9-1.6 1.3-.8.7.7.8 1.4 1.5-.7 1.5-.3.6.5.5.6.6-.1 1.6-1.7 1.8-.7.8.8.7 6 5.1.1 2.2v1h1l3.7-.1h.6l.3-.5 1.7-3.4 1.6-.1h.4l.3-.2 3.1-2.8 1.3 1.9.3.5h.6l1.5-.1 2.9 1.5 1.1.5.4-1.1 1.1-3.5 3.8.3h.5l.3-.4 1.4-1.6.9 1.7.5 1 .9-.6 1.2-.8 3.5.6.9.2.2-.9.6-2.3 3.1-3.4 3.1-4 .5-.6-.4-.6-1.1-1.5 1.1-.5.6-.3v-.7l-.4-7 1.9-3.5 4.5-1 5.3 2.8.5.3.5-.4 3.2-2.3.2-.1.1-.2 2.9-4.9.2-.3v-.3l-.3-3.3 2.3-1.8.3-.2.1-.3 1-3.6 2-.4.5-.1.2-.5 2-4.7.3-.7-.6-.5-4.3-3.5 1.3-2.8.3-1.2-.7-.5-4.9-3.5-.6-.4-.6.4-7.5 4.8-5.5.4-4.2-3.1.7-2.5.2-.6-.4-.4-4.8-4.6-.3-.3h-.4l-7.3.4.6-2.8.1-.6-.4-.4-2.9-2.7-1.9-3.2.9-5.6.1-.4-.3-.3-4.7-6.3-.3-.4h-.2l-2.3-1.7-1.7-6-.1-.3-.3-.2-2.3-1.7-.3-.2h-.3l-7.7-.3h-.5l-.3.4-1.9 2.4-2.2-.3-.3-2v-.9z"/><path class="st0" d="M133.9 173.8l-3.1-.2-4.5-6.8.7-6.1-1.1-2.7.3-6 1.2-4.3-1.3-5 2.1-3.4-.8-5.6-1.8-5.5 3.7-3.8-.4-6.7-1.7-4.7.4-4.3 1.9-3.4.9-3.1-1-2.7 2.8.4 2.4-3.5h2.7l2.6-1.8 3.9-4.6 4.5-4.7 2.9.4 3-2 2.6-.4 2.1-.2 2.2 5-2.3 2.8 4.9 5.5 3.4 3.1 2.2-1.5 1.3 5-.3 5.1-2.5.7-1.1 5.5 4.1 4.3 4.2 3.2-2.4 2.3 1.2 1.9-.4 2.1-1 3.3-1 1.9 2.7 5.2 1 6.2-.3 3.5-3.1 1.4-3.5-2.7-2.5 1.9-2.3.7-2.7 4 .3 11.7-3.1 5.6-2.2 3.2-2.4-1.8-1.3 1.6-2.9.1-.4-1.7-1.3-.3-2.3 2.9-1.5-3.6-2.5-.2-1.3 3.8-1.4-2.3-1.4-.1-.3 4.8-1.6.6z"/><path class="st1" d="M158.6 83.6l1.9 4.4-2.4 2.9 5.2 5.8 3.7 3.5 1.9-1.4 1.1 4.3-.4 4.7-2.4.7-1.3 6.1 4.3 4.4 3.8 2.9-2.3 2.2 1.3 2-.4 1.9-.9 3.2-1.2 2 2.9 5.4.9 6-.3 3.2-2.5 1.1-3.6-2.8-2.7 2.1-2.4.7-2.9 4.3.3 11.7-3.1 5.5-1.8 2.7-2.4-1.8-1.5 1.8-2.2.1-.4-1.6-1.8-.4-2 2.5-1.3-3.1-3.2-.3-1.1 3.2-.9-1.6-2.2-.1-.2 4.9-.8.3-1.1-3.9-3.2-.2-4.3-6.4.7-6-1.1-2.8.3-5.8 1.2-4.3-1.2-4.9 2-3.4-.8-5.8-1.7-5.3 3.7-3.8-.5-7-1.6-4.7.4-4.1 1.8-3.3 1-3.4-.8-2 2.3.3 2.4-3.5h2.6l2.8-2 3.9-4.6 4.3-4.5 2.8.3 3.1-2 2.5-.4 1.8.1m.6-1l-.7.1-1.7.2-2.6.4h-.2l-.2.1-2.8 1.8-2.5-.3-.5-.1-.3.4-4.3 4.5-3.8 4.5-2.4 1.7h-2.8l-.3.4-2 3-1.7-.2-1.7-.2.6 1.6.7 1.7-.9 2.9-1.8 3.2-.1.2v.2l-.4 4.1v.2l.1.2 1.6 4.6.4 6.4-3.4 3.4-.4.4.2.6 1.7 5.2.7 5.3-1.8 3.1-.2.4.1.4 1.2 4.6-1.1 4.1v.2l-.3 5.8v.2l.1.2 1 2.6-.7 5.8v.4l.2.3 4.3 6.4.3.4h.5l2.5.1.9 3.2.3 1.1 1-.4.8-.3.6-.2v-.6l.2-3.9h.7l.7 1.1 1.1 1.8.7-2 .8-2.4 1.9.2 1.1 2.6.7 1.6 1.1-1.3 1.6-2 .6.2.3 1 .2.8h.8l2.2-.1h.4l.3-.3.9-1.1 1.6 1.2.8.7.6-.9 1.8-2.7 3.1-5.5.1-.2v-.3l-.3-11.4 2.5-3.7 2.1-.6.2-.1.1-.1 2.1-1.6 2.9 2.3.5.4.5-.2 2.5-1.1.5-.2.1-.6.3-3.2v-.2l-.9-6v-.2l-.1-.1-2.6-4.9.9-1.5.1-.1v-.1l.9-3.2.4-1.9.1-.4-.2-.3-.8-1.3 1.7-1.7.8-.8-.9-.7-3.8-2.9-3.9-4 1-5 1.8-.5.7-.2.1-.7.4-4.7v-.4l-1.1-4.3-.4-1.4-1.2.8-1.3.9-3.1-2.9-4.6-5.1 1.8-2.2.4-.5-.2-.6-1.9-4.4-.6-1.2z"/><path class="st0" d="M209.3 129.6l-2.4-3.6.9-4.1-.8-5.4-3.3.5-2.9 2.8-3.7.3-4.2-1.6-2.7 2.7-3-1.5-4.2 1.1h-5l-3.1 1.1-4.2-3.2-4.1-4.3 1.1-5.7 2.4-.7.4-5-1.3-4.8-2.1 1.5-3.5-3.2-5-5.6 2.4-2.8-2.2-4.9.8-3.6 2-3.3-2-3.7.9-2.2-1.3-2.1.2-4.5 4.5-2.6.6-3.5 2.2-3.6-.7-3 2.4-1.8v-4.6l2.2 1.8 2.6-3.9 1.7 1.5 2.1-1.3 1.6-6.7 2.7 4.9 4.2-.7 3.3-4.4 3.8 6 2.1-2.8 5.4 1.7.4 5.3 3 3.2.3-4.4 1.8-3.1h3.9l2.1-4.7 2.7.1 2.2 3.5-.4 4.8 2.7 3.9 2.2.3 1.1 3.2-3.5 3.7.2 3.2 5.7 2.9.2 4.5-2.2 2 3.2 3.8-1.2 2.6 2.3 1.2.6 4-3.2 3.1 1.3 3.5-2.3 5.3 4.4 1.1.8 4.1 1.7 2.8.6 5.5-2 2.7.6 2.5 2.3 2.5-3.5 3.7-6.1 2.4v3.8l1.8 3.3-3.5-.1-4.5 2.6z"/><path class="st1" d="M188.7 36.8l3.8 6 2.4-3 4.7 1.4.4 5.1 3.9 4.2.4-5.5 1.6-2.8h4l2-4.7 2.1.1 2 3.1-.4 4.8 3 4.2 2.1.3 1 2.6-3.5 3.6.2 3.8 5.6 3 .2 3.9-2.4 2.2 3.3 4-1.2 2.7 2.5 1.3.5 3.5-3.3 3.1 1.3 3.6-2.4 5.7 4.6 1.1.9 3.9 1.6 2.9.6 5.2-2.1 2.7.7 2.9 2 2.2-3.1 3.3-6.3 2.4v4.3l1.5 2.7-2.8-.1-4.6 2.6h-6.1l-2.1-3.2.8-4-.8-5.9-4 .5-2.9 2.8-3.4.4-4.4-1.7-2.7 2.6-2.9-1.4-4.3 1.2-5-.1-3 1-4-3-3.9-4.1 1.1-5.1 2.4-.7.4-5.4-1.5-5.7-2.4 1.7-3.1-2.9-4.7-5.2 2.3-2.7-2.2-5.1.7-3.4 2.1-3.5-2-3.7.9-2.3-1.4-2.2.1-4 4.5-2.6.6-3.6 2.3-3.7-.7-2.8 2.4-1.7-.1-3.8 1.8 1.4 2.6-3.8 1.5 1.3 2.6-1.6 1.4-5.7 2.2 4.1 4.7-.8 3.4-3.9m-10.2-2.1l-.6 2.5-1.3 5.3-1.6 1-.9-.8-.8-.8-.7.9-2 2.9-1-.8-1.7-1.3v2.1l.1 3.3-1.9 1.4-.5.4.2.6.6 2.4-2.1 3.4-.1.2v.2l-.5 3.1-4.1 2.4-.5.3v.6l-.1 4v.3l.2.3 1.1 1.7-.7 1.8-.2.4.2.4 1.8 3.2-1.8 3-.1.1v.2l-.7 3.4-.1.3.1.3 2 4.5-1.9 2.2-.6.7.6.6 4.7 5.2 3.1 2.9.6.6.7-.5 1.2-.9 1.1 4.1-.4 4.6-1.8.5-.6.2-.1.6-1.1 5.1-.1.5.4.4 3.9 4.1.1.1h.1l4 3 .4.3.5-.2 2.8-1 4.8.1h.2l3.9-1.1 2.6 1.2.6.3.5-.5 2.2-2.2 3.8 1.5.2.1h.2l3.4-.4h.3l.2-.2 2.6-2.6 2.7-.4.7 4.8-.8 3.8-.1.4.2.3 2.1 3.2.3.5h6.9l.2-.1 4.3-2.5 2.5.1 1.8.1-.8-1.6-1.3-2.5V120l5.6-2.2.2-.1.2-.2 3.1-3.3.6-.7-.6-.7-1.9-2.1-.5-2.2 1.8-2.3.2-.3v-.4l-.6-5.2v-.2l-.1-.2-1.5-2.7-.8-3.7-.1-.6-.6-.1-3.5-.9 1.9-4.6.2-.4-.1-.4-1.1-3 2.8-2.7.4-.4-.1-.5-.5-3.5-.1-.5-.5-.2-1.7-.8.8-1.8.3-.6-.4-.5-2.7-3.2 1.7-1.5.4-.3v-.5L225 63v-.6l-.5-.3-5.2-2.6-.2-2.7 3.2-3.3.4-.5-.2-.6-1-2.6-.2-.6-.6-.1-1.7-.3-2.5-3.6.4-4.5v-.3l-.2-.3-2-3.1-.3-.4h-.5l-2.1-.1h-.7l-.3.6-1.8 4.1h-3.9l-.3.5-1.6 2.8-.1.2v.2l-.2 3.1-2.1-2.3-.4-4.8-.1-.7-.6-.2-4.7-1.4-.7-.2-.4.5-1.5 1.9-3-4.8-.8-1.2-.9 1.2-2.7 3.7-3.6.6-1.9-3.5-1-2.1z"/><path class="st0" d="M124.1 173.8l-2.2-3.9-2-1.4-3.6 2.1-4.2-3.6-3.3-1.3-.8-4.8-4.9-3.6-5.5.2-1.5-3.5-2.1-1.3-.9-1.5-3.5-.1-1.7-3.7 3-2.1-.4-1.3h-3.8l.3-2.7 1.1-2.7-1.4-4.7-.7-4.5-2.4-2.2 2.2-3.1 4.1-1.2 2.3-3.7 3.5-.5-.7-3.8 1.8-2.1 4.6.2 4.1-2.3.9-3.9.7-6 1.8-2.2 3 .5 5.1.3 4.1-3.5 3.2-1 5.2.5-.2 3.6 1.2 3.2-.9 3.2-1.9 3.3-.3 4.2 1.6 4.8.5 6.8-3.8 3.8 1.8 5.4.8 5.6-2 3.5 1.2 4.9-1.2 4.3-.3 5.9 1.1 2.8-.7 6.1 4.5 6.8-1.6 1.4z"/><path class="st1" d="M124.3 95.4l4.7.5-.2 3.2 1.2 3.1-.9 3-1.9 3.4-.4 4.5 1.6 4.8.4 6.5-3.8 3.9 1.9 5.7.8 5.4-2 3.4 1.3 5-1.1 4.2-.3 6.1 1.1 2.8-.7 6.1 4.4 6.6-1.1 1-4.8-1.1-2.1-3.8-2.3-1.7-3.6 2.1-4-3.4-3.1-1.3-.8-4.7-5.2-3.8-5.4.2-1.4-3.4-2.2-1.3-.9-1.7-3.5-.1-1.4-3.1 3-2.1-.7-1.9h-3.6l.2-2.2 1.1-2.7-1.4-4.9-.7-4.7-2.2-2 1.8-2.6 4.1-1.2 2.3-3.7 3.8-.5-.7-4.1 1.4-1.7 4.5.2 4.5-2.5 1-4.1.7-5.9 1.5-1.9 2.7.4 5.4.3 4.1-3.5 2.9-.8m-.1-1l-.2.1-3 1-.2.1-.2.1-3.8 3.3-5-.3-2.6-.4-.6-.1-.4.5-1.5 1.9-.2.2v.3l-.7 5.8-.9 3.7-3.8 2.1-4.2-.2h-.5l-.3.4-1.4 1.7-.3.4.1.5.6 3.1-2.8.4-.5.1-.3.4-2.1 3.4-3.8 1.1-.3.1-.2.3-1.8 2.6-.5.7.7.6 2 1.8.7 4.3v.2l1.3 4.5-1 2.4-.1.1v.2l-.2 2.2-.1 1.1H90l.2.5-2.4 1.6-.7.5.4.8L89 151l.3.6h.6l2.9.1.6 1.2.1.2.2.1 1.9 1.1 1.3 3.1.3.6h.7l5-.2 4.5 3.4.7 4.3.1.6.5.2 2.9 1.2 3.9 3.3.5.5.6-.4 3.1-1.8 1.6 1.2 2 3.6.2.4.4.1 4.8 1.1.5.1.4-.3 1.1-1 .6-.6-.5-.7-4.2-6.3.7-5.7v-.2l-.1-.2-1-2.6.3-5.8 1.1-4.1.1-.3-.1-.3-1.2-4.6 1.8-3.1.2-.3v-.3l-.8-5.4v-.2l-1.7-5.1 3.3-3.4.3-.3v-.4l-.4-6.5v-.2l-1.6-4.6.4-4 1.8-3.2.1-.1v-.1l.9-3 .1-.3-.1-.3-1.1-2.9.4-3.2.1-1-1-.1-4.7-.5h-.2z"/><path class="st0" d="M102 103.7l-2.2-3.8.2-4.3.9-1.7-.9-1.5-2.2 1.2-.9-1.2 1.1-2.5 1.9-.9.1-2.2-1.7-1.1 1-1.5.5-2.6 4.2-.3v-2.6l2 .3-.1-2 1.8-1 5.4-.7 7 2.7 1-2.1-.3-4 2.3-1 2-2v-3.8l3.2-1.3-.9-3.4-3.1-.1-.7-2.6 3.6-1.7.8-2.2-4.7-2.7-2-5.2h-6.5v-5.2l-.9-1.9 2.1-1.2-.1-3.1-2-1.8-.2-2.2 3.7-4.5v-2.9l4.8-3.3 1.7 1.3 6.1-.4 3 4.2 5.4-.1 1.9 2.6 5.7-.4 5.6 4.1h2.9l1.5-2.2 4.6 1.2v3.2l2.5.9.4 4.4 2 .2 3.7-3.2 2.5 2.8 2.4-.3-.8 4.6-2.7 3.9-2.1-1.6.1 4.4-2.4 1.7.7 3-2.3 3.6-.6 3.5-4.5 2.7-.2 4.3 1.3 2.1-.9 2.3 2 3.7-2 3.3-.8 3.6-2 .3-2.7.3-3 2-2.9-.3-4.4 4.6-3.9 4.6-2.7 1.9h-2.7l-2.3 3.5-2.9-.4-.2-.7.2-3.5-5.1-.5-3.2 1-4 3.5-5.2-.3-3-.5-1.6 2.2-.4 3.2z"/><path class="st1" d="M122.2 20.4l1.6 1.2 5.9-.4 3.1 4.2 5.4-.1 1.9 2.6 5.8-.4 5.5 4.1h3.3l1.4-2.1 3.9 1v3.2l2.5.9.5 4.4 2.6.4 3.5-3.1 2.4 2.6 2-.2-.6 3.9-2.3 3.4-2.5-2 .1 5.2-2.5 1.8.7 3.1-2.2 3.6-.5 3.4-4.6 2.7-.2 4.8 1.3 2-.9 2.2 2 3.6-1.9 3.2-.7 3.3-1.7.2-2.7.4-3 1.9-2.9-.3-4.6 4.8-3.9 4.6-2.5 1.8h-2.8l-2.3 3.5-2.3-.3-.1-.3.3-3.8-5.7-.6-3.4 1.1-4 3.4-5-.3-3.2-.5-1.9 2.5-.3 2.9-4.1-.3-2.1-3.5.2-4 1-1.9-1.3-2.1-2.5.9-.5-.6.9-2.1 2-.9.1-2.8-1.5-1 .8-1.2.4-2.3 4.3-.3v-2.5l2.1.3-.2-2.3 1.5-.8 5.2-.7 7.3 2.8 1.3-2.6-.3-3.8 2-.8 2.2-2.3v-3.6l3.3-1.4-1.1-4.2-3.1-.1-.5-1.9 3.4-1.6 1-2.8-4.9-2.8-2.1-5.3h-6.3v-4.9l-.8-1.6 2-1.1-.1-3.6-2-1.8-.2-1.8 3.7-4.5v-2.8l4.4-2.9m0-1.2l-.6.4-4.2 2.9-.4.3v2.9l-3.5 4.2-.3.3v.4l.2 1.8v.4l.3.3 1.7 1.5.1 2.6-1.4.8-.8.5.4.9.7 1.4v5.6h6.6l1.8 4.7.1.3.3.2 4.2 2.4-.6 1.6-3 1.5-.8.4.2.8.5 1.9.2.7h.7l2.4.1.7 2.6-2.5 1-.6.3v3.9l-1.8 1.8-1.8.8-.7.3.1.7.3 3.5-.8 1.6-6.4-2.5-.2-.1h-.3l-5.2.7h-.2l-.2.1-1.5.8-.6.3v.6l.1 1-.8-.1-1.2-.2v2.8l-3.4.2-.8.1-.1.8-.3 2-.7 1-.6.9.9.6 1.1.7-.1 1.6-1.4.5-.4.2-.2.4-.9 2.1-.2.5.3.5.5.6.5.7.8-.4 1.4-.8.5.8-.7 1.4-.1.2v.2l-.2 4v.3l.2.3 2.1 3.5.3.4h.5l4.1.3 1 .1.1-1 .3-2.6 1.4-1.8 2.6.4 5 .3h.4l.3-.3 3.8-3.3 3-.9 4.5.5-.2 2.9v.2l.1.2.1.3.2.5.6.1 2.3.3.6.1.3-.5 2-3h2.6l.3-.2 2.5-1.8.1-.1.1-.1 3.8-4.5 4.3-4.4 2.4.3h.4l.3-.2 2.8-1.8 2.5-.4 1.7-.2.7-.1.2-.7.7-3.2 1.8-3 .3-.5-.3-.5-1.8-3.2.7-1.8.2-.5-.3-.4-1.1-1.8.1-3.9 4.1-2.4.4-.2.1-.5.5-3.2 2.1-3.4.2-.4-.1-.4-.6-2.4 1.9-1.4.4-.3v-.5l.1-2.9.9.7.8.7.6-.9 2.3-3.4.1-.2v-.2l.6-3.9.2-1.3-1.3.2-1.5.2-2-2.2-.7-.7-.7.7-3.1 2.8-1.4-.2-.4-3.7-.1-.6-.6-.2-1.9-.7v-3.3l-.7-.2-3.9-1-.7-.2-.4.6-1.1 1.7h-2.4l-5.3-3.9-.3-.2h-.4l-5.2.4-1.6-2.2-.3-.4h-.5l-4.9.1-2.8-3.8-.3-.5h-.6l-5.6.4-1.3-1-.3-.4z"/><path class="st0" d="M42.7 156.3l-3.9-.8-3.4-4.8-4.9-.9-1.6-4.3-.6-6.1-4-4.3 3.1-6.6-3.1-4.5-.6-3.9 4.6-6.3 10.4-9.1 6.1-6.9 10.6-8.1 3.3-5.5 8.7-.6 3.5-4.3-.3-6 4.4 4.1 3-1.7 4.6 4.2-2.1 3.6 1.1 2.5 3-.7 3.6 4.5 5-1.1 4.9 1.2-1.1 2.5.8 1.1 2.3-1.3 1 1.7-1 1.8-.2 4.1 2.2 3.8 4.8.4-.3 2.8-1 4-4.2 2.4-4.6-.3-1.6 2 .7 3.9-3.6.5-2.4 3.7-4.1 1.2-2.1 3-1.7-1.5-4.1-.6-3.1 1-.7 4.1-1.4 4.1.3 3 2.8 1.5-1.3 2-3.9-.4-4.6.9-5.5-.2-4.2 1.3-2.8-.8-3 4.4-2.7 2.9-.1 5.6-1.4 5.4z"/><path class="st1" d="M71.1 74.5l3.8 3.5 3-1.7 4 3.7-2 3.4 1.3 3.2 3.1-.8 3.6 4.6 5.1-1.2 4.3 1-1 2.2 1.2 1.7 2.2-1.2.6 1-.9 1.7-.2 4.4 2.4 4.1 4.5.4-.3 2.3-.9 3.7-3.9 2.2-4.7-.2-2 2.3.7 3.6-3.3.4-2.3 3.8-4.1 1.2-1.9 2.7-1.4-1.2-4.4-.7-3.5 1.1-.7 4.4-1.4 4.1.3 3.4 2.6 1.4-.8 1.3-3.7-.4-4.6.9-5.5-.2-4.1 1.3-3.1-.9-3.1 4.8-2.8 2.9-.2 5.8-1.2 4.4-3-3-3.8-.8-3.4-4.8-4.8-.9-1.5-4-.6-6.2-3.9-4.1 3.1-6.5-3.2-4.7-.5-3.5 4.4-6.1 10.4-9 6.2-7L55.7 90l3.3-5.3 8.6-.6 3.7-4.7-.2-4.9M70 72.1l.1 2.4.2 4.6-3.2 4-8.1.6h-.5l-.3.4-3.2 5.2-10.4 8-.1.1-.1.1-6.1 7-10.3 9-.1.1-.1.1-4.4 6.1-.2.3.1.4.5 3.5v.2l.1.2 2.8 4.2-2.8 6-.3.6.5.5 3.6 3.9.6 5.9v.2l1.5 4 .2.5.5.1 4.4.8 3.2 4.5.2.3.4.1 3.5.7 2.8 2.8 1.2 1.2.4-1.7 1.2-4.4v-.2l.1-5.4 2.5-2.7.1-.1v-.1l2.7-4.2 2.3.7.3.1.3-.1 4-1.2 5.4.2h.2l4.4-.9 3.5.4.6.1.3-.5.8-1.3.6-.9-1-.5-2.1-1.1-.3-2.6 1.3-3.9v-.2l.6-3.8 2.7-.9 3.9.6 1.1 1 .8.8.6-.9 1.7-2.5 3.8-1.1.4-.1.2-.3 2.1-3.4 2.8-.4 1-.1-.2-1-.6-3.2 1.4-1.6 4.2.2h.3l.3-.1 3.9-2.2.4-.2.1-.4.9-3.7v-.2l.3-2.3.1-1-1-.1-4-.3-2-3.4.2-3.9.8-1.5.3-.5-.3-.5-.6-1-.5-.8-.1.6-1.4.8-.4-.5.7-1.7.5-1.1-1.2-.3-4.3-1-.2-.1-.2.1-4.5 1.1-3.2-4.1-.4-.5-.6.2-2.3.6-.8-1.9 1.8-3 .4-.7-.6-.5-4-3.7-.5-.5-.6.4-2.4 1.3-3.3-3-1.9-1.8z"/><path class="st0" d="M298.1 209.1l-6.4.3 1.2-5.3-4.9-4 1.6-1.4.6-3.2-4.2-.4-4.1 3.6.3-3.1-2.5-.7-5 1.1-2.4-5.3-3.8-.6-2.8 2.9-4.2 1.8-1.6-2.9-1.6.2-2.5 2.9-2.6-1.4-5.4-.3-2.7 2.3-1-1.1-5.5-.2-1.5-3-1.2-2.7-5.3-3.9 2.7-2.8 2.7 2 2.6-3.2 4.1-2.6 1.9 1.9 5.3-5.5 3.3 1.9.7-5.1 4.4-5 8.1.7 4.4 1.6 4.1-1.8 3.7 1.1 3.8-4.9-.2-3.6 5.2-.9 3.8.3 1.8 3.5 4-4 3.2 1.9.6-4.5 2.7-3 5.2.2 4.2 4.6 6.9-2.5.1-4-.4-.9 9.4.3 5.7 1.9 1.1 4.9 5.6 1.1 5-.1 5.5 4.2-2 1.2-5.1-.6-2.2 1.1 1.6 2.4 5.6 2.8-10.2 6.8 2.5 10.7-5.3 4.2-8.2 7.7-3.1-1-4 3.8-2.7-1.1-.9 4.1-.2 4.1-4.3 1.9-4.6-1.4-4.4-.9-3.6 3.9z"/><path class="st1" d="M320.3 150.6l8.5.3 5.4 1.8 1.1 4.9 6.1 1.1 4.9-.1 4.7 3.7-1.2.7-5.1-.5-2.9 1.4 2.1 3 4.9 2.5-9.8 6.5 2.6 10.7-5.1 3.9-8.1 7.5-3.1-1-3.9 3.8-2.9-1.2-1.1 4.6-.2 4-3.9 1.7-4.4-1.3-4.7-1-3.4 3.7-2.4-2.8-6 .3 1.1-4.9-4.7-3.8 1.3-1.2.7-4-5-.4-3.3 2.9.2-2.2-3-.8-4.7 1-2.3-5.1-4.3-.7-3 3-3.7 1.6-1.5-2.8-2.2.2-2.4 2.8-2.3-1.3-5.7-.3-2.4 2.1-.9-1-5.4-.2-1.4-2.8-1.2-2.7-5-3.7 2-2.1 2.7 2 2.9-3.4 3.7-2.3 2 2 5.4-5.7 3.7 2.1.8-5.6 4.1-4.7 7.8.6 4.5 1.7 4-1.8 3.9 1.1 4.1-5.3-.1-3.3 4.7-.8 3.4.3 1.9 3.8 4.2-4.1 3.5 2.1.7-5.2 2.5-2.7 4.7.2 4.3 4.7 7.5-2.7.1-4.5v-.3m-1.5-1l.6 1.4v.1l-.1 3.6-6.3 2.2-3.8-4.2-.3-.3h-.4l-4.7-.2h-.5l-.3.3-2.5 2.7-.2.2v.3l-.5 3.7-2.2-1.3-.7-.4-.6.5-3.2 3.2-1.3-2.6-.3-.5h-.6l-3.4-.3h-.2l-4.7.8-.9.1v.9l.1 3-3.4 4.5-3.3-.9-.3-.1-.3.1-3.7 1.6-4.2-1.5h-.2l-7.8-.6h-.5l-.3.4-4.1 4.7-.2.2v.3l-.6 4.2-2.4-1.4-.7-.4-.5.6-4.6 4.9-1.3-1.3-.6-.6-.7.4-3.7 2.3-.1.1-.1.1-2.3 2.7-1.9-1.4-.7-.5-.6.6-2 2.1-.8.8.9.7 4.7 3.5 1.1 2.5 1.4 2.8.3.5h.6l5 .1.6.6.7.7.7-.7 2.1-1.9 5.1.3 2.1 1.2.7.4.5-.6 2.1-2.5 1.1-.1 1.2 2.2.4.8.8-.4 3.7-1.6.2-.1.1-.1 2.6-2.6 3.3.5 2.1 4.6.3.7.8-.2 4.5-.9 2 .5-.1 1.4-.2 2.5 1.9-1.6 3-2.6 3.5.3-.5 2.5-1.1.9-.9.8.9.8 4.2 3.4-1 4.3-.3 1.3 1.3-.1 5.5-.3 2.1 2.4.7.9.8-.8 3-3.3 4.1.9 4.4 1.3.4.1.3-.1 3.9-1.7.6-.2v-.6l.2-3.9.8-3.4 1.8.7.6.2.5-.4 3.5-3.4 2.5.8.6.2.4-.4 8-7.5 5-3.9.5-.4-.1-.6-2.4-10 9.2-6.1 1.4-.9-1.5-.8-4.7-2.4-1.3-1.8 1.6-.7 4.8.5h.3l.3-.2 1.2-.7 1.3-.7-1.2-.9-4.7-3.7-.3-.2h-.4l-4.8.1-5.3-1-.9-4.3-.1-.6-.5-.2-5.4-1.8h-.2l-8.5-.3-1.5.2z"/><path class="st0" d="M336.8 219.6l-4.7-1.5-3 .5-2.4-2.9-.4-1.9 2.9-2.7.6-6-1.8-2.2.4-4.3 8.3-7.7 5.2-4.1-2.6-10.7 10.2-6.7-5.5-2.8-1.7-2.6 2.4-1.1 5.1.6 1.9-1.1 1.7.4 4.7 1.4 5.2.2.9-4-1.5-2.8 1.3-3.6 5-5.2 3.8-1.4 3.7-2.2 3.2-.4h3.9l4.9-.1 8 7.2 5.5.1 4.6 2.3 4-3.3 3.2 1.9.5 4.7 4.4 1.6.3 3.8 4 2.9.6 4 2.3-.4 3.3-5.5 2.3 2.5 2.6.1.5-2.2 2.4.5.8 3.5 2.8-1.8 1.5 1.5-2.1 3.5.2 6.9 3.4 1.9-.1 4.2-1.3.9 1.2 1.4-.9 3.5-3.6-.1-.8-1.7-4.1.3-.5 5 2.3 2.1-3 2.8-1 2h-4.1l-1.7 1.5-2.6-1.9-2.8 1.2-1.3-1.2 1-2.8-2.4-2.9.2-2.7-2.6-.3-.5-2.1-3.8 2-4.4-2.9-4.9 3.4-3.2-2-2.8 1h-8.4l-2.6 1.5-2.3-.6-.7 5 2.5 1.8-2.6 3 .6 1.7 2.2.6-.5 3.7 2.5 1.5-.9 7.5-7.2.9-4.4-.7-5.2 2.2-3.9 1.9-4.9-1.6-5.6 1-6.9 1.1-3.9-3.8-5.6 4.5z"/><path class="st1" d="M388.4 145.2l8 7.2 5.6.1 4.7 2.4 4-3.2 2.6 1.5.6 4.8 4.3 1.6.3 3.6 4 3 .6 4.3 3.1-.5 3.1-5.2 2 2.2 3.2.2.5-2.2 1.6.3.9 3.9 3-1.9.9.9-1.9 3.3.2 7.4 3.3 1.9-.1 3.6-1.5 1.1 1.3 1.7-.7 2.8-2.9-.1-.9-1.7-4.8.4-.6 5.7 2.1 1.8-2.7 2.5-.9 1.8h-3.9l-1.6 1.4-2.5-1.9-2.8 1.2-.8-.8 1-2.8-2.5-2.9.2-3-2.7-.3-.5-2.3-4.2 2.2-4.4-3-4.9 3.4-3.2-1.9-2.9 1-8.4.1-2.6 1.4-2.6-.7-.8 5.9 2.3 1.7-2.5 2.8.9 2.2 2 .6-.5 3.6 2.6 1.5-.9 6.8-6.7.8-4.5-.7-5.3 2.3-3.7 1.8-4.8-1.6-5.7 1.1-6.7 1.1-4.1-4-5.4 4.4-1.2-2.3-5-1.6-2.8.4-2.2-2.6-.3-1.5 2.8-2.7.7-6.4-1.8-2.2.4-3.9 8.1-7.6 5.5-4.3-2.6-10.7 10.5-7-6.1-3.1-1.3-2 1.7-.8 5.1.5 1.8-1.1 1.5.4 4.8 1.5 5.7.2 1-4.5-1.5-2.8 1.1-3.4 4.9-5 3.7-1.4 3.7-2.1 3.1-.4 3.8-.1 5.1-.1m.3-1h-.4l-4.8.1-3.8.1h-.2l-3.1.4h-.2l-.2.1-3.6 2.1-3.6 1.3-.2.1-.2.2-4.9 5-.2.2-.1.2-1.1 3.4-.1.4.2.4 1.4 2.4-.8 3.4-4.7-.1-4.6-1.4-1.5-.4-.4-.1-.3.2-1.6.9-4.8-.5h-.3l-.3.1-1.7.8-1.1.5.7 1 1.3 2 .1.2.2.1 4.6 2.3-9.1 6.1-.6.4.2.7 2.4 10.1-5 3.9-8.1 7.6-.3.3v.4l-.4 3.9v.4l.3.3 1.5 1.9-.6 5.6-2.5 2.4-.4.4.1.5.3 1.5.1.2.2.2 2.2 2.6.4.4.6-.1 2.6-.4 4.4 1.4 1 1.9.6 1.1 1-.8 4.7-3.8 3.4 3.4.4.4.5-.1 6.7-1.1 5.5-1.1 4.6 1.5.4.1.4-.2 3.7-1.8 5-2.2 4.2.7h.2l6.7-.8.8-.1.1-.8.9-6.8.1-.7-.6-.3-2-1.1.4-2.9.1-.9-.8-.2-1.5-.4-.5-1.2 2.1-2.3.7-.8-.9-.6-1.8-1.3.6-4.2 1.5.4.4.1.4-.2 2.4-1.3 8.2-.1h.3l2.5-.8 2.8 1.7.6.3.5-.4 4.3-3 3.8 2.6.5.3.5-.3 3-1.6.2 1.1.2.7.7.1 1.8.2-.1 2.1v.4l.3.3 2.1 2.5-.8 2.2-.2.6.5.5.8.8.5.5.6-.3 2.2-1 2 1.5.7.5.6-.6 1.3-1.2h4.2l.3-.5.8-1.6 2.5-2.4.8-.7-.8-.7-1.7-1.5.5-4.4 3.3-.2.6 1.1.3.5h.6l2.9.1h.8l.2-.8.7-2.8.1-.5-.3-.4-.7-.8.7-.5.4-.3v-.5l.1-3.6v-.6l-.5-.3-2.8-1.6-.2-6.5 1.8-3.1.4-.7-.5-.5-.9-.9-.6-.6-.7.4-1.8 1.2-.6-2.5-.1-.6-.6-.1-1.6-.3-.9-.2-.2.9-.3 1.4-1.9-.1-1.8-1.9-.9-1-.7 1.1-2.8 4.8-1.6.3-.4-3.3-.1-.4-.3-.3-3.7-2.7-.3-3.2-.1-.6-.6-.2-3.8-1.4-.5-4.2-.1-.5-.4-.3-2.6-1.5-.6-.3-.5.4-3.5 2.8-4.2-2.1-.2-.1h-.2l-5.2-.1-7.7-7-1.3-.4z"/><path class="st0" d="M422.9 166l-4-3-.3-3.7-4.4-1.6-.5-4.8-3.1-1.7-4 3.2-4.6-2.3-5.5-.1-8-7.2-5 .1-1.7-2.8.8-3.5 1.5-2 1.2 1.3 3.8.8 3-3.1.9-3-1.5-2.7 4.7.1-1.1-2.2 1.3-2-2.2-2.1.8-1.5-1.1-1.6-1.2 1.3-2.5.2-3.1-3.8V114l-3.5.7-1.1-1.9-4.3-.7-.8-2.9-1.5-1.2 3.2-3.1-.9-1.8.8-2.7.3.1 4.6-4.2 3 1.1 2.7-4.1 3.2-1.1 3.1.8 2.3-2.2 1.1 1.4 5.5-6.2 7.5-.3 4.3 6.6 2.3.3 1.9-3.4 5.4 6.7 2.3-.4.3-3.2 5.3-4.7 7.2.4 3.1-1.8.3-3.4 5.1-.6 1.3 4.8 4.2-.1-.5 5.3 5.1 5.6 3.4.5 5.6 6.2-.3 2.9-1.2 3.7 1.5 4.6-1.7 3.2 1.1 3.7-2.3 4.1 1.7 5 3.3 4.4 2.8 3.6.1 4.4-.1 3.3-3.6 2.5-4.1.7-1-1.9-3.8-1-.1-2.5-1.1-1.1-2 1.9-3.1-3.9-2.8 3.8-.7 3.7-5.8 5.8-1.2 2.6-2.1-1.6h-3l-2.2 2-2.6-1.1.2 7-.6 2.5-2.7-.2-2.3-2.4-3.2 5.4-2.5.4z"/><path class="st1" d="M449.5 82.7l1.3 4.8 4-.1-.4 5 5.4 6 3.4.4 5.3 5.9-.2 2.7-1.3 3.7 1.5 4.5-1.6 3.2 1 3.7-2.3 4 1.8 5.3 3.4 4.5 2.6 3.5.2 4.2-.1 3.1-3.2 2.3-3.6.6-1-1.8-3.6-.9-.1-2.4-1.6-1.5-2 1.8-3.2-4-3.3 4.4-.7 3.7-5.7 5.8-1 2.1-1.7-1.3h-3.3l-2.2 1.9-3-1.2.2 7.6-.5 2-2.1-.1-2.6-2.8-3.5 5.8-1.8.3-.5-3.8-4-2.9-.3-3.8-4.4-1.6-.5-4.7-3.6-2-4 3.3-4.4-2.2-5.4-.1-8-7.2-4.9.1-1.5-2.4.7-3.2 1.1-1.5.9 1 4.3.9 3.3-3.4 1-3.4-1.2-2.1 4.6.1-1.3-2.7 1.4-2.1-2.3-2 .8-1.5-1.6-2.3-1.6 1.6-2 .1-2.8-3.4v-4.8l-3.8.8-1-1.8-4.3-.7-.7-2.7-1.2-.9 3.1-3-1-1.9.6-2.1h.1L384 97l3.1 1.1 2.8-4.2 2.9-1 3.3.8 2.1-2 1.1 1.5 5.8-6.6 7-.3 4.2 6.5 2.8.4 1.7-3.1 5.2 6.4 2.9-.5.3-3.4 5-4.4 7.1.4 3.5-2.1.3-3.2 4.4-.6m.7-1.1l-.9.1-4.2.5-.8.1-.1.8-.2 2.7-2.8 1.7-6.8-.4h-.4l-.3.3-5 4.4-.3.3v.4l-.2 2.6-1.6.3-4.8-6-.9-1.1-.7 1.3-1.4 2.5-1.7-.2-4-6.2-.3-.5h-.6l-7 .3h-.4l-.3.3-5 5.6-.5-.4-.7-.9-.8.8-1.7 1.6-2.8-.7-.3-.1-.3.1-2.9 1-.3.1-.2.3-2.4 3.5-2.4-.8-.6-.2-.4.4-4.1 3.8h-.5l-.2.8-.6 2.1-.1.4.2.4.7 1.3-2.5 2.5-.8.8.9.7.9.7.6 2.4.2.6.7.1 3.8.6.8 1.4.4.6.7-.2 2.6-.6v4l.2.3 2.8 3.4.3.4h.5l2-.1h.4l.3-.3.7-.7.6.8-.5.9-.4.7.6.5 1.6 1.5-.9 1.4-.3.5.2.5.6 1.2-3-.1h-1.7l.8 1.5 1 1.8-.8 2.7-2.7 2.8-3.4-.8-.7-.7-.8-.9-.7.9-1.1 1.5-.1.2v.2l-.7 3.2-.1.4.2.3 1.5 2.4.3.5h.6l4.5-.1 7.7 7 .3.3h.4l5.2.1 4.2 2.1.6.3.5-.4 3.5-2.8 2.5 1.5.5 4.2.1.6.6.2 3.8 1.4.3 3.2v.5l.4.3 3.7 2.7.5 3.4.1 1 1-.2 1.8-.3.5-.1.2-.4 2.8-4.7 1.7 1.8.3.3h.4l2.1.1h.8l.2-.8.5-2v-.2l-.2-6.1 1.6.7.6.2.5-.4 1.9-1.7h2.6l1.4 1.1 1 .7.5-1.1 1-1.9 5.6-5.7.2-.2.1-.3.6-3.5 2.4-3.2 2.4 3 .7.9.8-.7 1.3-1.2.6.6.1 2v.8l.7.2 3.2.8.8 1.5.3.6.7-.1 3.6-.6h.2l.2-.1 3.2-2.3.4-.3v-.5l.1-3.1-.2-4.2v-.3l-.2-.3-2.6-3.5-3.3-4.4-1.6-4.7 2-3.7.2-.4-.1-.4-.9-3.3 1.5-2.9.2-.4-.1-.4-1.4-4.2 1.2-3.4v-.2l.2-2.7v-.4l-.3-.3-5.3-5.9-.2-.3h-.4l-3-.4-4.8-5.4.4-4.5.1-1.1h-1.1l-3.2.1-1.1-4-.8-1.3z"/><path class="st0" d="M358.1 164.4l-4.7-1.5-1.8-.4-5.3-4.2-5 .1-5.7-1.1-1.1-4.9-5.7-1.8-9.2-.4-4.1-10.4 2.4-11.2-6.2-5.2-.7-3.3-4.7-2.2 1.1-5.6-5-4.4-.7-3.9-5.4-4.1 2.3-5.3 2.5 1.1 2.6-2.6 2-1.6 3.6 2.3 5.7.4 3.5-1.7 6.1-5.7 4-.1 1.5-1.6 3 2.2h5.9l4.5 1.2 5-3.5 4.7 2.7 4.8-3.4 1.5 5.2 3.2 2.4-.3 3.3 3.9 3.1-1 5 6.5-.7 4.5-2.4 2.8.3-.8 2.6 1 1.8-3.2 3.1 1.5 1.1.6 2.9 4.4.7 1.1 1.9 3.6-.8v4.5l3 3.7 2.3-.2 1.4-1.3 1.2 1.7-.9 1.5 2.3 2-1.3 2.1 1.1 2.3-4.7-.1 1.5 2.6-1 3.1-3 3.1-4-.8-1.1-1.2-1.4 1.8-.8 3.5 1.8 2.8-4 .1-3.2.4-3.7 2.1-3.7 1.4-5 5.1-1.3 3.6 1.6 2.8-1 4.1z"/><path class="st1" d="M357.7 85.1l1.3 4.7 3.1 2.3-.3 3.3 3.9 3.2-1.1 5.3 7.3-.8 4.5-2.3 2.1.2-.7 2.2.9 1.7-3.3 3.2 1.7 1.4.7 3 4.4.7 1.1 2 3.4-.7v4l3.3 4 2.8-.2 1.1-1.1.7 1-.9 1.6 2.2 2-1.2 1.9.9 1.8-4.7-.1 1.8 3.1-.8 2.8-2.8 2.9-3.5-.8-1.4-1.5-1.8 2.4-.8 3.8 1.4 2.2-3.1.1-3.3.4-3.8 2.2-3.8 1.4-5.2 5.3-1.3 3.9 1.6 2.8-1.1 3.6-4.9-.1-4.7-1.5-1.6-.4-5.4-4.2-5.1.1-5.4-1-1.1-4.8-6-2-9-.3-3.9-10 2.4-11.3-6.3-5.3-.6-3.4-4.6-2.2 1.1-5.4-5-4.5-.7-4-5.3-3.9 1.9-4.5 2.3 1 2.8-2.8 1.7-1.3 3.4 2.1 6 .4 3.7-1.8 6-5.6 4.1-.2 1.3-1.4 2.8 2h5.9l4.7 1.3 4.9-3.4 4.7 2.6 4.6-3.1m.6-1.6l-1.1.8-3.9 2.8-4.2-2.3-.5-.3-.5.4-4.5 3.2-4.3-1.2h-5.8l-2.6-1.8-.7-.5-.6.6-1.1 1.1-3.6.1h-.4l-.3.3-5.9 5.5-3.3 1.6-5.5-.4-3.2-2-.6-.4-.6.4-1.7 1.3L301 95l-1.7-.7-.9-.4-.4.9-1.9 4.5-.3.7.6.5 5 3.7.6 3.6.1.3.3.2 4.6 4.1-1 4.9-.2.8.7.3 4.2 2 .5 2.9.1.4.3.2 5.8 4.9-2.2 10.7-.1.3.1.3 3.9 10 .2.6h.7l8.9.3 5.3 1.7 1 4.3.1.6.6.1 5.4 1h.2l4.7-.1 5.1 4 .2.1h.2l1.6.4 4.6 1.4h.2l4.9.1h.8l.2-.8.8-3.5.1-.4-.2-.3-1.3-2.4 1.1-3.3 4.9-4.9 3.6-1.3h.2l3.6-2.1 3.1-.4 3.1-.1h1.8l-.9-1.5-1.2-1.9.7-3.1 1-1.3.6.7.2.2.3.1 3.5.8.5.1.4-.4 2.8-2.9.2-.2.1-.2.8-2.8.1-.4-.2-.4-.9-1.6h4.6l-.7-1.5-.6-1.3.9-1.4.5-.7-.6-.6-1.6-1.5.5-.9.3-.6-.4-.5-.7-1-.7-1-.8.8-.8.8-1.9.1-2.7-3.3v-4.9l-1.2.3-2.6.6-.8-1.4-.2-.4-.5-.1-3.8-.6-.6-2.4-.1-.3-.3-.2-.9-.7 2.5-2.4.5-.5-.3-.7-.7-1.3.6-1.8.4-1.2-1.2-.1-2.1-.2h-.3l-.3.1-4.3 2.2-5.7.6.8-4 .1-.6-.5-.4-3.5-2.8.3-2.7.1-.6-.4-.3-2.8-2.1-1.3-4.3-.7-1z"/><path class="st0" d="M236.9 179.3l-.3-4.1.1-3.7-3.2-.2-.4-4.1-2.7-.1-1-3.6-.7-4.1-1.9-.6.5-3.3-1.8.6-.4-3 4.1-3-.1-1.8h4.4l2-4 2.1-.1 3.8-3.3 1.8 2.6 1.8-.1 3.5 1.8 1.3-4.4 4.5.3 2.1-2.4 1.6 2.9 1.7-1.2 4.1.7.7-2.7 3.3-3.6 3.3-4.2-1.8-2.4 2.1-.9-.4-7.5 2.1-3.9 5-1.1 5.8 3 3.4-2.4 3-5.1-.3-3.7 2.7-2.1 1-4.1 2.7-.6 5.4 4.1.7 4 5 4.4-1.1 5.5 4.7 2.2.7 3.4 6.2 5.2-2.3 11.2L320 151l-.1 4.1-7 2.5-4.2-4.6-5.1-.2-2.7 2.9-.6 4.7-3.3-1.9-4.1 4-1.8-3.6-3.7-.3-5 .9.1 3.5-3.8 5-3.8-1.1-4.1 1.8-4.4-1.6-8-.6-4.4 4.9-.7 5.2-3.4-2-5.3 5.6-1.9-1.9-4.1 2.5z"/><path class="st1" d="M296.2 100.4l5.1 3.8.7 3.9 4.9 4.4-1.1 5.6 4.8 2.3.6 3.3 6.1 5.1-2.3 11 4.4 11.2-.1 3.7-6.3 2.3-4.1-4.5-5.5-.2-2.9 3.2-.5 4.1-3-1.8-3.8 3.8-1.6-3.2-4-.3-5.6.9.2 3.8-3.5 4.6-3.7-1-4 1.8-4.3-1.6-8.3-.6-4.6 5.2-.6 4.6-3.1-1.8-5.2 5.5-1.9-1.9-4.1 2.6-1.3-1.1-.2-3.9.1-4.1-3.2-.2-.5-4.1-2.8-.1-.8-3.2-.7-4.3-1.8-.5.5-3.7-2 .7-.3-2.1 4.1-3-.1-1.5 4.2-.1 2-4 2-.1 3.5-3.1 1.6 2.4 2-.1 3.9 2 1.4-4.6 4.3.3 1.8-2.1 1.5 2.7 2-1.3 4.3.7.8-3.1 3.2-3.5 3.6-4.6-1.6-2.2 1.8-.8-.4-7.6 1.9-3.6 4.6-1 5.8 3.1 3.8-2.7 3.1-5.3-.3-3.6 2.6-2 1.1-3.9 1.8-.6m.3-1.1l-.4.1-2.1.4-.6.1-.2.6-1 3.6-2.3 1.8-.4.3v.5l.3 3.3-2.9 4.9-3.1 2.2-5.3-2.8-.3-.2-.4.1-4.6 1-.4.1-.2.4-1.9 3.6-.1.2v.3l.4 6.9-1.2.5-1.1.5.7 1 1.1 1.6-3.1 3.9-3.2 3.5-.2.2-.1.2-.5 2.2-3.4-.3-.4-.1-.3.2-1.1.7-1-1.8-.7-1.3-.9 1.1-1.5 1.7-3.8-.3-.8-.1-.2.8-1.1 3.5-2.8-1.4-.2-.1h-.3l-1.4.1-1.3-2-.6-.9-.9.8-3.2 2.9-1.6.1h-.6l-.3.5-1.7 3.4-3.6.1h-1l.1 1v1l-3.7 2.7-.5.4.1.6.3 2.1.2 1.2 1.1-.4.5-.2-.3 2.1-.1.9.8.2 1.2.3.6 3.7.8 3.2.2.7h.7l1.9.1.4 3.3.1.8.8.1 2.3.2-.1 3.2.2 3.9v.4l.3.3 1.3 1.1.6.5.6-.4 3.4-2.1 1.3 1.3.7.7.7-.7 4.7-4.9 2.5 1.4 1.3.7.2-1.5.6-4.3 4-4.6 7.7.6 4.2 1.5.4.1.4-.2 3.7-1.6 3.3.9.7.2.4-.5 3.5-4.6.2-.3v-.4l-.1-2.9 4.6-.8 3.3.3 1.4 2.7.6 1.2 1-1 3.3-3.2 2.3 1.4 1.3.8.2-1.5.5-3.8 2.4-2.6 4.6.2 3.8 4.2.4.5.6-.2 6.4-2.3.7-.2v-.7l.1-3.7v-.2l-.1-.2-4.3-10.9 2.2-10.8.1-.6-.5-.4-5.9-4.9-.5-2.9-.1-.5-.5-.2-4.1-2 1-4.8.1-.6-.4-.4-4.6-4.1-.6-3.6-.1-.4-.3-.2-5.1-3.8-.2-.2z"/><path class="st0" d="M366.2 98.4l-4-3.2.3-3.3-3.1-2.3-1.5-5.1-4.7 3.3-4.7-2.6-5 3.4-4.6-1.2h-5.8l-3-2.2-1.4 1.6-4.2.1 1.4-4-2.1-2.9 3.4-3.4-1.8-4 2.2-2.3-.6-5.4-6-3.9-.5-2.8 3.5-5-2.4-5 4.2-3.9-.6-9.7-2.1-1.2-.2-4.2 1.8-3.4 6-3V19l2.4-2.5-4.2-4.3 2.2-7.8 2.6.2 1.5 3.5 6.3-4.7 8.9 8.4.2 6.6 9.4 9.1-.5 3.3-5.7 1-2.5 3 4.6 4.8v3.7l-2.1 2.3 4.4 3-2 3.9 1.8 1.7 3.2-1.7 5.8.1.3 3.2 4.1-.3 4.6-1.9 5.3-.1 1.2 6.7 3.9-1.6 2 2.3-1.6 2.2 5.4 9-1.6 5.8 1.3 6.8 4.5.7-.3 2.5 2.2 3-2.3 2.3-3.2-.8-3.2 1-2.7 4.1-3-1.1-4.5 4.2-3-.2-4.5 2.3-6.7.7z"/><path class="st1" d="M341.4 4.1l8.5 8 .1 6.6 9.3 9-.4 2.7-5.6 1-2.8 3.5 4.7 5v3.3l-2.3 2.6 4.5 3-2 3.9 2.4 2.2 3.4-1.9 5.2.1.3 3.3 4.7-.3 4.5-1.9 4.8-.1 1.2 6.9 4.2-1.7 1.5 1.7-1.6 2.1 5.5 9.2-1.6 5.6 1.4 7.3 4.4.7-.3 2.2 2 2.8-1.8 1.7-3.1-.7-3.4 1.2-2.6 3.9-3-1.1-4.6 4.2-3-.2-4.5 2.3-5.9.6.9-4.6-4-3.2.3-3.3-3.3-2.5-1.6-5.6-5 3.5-4.7-2.6-5 3.5-4.4-1.2H333l-3.2-2.3-1.6 1.7-3.2.1 1.3-3.6-2-2.8 3.3-3.3-1.8-4 2.2-2.2-.7-5.9-6-3.9-.5-2.4 3.5-5.1-2.4-5 4.1-3.7-.6-10.2-2-1.2-.2-3.8 1.7-3.2 6.2-3.1-.1-3.9 2.7-2.7-4.4-4.5 2.1-7.1 1.9.2 1.6 3.8 6.5-4.6m.1-1.3l-.7.5-5.4 4-1.1-2.6-.2-.6-.6-.1-1.9-.2-.8-.1-.2.8-2.1 7.1-.2.6.4.4 3.7 3.8-2 2-.3.3v.4l.1 3.3-5.6 2.8-.3.1-.1.3-1.7 3.2-.1.2v.3l.2 3.8v.5l.4.3 1.6 1 .6 9.2-3.7 3.4-.5.5.3.7 2.1 4.5-3.2 4.6-.2.3.1.4.5 2.4.1.4.4.2 5.6 3.6.6 5-1.8 1.8-.5.5.3.6 1.5 3.4-2.8 2.8-.6.6.5.7 1.7 2.3-1.1 3.1-.5 1.4 1.5-.1 3.2-.1h.4l.3-.3 1-1.1 2.5 1.8.3.2h5.9l4.3 1.2.5.1.4-.3 4.5-3.2 4.2 2.3.5.3.5-.4 3.9-2.7 1.2 4.2.1.3.3.2 2.8 2.1-.3 2.7-.1.5.4.3 3.5 2.8-.8 4-.3 1.3 1.4-.1 5.9-.6h.2l.2-.1 4.3-2.2 2.7.2h.4l.3-.3L384 97l2.4.9.7.3.4-.6 2.4-3.6 2.8-1 2.8.7.5.1.4-.4 1.8-1.7.8-.7-.5-.7-1.8-2.5.2-1.9.1-1-.9-.2-3.7-.6-1.2-6.4 1.5-5.4.1-.4-.2-.4-5.1-8.6 1.2-1.6.5-.6-.5-.6-1.5-1.7-.5-.5-.7.3-3 1.2-1-5.7-.1-.9h-.9l-4.8.1h-.2l-.2.1-4.4 1.8-3.6.2-.2-2.3-.1-.9h-.9l-5.2-.1h-.3l-.2.1-2.8 1.5-1.3-1.2 1.7-3.2.4-.8-.7-.5-3.5-2.4 1.5-1.7.2-.3v-4.1l-.3-.3-4.1-4.3 2-2.5 5.2-.9.7-.1.1-.7.4-2.7.1-.5-.4-.4-9-8.8-.1-6.2v-.4l-.3-.3-8.5-8-.7-.2z"/><path class="st0" d="M298.6 94.8l-5-4.1 1.7-3.5-5.4-3.8-7.8 5-5.9.5-4.7-3.5.9-3.2-5.1-4.8-8.3.5.8-3.9-3.1-2.9-2.1-3.5 1-5.9-5.1-6.7 5-.8.7-4.1-1.9-1.3v-4.4l-1.8-1.5-.1-3.6 1.2-3.8 2.3-.6 2.1-7.4 6-5.9.8-3.8h5.4l1.7 2.7 3.2-3.9 15 .7 2.2 1.5 3.9.7 5.4-2.7 1-10 5.8-.2 4.5 3.8 3.2-2.1 3.1 1.3 6.3-5.7 5.8.5-2.3 7.8 4.3 4.3-2.5 2.5.1 3.8-6.1 3.1-1.8 3.3.3 4.1 2 1.3.6 9.8-4.2 3.8 2.4 5-3.5 5.1.6 2.6 5.9 3.9.7 5.6-2.3 2.2 1.8 4L324 80l2.1 2.8-1.5 4.1-6 5.7-3.5 1.7-5.8-.4-3.6-2.2-1.9 1.5-2.7 2.6z"/><path class="st1" d="M325.6 4.4l5 .4-2.2 7.5 4.1 4.2-2.3 2.3.1 3.7-5.9 3-1.9 3.6.3 4.5 2 1.2.6 9.3-4.3 3.9 2.4 5.1-3.5 5 .6 3.1 6 3.9.6 5.1-2.3 2.3 1.8 4-3.4 3.4 2.2 3-1.3 3.7-5.9 5.5-3.3 1.6-5.5-.4-3.7-2.4-2.3 1.7L301 95l-2.2-.9-4.6-3.8 1.6-3.5-6-4.3-8 5.1-5.6.4-4.3-3.1.9-3.1-5.5-5.2-7.8.4.7-3.5-3.3-3.1-1.9-3.2.9-6-4.6-6.2 4.5-.7.8-4.8-1.9-1.3v-4.4l-1.8-1.5-.1-3.2 1.1-3.5 2.3-.6 2.1-7.6 6-5.9.8-3.6h4.7l2 3.1 3.5-4.3 14.6.7 2.2 1.4 4.2.8 5.8-3 1-9.8 5.2-.1 4.7 3.9 3.3-2.2 3.1 1.3 6.2-5.3m-.3-1.1l-.3.3-5.9 5.4-2.5-1.1-.5-.2-.5.3-2.7 1.8-4.1-3.4-.3-.2h-.4l-5.1.1h-.9l-.1.9-1 9.3-5 2.6-3.6-.7-2-1.3-.2-.2h-.3l-14.6-.7h-.5l-.3.4-2.6 3.2-1.2-1.9-.3-.5h-6.1l-.2.8-.8 3.3-5.8 5.7-.2.2-.1.3-1.9 7-1.8.4-.5.1-.2.5-1.1 3.5-.1.2v.2l.1 3.2v.4l.3.3 1.4 1.2v4.4l.4.3 1.4 1-.6 3.5-3.7.5-1.7.2 1 1.3 4.4 5.9-.9 5.6-.1.4.2.3 1.9 3.2.1.1.1.1 2.9 2.7-.6 2.9-.3 1.3 1.3-.1 7.4-.4 4.7 4.5-.7 2.6-.2.7.6.4 4.3 3.1.3.2h.4l5.6-.4h.3l.2-.1 7.4-4.8 4.7 3.4-1.3 2.8-.3.7.6.5 4.6 3.8.1.1.1.1 2.2.9.6.2.5-.5 2.4-2.4 1.7-1.3 3.1 2 .2.1h.3l5.5.4h.3l.2-.1 3.3-1.6.1-.1.1-.1 5.9-5.5.2-.2.1-.2 1.3-3.7.2-.5-.3-.4-1.7-2.3 2.8-2.8.5-.5-.3-.6-1.5-3.4 1.8-1.8.3-.3-.1-.5-.6-5.1-.1-.5-.4-.3-5.6-3.6-.5-2.2 3.2-4.6.3-.5-.2-.5-2.1-4.4 3.7-3.4.4-.3v-.5l-.6-9.3v-.5l-.4-.3-1.6-1-.2-3.7 1.6-3.1 5.6-2.8.6-.3v-.6l-.1-3.3 2-2 .7-.7-.7-.7-3.7-3.8 2-6.9.3-1.2-1.2-.1-5-.4.2-.4z"/><path class="st0" d="M392.9 265l-4-.9-7.1-2.9 1.6-4-4.1-1.4 4.8-5.6-2.2-4.3-4.6-1.6.4-3.3-3-4.6v-5.5l-1.9-2.9-2 3-3.6-2.3v-4.6l-2.3-3.1 4-1.9 5.2-2.3 4.4.7 7.1-.8.9-7.4-2.5-1.4.5-3.7-2.2-.6-.7-1.8 2.6-3-2.4-1.7.7-5.3 2.4.7 2.6-1.5 8.4-.1 2.8-.9 3.2 1.9 4.9-3.4 4.4 3 3.9-2.1.5 2.2 2.6.3-.1 2.8 2.4 2.9-1 2.8 1.1 1.1 2.8-1.3 2.6 2 1.7-1.6h4l1-1.9 1-1 2.3 5.2 4.3 4.3 1.8 3.7 5 .2 4.1 3.3 4.4 1.3-.8 4.8-3.1 1-.8 3.3-4 .3-.5 4.1 4.3 3.2 4.3 2.5-.9 3.6-3 1.2.2 3.8-2.5 1.7-2.1 4.3-3.4-2.2-3 1.4-4.1 1.5-5.2 6.5-2.2-3h-2.2l-8 .9-7.3 7.7-8.3 8.7-2.6-.6-1.3-3-1.1 2.5-3.3 2.7z"/><path class="st1" d="M406.8 189.1l4.3 2.9 3.6-1.9.4 1.8 2.5.3-.1 2.6 2.4 2.8-1 2.8 1.7 1.6 2.8-1.3 2.6 2 1.9-1.7h4.1l1.1-2.1.4-.4 2.1 4.6 4.3 4.3 1.9 4 5.2.2 4 3.2 4.1 1.2-.7 4.1-3.1 1-.8 3.2-4.1.3-.6 4.8 4.6 3.3 4 2.3-.7 3-3.1 1.3.2 3.8-2.4 1.6-1.9 3.9-3.2-2.1-3.3 1.6-4.2 1.5-4.8 6.1-2-2.6h-2.4l-8.3.9-7.3 8-8.2 8.5-2-.5-1.6-3.8-1.5 3.5-2.6 2.1-1.7-7.2-4.3-.9-6.5-2.8 1.6-4-3.9-1.3 4.5-5.3-2.5-4.8-4.4-1.6.4-3-3-4.7v-5.5l-2.5-3.6-2.1 3.1-2.9-1.8v-4.6l-2-2.7 3.4-1.6 5.1-2.2 4.4.7 7.5-.9 1-8.1-2.6-1.5.6-3.7-2.3-.7-.5-1.3 2.8-3.1-2.7-1.9.6-4.4 2 .5 2.7-1.5 8.3-.1 2.7-.9 3.3 2 4.7-3.3m0-1.2l-.6.4-4.3 3-2.8-1.6-.4-.2-.4.1-2.5.8-8.2.1h-.3l-.2.1-2.3 1.3-1.6-.4-1.1-.3-.2 1.1-.6 4.4-.1.6.5.4 1.8 1.3-2 2.3-.4.5.2.6.5 1.3.2.5.5.1 1.5.4-.4 2.9-.1.7.6.3 2 1.1-.8 6.6-6.6.8-4.2-.7h-.3l-.3.1-5.1 2.2-3.4 1.7-1.1.5.7 1 1.8 2.4v4.8l.5.3 2.9 1.8.8.5.5-.8 1.3-1.9 1.5 2.1v5.5l.2.2 2.8 4.4-.3 2.6-.1.8.8.3 4 1.4 2 3.8-4.1 4.8-.9 1.1 1.4.5 2.9 1-1.2 3-.4.9.9.4 6.5 2.8h.2l3.7.8 1.6 6.6.4 1.5 1.2-1 2.6-2.1.2-.2.1-.2.6-1.4.7 1.7.2.5.5.1 2 .5.6.1.4-.4 8.2-8.5 7.2-7.6 7.8-.9h1.9l1.7 2.2.8 1 .8-1 4.7-5.9 3.9-1.4 2.8-1.3 2.7 1.7 1 .6.5-1 1.8-3.7 2.2-1.5.5-.3v-.6l-.2-3.1 2.4-1 .5-.2.1-.5.7-3 .2-.7-.6-.4-4-2.3-4-3 .4-3.4 3.3-.3.7-.1.2-.7.6-2.6 2.5-.8.6-.2.1-.6.7-4.1.1-.9-.8-.3-3.9-1.2-3.8-3.1-.3-.2h-.3l-4.6-.1-1.6-3.4-.1-.2-.1-.1-4.1-4.1-2-4.4-.6-1.3-1 1-.4.4-.1.1-.1.1-.8 1.6h-3.9l-.3.3-1.2 1.1-2-1.5-.5-.4-.5.2-2.2 1-.7-.7.8-2.2.2-.5-.4-.4-2.1-2.5.1-2.2.1-.9-.9-.1-1.8-.2-.3-1.1-.3-1.3-1.2.6-3.1 1.6-3.8-2.6-1.2-.1z"/><path class="st0" d="M375 284.2l1.8-1.6-1.3-1.5-2.9-2.3-1.7 2.9-4.6-6.5-3.3 6.8-4.6-4.8-2.5 2.2-2.6-2.8-2 3-3.9 4.3h-.1l-2.9 2.5-2.4-1.4-3.7-.4-1.1-4.7-3.4 4.2-1.4-2.4-1.6 2.3-6.2.3-5.1-.4-5.3 2.3-5 .5-2.3-4.9-2.8.3-2.9-3.5-4.5.6-4.8-.6-.7-2.1 2.5-2.6 2.8 1.1 5.1-2.1-.7-2.8-4.3.8-4-1.9-4.4 2.3-4.1-4.9 5.1-2 2.5 1.6 7.6.2 6 .4 4.5 3.2 3.3-4.5-5.4-.7-.4-1.2-4.1.6-4.8-3.9-1.1-2.8 6.1-.6.9-1.9 1.5-1.6 2.7 1.9.4-2.1 4.3-.5 1.3-2.1h3.5l1.5 2.9 4.4-.8v-3.1l3.8-.7v-3l1.9-.3-.6-2.4-4.3-2.4 1.9-3.6 3.9-1.3 1-1.3-.3-6.1-1.2-1-1.2-2.1 2.9-.3-.2-4.6-2.5-1.8 3.1-.5 4.8 1.5 1.3 2.6 5.5-4.5 4 3.9 6.8-1.1 5.6-1.1 4.9 1.7 2.3 3v4.7l3.4 2.1 2.1-3 2 3.1v5.5l3 4.6-.4 3.2 4.6 1.6 2.2 4.4-4.7 5.5 4.1 1.4-1.6 4 6.9 2.9 4.1.9 1.8 7.6-4 3.3-1.7-1.5-1 3.4 1 3.5-.5 3.8-1.9 2.4-2.9-1.6v-2.6l.8-2.4-1.3-1.7-2.5.9.7 3.4-1.1 4.1-3.1.9z"/><path class="st1" d="M343.6 218.3l3.8 3.8 7.1-1.1 5.5-1.1 4.6 1.5 2.1 2.8v4.7l4.1 2.5 1.9-2.8 1.6 2.3v5.5l2.9 4.6-.4 3.4 4.7 1.7 2 3.9-5 5.8 4.2 1.5-1.5 3.9 7.3 3.1 3.9.8 1.7 7-3.5 2.8-2-1.8-1.3 4.3 1 3.6-.4 3.6-1.6 2-2.2-1.3v-2.2l.8-2.6-1.7-2.2-3.3 1.3.8 3.6-.9 3.8-2.5.7-1.9-3.5 1.8-1.7-1.6-2-3.4-2.7-1.7 2.8-4.6-6.6-3.4 7-4.4-4.7-2.5 2.2-2.7-2.9-2.3 3.6-3.5 3.8-3 2.7-2.2-1.3-3.4-.4-1.3-5.4-3.5 4.5-1.5-2.4-1.9 2.7-5.9.3-5.2-.4-5.3 2.4-4.6.4-2.3-4.8-2.9.3-2.9-3.5-4.7.6-4.4-.5-.6-1.5 2.1-2.1 2.7 1 5.6-2.3-.9-3.7-4.5.8-4.2-1.9-4.3 2.3-3.3-4.1 4.2-1.6 2.4 1.6 7.7.1 5.9.4 4.8 3.4 4-5.6-5.9-.8-.5-1.3-4.3.6-4.6-3.6-.8-2.1 5.7-.5 1-2.1 1.2-1.2 2.9 2 .5-2.4 4.2-.5 1.3-2h2.9l1.5 2.9 5.2-.9V250l3.8-.7v-3l2.1-.3-.9-3.1-4.1-2.3 1.6-3 3.9-1.2 1.2-1.6-.3-6.5-1.3-1.1-.8-1.4 2.7-.3.1-5.5-1.7-1.2 1.8-.3 4.5 1.4 1.5 3 5.5-4.6m.1-1.4l-.7.6-4.7 3.8-.9-1.8-.2-.4-.4-.1-4.5-1.4-.2-.1h-.2l-1.8.3-2.4.4 2 1.4 1.3.9.2 3.9-1.7.2-1.5.2.8 1.3.8 1.4.1.2.1.1 1 .8.3 5.7-.8 1-3.6 1.1-.4.1-.2.4-1.6 3-.4.9.8.5 3.7 2.1.5 1.7-.9.2-.8.1v3.1l-3 .5-.8.2v3.1l-3.6.6-1.2-2.3-.3-.5h-4l-.3.5-1 1.6-3.7.5-.7.1-.2.7-.2 1-1.7-1.2-.7-.5-.6.6-1.2 1.2-.1.1-.1.1-.8 1.6-5.2.5-1.3.1.5 1.2.8 2.1.1.3.2.2 4.6 3.6.3.3.4-.1 3.5-.5.2.5.2.6.6.1 4.2.6-2.5 3.5-4-2.8-.2-.2h-.3l-5.9-.4-7.5-.1-2.2-1.4-.4-.3-.5.2-4.2 1.6-1.3.5.9 1.1 3.3 4.1.5.6.7-.4 3.8-2 3.7 1.7.3.1.3-.1 3.6-.6.5 1.9-4.5 1.8-2.3-.9-.6-.2-.5.5-2.1 2.1-.4.4.2.6.6 1.5.2.6.6.1 4.4.5h.2l4.2-.5 2.6 3.1.3.4.5-.1 2.2-.2 2 4.2.3.6.7-.1 4.6-.4h.2l.2-.1 5.1-2.3 4.9.4h.2l5.9-.3h.5l.3-.4 1-1.5.7 1.1.8 1.2.9-1.1 2.3-2.9.8 3.4.2.7.7.1 3.2.4 2 1.2.6.4.5-.5 2.3-2 .1.1.8-.8 3.5-3.8.1-.1v-.1l1.6-2.5 1.9 2 .7.7.7-.6 1.8-1.6 3.7 4 1 1.1.6-1.3 2.7-5.4 3.6 5.2.9 1.3.8-1.3 1.1-1.8 2.4 1.9.9 1.2-1.1 1-.6.5.4.7 1.9 3.5.4.7.8-.2 2.5-.7.6-.2.1-.6.9-3.8.1-.2v-.2l-.6-2.8 1.8-.7.9 1.2-.6 2.2v3l.5.3 2.2 1.3.7.4.5-.7 1.6-2 .2-.2v-.3l.4-3.6v-.2l-.1-.2-1-3.3.7-2.5.8.7.6.6.7-.5 3.5-2.8.5-.4-.1-.6-1.7-7-.1-.6-.6-.1-3.8-.8-6.3-2.7 1.2-3 .4-1-1-.3-2.8-1 4-4.7.4-.5-.3-.6-2-3.9-.2-.3-.4-.1-4-1.4.3-2.6v-.4l-.2-.3-2.8-4.4v-5.9l-.2-.3-1.6-2.3-.8-1.2-.8 1.2-1.4 2-2.8-1.7v-4.5l-.2-.3-2.1-2.8-.2-.3-.3-.1-4.6-1.5-.2-.1-.3.1-5.5 1.1-6.6 1-3.5-3.4-.8-.7z"/><path class="st0" d="M451 239.7l3-1.3.9-3.5-4.3-2.4-4.3-3.2.5-4.3 4-.3.8-3.3 3.1-1 .8-4.6-4.4-1.3-4-3.3-5.1-.1-1.8-3.9-4.3-4.2-2.3-5.2 2-1.8-2.2-2 .5-5.2 4.2-.4.9 1.8h3.4l.8-3.2-1.2-1.5 1.4-1 .1-4-3.4-1.9-.2-7 2-3.5-1.3-1.3-2.9 1.8-.8-3.6-2.2-.5-.2-7.4 2.7 1.2 2.2-2.1h3.1l1.9 1.6 1.2-2.5 5.8-5.8.7-3.7 2.9-3.9 3.1 3.9 2-1.8 1.2 1.1.1 2.5 3.7 1 1.1 1.9 4-.7 3.5-2.5 4.8.6 2.9 3.8.4 5.1-.6 4.9 2.1 5.4 3.7 1.6 1.7 3.1-1.4 2.7 1.3 1.2 4.2-.6 2.6 5.4 4.3.3 1 4.4 5.6.2 1.4 1.6.5 4.1-5.5.6-1.5 8.1-4.4 3.1-4 .6-4.5 2.5v8.6l-2.4 4.2 4.1 1.2-3.8 3.8 1.6 3.8-2 5.9-2-3.9-7.9.1-1.3 1.9-3.8.3-1.4-1.6-2.5.9-5.1 9.4-2.2-1.8-2.5.9-5.9 3.9z"/><path class="st1" d="M455 142.7l3 3.9 2.1-1.9.7.7.1 2.7 3.9 1 1.1 2 4.4-.8 3.4-2.4 4.5.5 2.7 3.5.4 4.9-.6 5 2.2 5.7 3.8 1.6 1.5 2.8-1.5 2.7 1.8 1.7 4.1-.6 2.5 5.4 4.3.2.9 4.4 5.8.2 1.2 1.3.4 3.4-5.4.6-1.5 8.3-4.2 2.9-3.9.6-4.8 2.7v8.8l-2.7 4.6 3.9 1.1-3.5 3.5 1.7 3.9-1.5 4.5-1.6-3.1-8.6.2-1.3 1.9-3.2.3-1.5-1.7-2.9 1-5 9.1-2-1.6-2.8 1-5.2 3.5-.2-2.7 2.9-1.2 1-4.1-4.5-2.6-4.1-3 .5-3.6 4-.3.8-3.3 3.1-1 .9-5.4-4.7-1.4-4.1-3.3-4.9-.1-1.7-3.6-4.3-4.3-2.1-4.7 2.1-2-2.4-2.2.5-4.5 3.5-.3.8 1.7 4.1.1 1-3.9-1-1.3 1.1-.8.1-4.6-3.3-1.9-.2-6.6 2.1-3.7-1.9-1.9-2.6 1.6-.8-3.2-2.1-.4-.2-6.2 2.3.9 2.3-2.1h2.7l2.3 1.8 1.4-2.9 5.8-5.9.7-3.8 2.4-3.3m0-1.7l-.8 1.1-2.5 3.3-.1.2v.2l-.6 3.5-5.6 5.6-.1.1-.1.1-.9 1.8-1.4-1-.3-.2h-3.4l-.3.3-1.9 1.7-1.7-.7-1.4-.6v1.5l.2 6.2v.8l.8.2 1.5.3.6 2.6.3 1.4 1.2-.8 1.9-1.2.8.8-1.7 3-.1.2v.3l.2 6.6v.6l.5.3 2.8 1.6-.1 3.5-.7.5-.9.6.7.8.7.9-.7 2.6-2.7-.1-.6-1.1-.3-.6-.7.1-3.5.3-.8.1-.1.8-.5 4.5-.1.5.4.3 1.6 1.5-1.3 1.3-.5.5.3.6 2.1 4.7.1.2.1.1 4.1 4.1 1.6 3.5.3.6h.6l4.6.1 3.8 3.1.2.1.2.1 3.9 1.2-.6 3.9-2.5.8-.5.2-.1.5-.6 2.6-3.3.3-.8.1-.1.8-.5 3.6-.1.6.5.3 4.1 3 3.9 2.3-.7 2.9-2.5 1-.7.3v.7l.2 2.7.1 1.7 1.4-1 5.1-3.4 2.1-.8 1.5 1.2.9.7.6-1 4.8-8.7 1.9-.7 1.1 1.2.3.4h.5l3.2-.3h.5l.3-.4 1-1.5 7.4-.1 1.3 2.5 1.1 2.2.8-2.3 1.5-4.5.1-.4-.1-.3-1.4-3.3 3-3 1.2-1.2-1.6-.5-2.7-.8 2.1-3.5.1-.2v-8.5l4.2-2.3 3.8-.6h.2l.2-.1 4.2-2.9.3-.2.1-.4 1.4-7.6 4.6-.5 1-.1-.1-1-.4-3.4v-.3l-.2-.2-1.2-1.3-.3-.3h-.4l-5-.2-.8-3.7-.2-.8h-.8l-3.7-.2-2.3-4.8-.3-.7-.7.1-3.6.5-.9-.8 1.1-2 .3-.5-.3-.5-1.5-2.8-.2-.3-.3-.1-3.4-1.4-2-5.1.6-4.8v-.2l-.4-4.9v-.3l-.2-.2-2.7-3.5-.3-.3h-.4l-4.5-.5h-.4l-.3.2-3.3 2.3-3.5.6-.8-1.4-.2-.4.1-.4-3.1-.8-.1-2v-.4l-.3-.3-.7-.7-.7-.6-.7.6-1.3 1.2-2.4-3-.7-1z"/><path class="st0" d="M508 191l-.4-3.9-1.3-1.6-5.7-.2-1-4.4-4.3-.2-2.5-5.5-4.2.6-1.5-1.3 1.5-2.7-1.7-3-3.7-1.6-2.1-5.5.6-4.9-.4-5-2.8-3.8-4.9-.6.2-3.4-.2-4.3-2.7-3.5-3.3-4.5-1.7-5 2.2-4.1-1-3.7 1.7-3.2-1.5-4.6 1.2-3.7.2-2.9 3.7-1.8.6-6.8 3.2.6.6 3.3 4.3 1 5.3-.9 2.8 3.4h3l4.7 2.9 4.6-4.7 4.9 6.7 3.7-1.9 4 1.4 1.6 5.4 3.9-.2 2.6 1.9 3.8-3.9 5.3-1.2-3.9 5.9 4.7 5.1.6 5-4.4 5.6-1 3.8-6 1.8-.7 3 2.7 1.6 3.5.1 2.8 2.3 3.2-1.6.6 2.5-2.7 2.1-4.6-.8-3.5 3.9.3 6.3 5.7.8-.2 4.6 3 3.5-1.6 4.3 4-1.1 1.9 2.3-4 2.2-.6 4.6-1 3.4 1.6 8.7-3.3 1.9-4.8-.9-4.5 2.1-2.4-2.8-1.6.4-4.1 2.8z"/><path class="st1" d="M473.4 96.5l2.3.4.6 3.2 4.8 1.1 5.1-.8 2.8 3.3h3.2l4.9 3.1 4.4-4.6 4.9 6.6 3.8-2 3.6 1.2 1.6 5.5 4.1-.2 2.8 2 4-4.1 3.9-.9-3.4 5.2 4.8 5.3.5 4.7-4.3 5.5-1 3.7-6 1.8-.9 3.6 3.2 1.8 3.5.1 2.9 2.4 3-1.5.4 1.5-2.3 1.8-4.7-.7-3.8 4.3.3 6.8 5.7.9-.1 4.3 2.9 3.4-1.8 5 4.7-1.3 1.2 1.6-3.7 2.1-.6 4.9-1 3.4 1.6 8.4-2.8 1.7-4.8-.9-4.2 2-2.5-2.7-1.9.5-3.9 2.6-2.5-1.8-.4-3.9-1.6-1.8-5.5-.2-.9-4.4-4.4-.2-2.6-5.5-4.3.6-1-.9 1.4-2.6-1.9-3.4-3.7-1.5-2-5.2.6-4.9-.4-5.2-3.1-4.1-4.6-.5.1-2.9-.2-4.5-2.8-3.7-3.3-4.4-1.6-4.8 2.2-4-1-3.7 1.6-3.3-1.5-4.6 1.2-3.6.2-2.7 3.7-1.8.5-6.5m-.9-1.2l-.1 1.1-.5 5.9-3.1 1.5-.5.2v.6l-.2 2.6-1.2 3.4-.1.3.1.3 1.4 4.2-1.5 2.9-.2.3.1.4.9 3.3-2 3.7-.2.4.1.4 1.6 4.8.1.2.1.1 3.3 4.4 2.6 3.4.1 4.2-.1 2.9v.9l.9.1 4.2.5 2.6 3.5.4 4.8-.6 4.8v.2l.1.2 2 5.2.2.4.4.2 3.4 1.4 1.5 2.7-1.2 2.1-.4.7.6.5 1 .9.4.3.5-.1 3.6-.5 2.3 4.8.3.5h.6l3.7.2.8 3.7.2.8h.8l5.1.2 1.1 1.2.4 3.5v.4l.4.3 2.5 1.8.6.4.6-.4 3.8-2.6 1.2-.3 2 2.3.5.6.7-.3 3.9-1.8 4.5.8.4.1.3-.2 2.8-1.7.6-.4-.1-.7-1.5-8.2 1-3.2v-.2l.5-4.4 3.3-1.8 1-.6-.7-.9-1.2-1.6-.4-.5-.6.2-2.8.8 1.1-3.1.2-.5-.4-.4-2.6-3.2.1-3.9v-.9l-.9-.1-4.9-.7-.3-5.6 3.2-3.6 4.2.7.4.1.3-.3 2.3-1.8.5-.4-.2-.6-.4-1.5-.3-1.2-1.1.6-2.4 1.2-2.4-2-.3-.2h-.3l-3.2-.1-2.3-1.3.6-2.4 5.5-1.6.5-.2.1-.5.9-3.5 4.2-5.3.3-.3v-.4l-.5-4.7v-.3l-.2-.2-4.3-4.7 3-4.6 1.3-2.1-2.4.6-3.9.9-.3.1-.2.2-3.4 3.5-2.1-1.5-.3-.2h-.3l-3.4.1-1.4-4.8-.1-.5-.5-.2-3.6-1.2-.4-.1-.4.2-3.1 1.6-4.4-5.9-.7-.9-.8.8-3.9 4-4.2-2.6-.2-.2h-3l-2.5-3-.4-.4-.6.1-4.9.8-3.9-.9-.5-2.6-.1-.7-.7-.1-2.3-.4-1.7-.2z"/><path class="st0" d="M56.2 193.1L52 196l-8.1-5.7-3.1 2.2-7.6-7.9-4 5h-4.6l-2.7-6.8-4.8 2-2.2-7.5-5.3-.4-2.2-8.6-3.5-.2-.4-5.2 2-3.6 3.5-.4 1.3-1.9 1.1-8 6-4.7 1.1-5.2 2.1-.1.9 1.9 3.3.3 4 3.8 1.8 4.7 4.9.9 3.4 4.8 3.9.8 3.4 3.5 3.5.1 3.9 2.9 1.9 4.7 3.7 3.1 4.1-1.7.1 7 2.1 1.6 2.6-1.8 5.3 5.4-.2 5.2 3.2 3-.2 2.7-.8 3.9-6.2-1.1-6.4 4.8z"/><path class="st1" d="M20.3 139.5l.9 1.9 3.5.3 3.8 3.7 1.8 4.8 5 .9 3.4 4.8 3.9.8 3.5 3.5 3.4.1 3.7 2.8 1.9 4.6 4 3.4 3.7-1.6.1 6.5 2.6 1.9 2.5-1.8 4.8 4.9-.2 5.2 3.2 3-.1 2.5-.7 3.3-5.9-1.1-6.2 4.7-6.6-6.4-4.2 2.9-8.1-5.7-3 2.2-7.8-8-4.1 5.3H25l-2.7-6.9-4.8 2-2.1-7.3-5.3-.4-2.2-8.6-3.4-.2L4 163l1.7-3.2 3.5-.4 1.5-2.1 1.2-8 6-4.7 1-5 1.4-.1m.6-1h-.7l-1.4.1-.8.1-.1.7-.9 4.6-5.7 4.4-.3.2-.1.4-1.1 7.7-1.1 1.6-3 .4-.5.1-.2.5-1.7 3.2-.3.3v.3l.3 4.6.1.9.9.1 2.7.2 2 7.9.2.7.7.1 4.6.4 1.9 6.6.3 1.1 1-.4 3.9-1.6 2.3 6 .2.6h5.4l.3-.4 3.4-4.4 7 7.2.6.6.7-.5 2.4-1.7 7.5 5.3.6.4.6-.4 3.5-2.4 6 5.8.6.6.7-.5 5.9-4.5 5.5 1 .9.2.2-.9.7-3.3v-.2l.1-2.5v-.5l-.3-.3-2.9-2.7.1-4.8v-.4l-.3-.3-4.8-4.9-.6-.6-.7.5-1.9 1.3-1.6-1.2-.1-6.1v-1.5l-1.4.6-3.1 1.3-3.4-2.9-1.8-4.4-.1-.2-.2-.2-3.7-2.8-.3-.2h-.3l-3-.1-3.2-3.2-.2-.2-.3-.1-3.5-.7-3.2-4.5-.2-.3-.4-.1-4.4-.8-1.6-4.3-.1-.2-.2-.2-3.8-3.7-.3-.2h-.4l-2.9-.3-.6-1.3-.1-.7z"/><path class="st0" d="M83.4 206.7l2.9-6.5-1.7-2.2.6-5.7 4.5-5.2 4.9-4.8 4.8-4.7 3.6-.9 1.2 1.1 2.7-2.9.2-3.6-1.4-3.3 3.1-2.4 3.3 1.3 4.2 3.5 3.6-2 2.1 1.5 2.2 3.8 5.1 1.2 1.5-1.4 3.2.1 1.2 4 1.4-.5.3-4.8 1.6.1 1.3 2.1 1.2-3.7 2.7.3 1.5 3.5 2.2-2.8 1.4.3.4 1.7 2.7-.2 1.4-1.6 2.4 1.8 2.1-3 2.9-.1 2.3 2.9 1.3 4.3-3.6 3.2-2.8-1.4-3.1 3.3-4.8-1.9-2.4 2.4-5.5-3.3-2.6 7.2-12.3 1.1-5.3 9.2-9.2-.8-2.2 2.6H96l-7.7 7.2z"/><path class="st1" d="M108.9 166.1l3 1.2 4.4 3.7 3.7-2.1 1.7 1.2 2.2 4 5.6 1.3 1.6-1.4 2.6.1 1.2 4.2 2.3-.9.2-4.6h.9l1.7 2.8 1.4-4.3 2 .2 1.7 4 2.5-3.2.8.2.5 1.8 3.3-.2 1.2-1.5 2.4 1.9 2.2-3.3 2.4-.1 2.1 2.6 1.2 3.9-3.1 2.7-2.9-1.3-3.1 3.3-4.8-2-2.4 2.4-5.7-3.4-2.7 7.5-12.2 1.1-5.2 9.2-9.2-.9-2.2 2.7H95.7l-7.7 7.2h-3.9l2.7-6.1-1.7-2.3.5-5.4 4.4-5.1 4.9-4.7 4.7-4.7 3.2-.8 1.3 1.3 3.2-3.4.2-3.9-1.3-3 2.7-1.9m-.2-1.1l-.5.4-2.6 2-.6.5.3.7 1.2 2.8-.1 3.3-2.3 2.4-.6-.6-.4-.4-.6.1-3.2.8-.3.1-.2.2-4.7 4.7-4.9 4.7-4.4 5.1-.2.2v.3l-.5 5.4v.4l.2.3 1.3 1.9-2.4 5.5-.6 1.4h5.8l.3-.3 7.4-7h14.6l.3-.4 1.9-2.2 8.6.8.6.1.3-.6 5-8.7 11.7-1 .6-.1.2-.6 2.3-6.3 4.6 2.8.7.4.6-.6 1.9-1.9 4.2 1.7.6.3.5-.5 2.6-2.8 2.2 1 .6.3.5-.4 3.1-2.7.5-.4-.2-.6-1.2-3.9-.1-.2-.1-.1-2.1-2.6-.3-.4h-.5l-2.4.1h-.5l-.3.4-1.6 2.4-1.6-1.2-.8-.6-.6.8-.9 1.1-2.1.1-.3-1-.2-.6-.6-.1-.8-.2-.6-.1-.4.5-1.5 1.9-1-2.4-.2-.6-.6-.1-2-.2-.8-.1-.3.8-.8 2.2-.6-.9-.3-.5h-1.4l-1-.1v1l-.2 3.9-.6.3-.9-3.1-.2-.7h-.7l-2.6-.1h-.4l-.3.3-1.2 1.1-4.7-1-2-3.6-.1-.2-.2-.1-1.7-1.2-.5-.4-.6.3-3.1 1.8-3.8-3.3-.1-.1-.2-.1-3-1.2-.3-.5z"/><path class="st0" d="M75.3 195.7l.8-3.8.2-2.7-3.2-3 .1-5.2-5.1-5.2-2.6 1.8-2.2-1.7-.1-6.9-4 1.7-3.8-3.2-1.9-4.7-3.9-2.9-3.5-.1 1.5-5.3.1-5.7 2.7-2.8 3-4.6 2.9.9 4.2-1.3 5.5.2 4.6-.9 3.8.4 1.2-1.9-2.7-1.4-.4-3.1 1.5-4.1.6-4.2 3.3-1 4.2.6 4.1 3.7.7 4.6 1.3 4.7-1.1 2.7-.2 2.6h3.7l.5 1.4-3.1 2.1 1.7 3.6 3.5.1.9 1.5 2.1 1.3 1.5 3.5 5.5-.2 4.9 3.7.8 4.8-3.1 2.4 1.4 3.2-.2 3.7-2.8 3-1.2-1.2-3.5.9-4.8 4.7-4.9 4.8-4.5 5.1-.5 5.7 1.6 2.2-2.8 6.5z"/><path class="st1" d="M77.9 125.5l4 .6 3.8 3.5.7 4.4 1.3 4.6-1.1 2.6-.3 3.3h3.9l.3.7-3.1 2.1 2 4.2 3.5.1.8 1.4 2.1 1.2 1.5 3.7 5.7-.2 4.6 3.4.7 4.3-3.2 2.5 1.5 3.5-.1 3.4-2.4 2.5-1-1-3.9 1-4.9 4.8-4.9 4.7-4.6 5.3-.6 6 1.6 2.2-2.4 5.4-7.7-10.1.8-3.6.2-2.9-3.2-3 .2-5.2-5.6-5.7-2.6 1.8-1.7-1.3-.2-7.4-4.4 1.9-3.4-2.9-1.9-4.7-4.1-3.1-3-.1 1.3-4.7.2-5.5 2.6-2.7 2.8-4.3 2.7.8 4.2-1.3 5.5.2 4.6-.9 4.1.4 1.6-2.6-3-1.6-.3-2.7 1.4-4 .7-4 2.7-1m-.1-1l-.2.1-2.8.9-.6.2-.1.6-.6 3.9-1.4 3.9-.1.2v.2l.3 2.7.1.5.5.2 2 1.1-.7 1.1-3.5-.3h-.3l-4.4.9-5.4-.2h-.2l-.2.1-4 1.2-2.4-.7-.7-.2-.4.6-2.8 4.2-2.5 2.7-.3.3v.4l-.1 5.4-1.2 4.6-.3 1.2h1.3l2.7.1 3.6 2.7 1.8 4.4.1.2.2.2 3.4 2.9.5.4.6-.2 3-1.3.1 5.9v.5l.4.3 1.7 1.3.6.4.6-.4 1.9-1.3 4.7 4.8-.1 4.8v.4l.3.3 2.9 2.7-.1 2.4-.8 3.5-.1.5.3.4 7.7 10.1 1 1.4.7-1.6 2.4-5.4.2-.5-.3-.5-1.4-1.9.5-5.3 4.4-5.1 4.9-4.7 4.7-4.6 3.1-.8.6.6.7.7.7-.7 2.4-2.5.3-.3v-.4l.1-3.4v-.2l-.1-.2-1.2-2.8 2.6-2 .5-.4-.1-.6-.7-4.3-.1-.4-.3-.2-4.6-3.4-.3-.2h-.4l-5 .2-1.3-3.1-.1-.3-.3-.2-1.9-1.1-.7-1.2-.3-.5h-.6l-2.9-.1-1.4-2.9L91 146l.6-.4-.3-.7-.3-.7-.2-.7h-3.5l.2-2 1-2.4.1-.3-.1-.3-1.3-4.6-.7-4.4-.1-.4-.3-.2-3.8-3.5-.2-.2h-.3l-4-.6v-.1z"/><path class="st0" d="M274.7 261.9H271l2.2-3.9v-3.9l-4.6-3.6-.4-2.4 1.8-1.4 5 .1 1.5-4.8-2.2-2.7-4-1.7 2.1-2.5-2.3-1.5-1.7 1.4-3.7-.7-2.5-3.8.3-4.4 1.3-4.3-3.4-4.4-1.6 2.1-1.3-1.9-4.1.8-4.5-1.1.8-6.1-3.4-2.5.6-5.1-2.2-1.6-1.7-4 2.8-1.6-.7-.9 2.7-2.3 5.4.3 2.6 1.4 2.4-3 1.8-.1 1.5 2.8 4.1-1.7 2.9-2.9 3.9.6 2.3 5.2 5-1 2.6.7-.2 2.9 3.8-3.4 4.5.4-.7 3.4-1.6 1.3 4.9 4-1.1 5.1 6.3-.3 2.5 3 3.5-3.8 4.5.9 4.6 1.4 4.2-1.8.2-4.1 1-4.3 2.7 1.1 4-3.8 3.1 1.1-.4 4.2 1.8 2.2-.6 6.1-2.9 2.7.4 1.8 2.4 2.9 2.4 1.7.3 4.8-2.9.3 1.1 2 1.2 1 .3 6.2-1 1.3-3.9 1.3-1.9 3.4 4.3 2.4.7 2.6-2 .3v3l-3.8.7v3.1l-4.6.8-1.4-2.8h-3.4l-1.3 2-4.3.5-.4 2.2-2.8-1.9-1.4 1.5-.9 1.9-6.2.6-.5-1.5-1.7.6 1 3.9-3.1 3-5.1-2.6-1.6 2-2 .5.3-3.6.3-2.5-1.8-1.1-.6 2.7-5.3 5z"/><path class="st1" d="M268.7 190.5l3.4.5 2.4 5.3 5.2-1.1 2.1.6-.3 3.7 4.6-4.1 3.7.3-.5 2.7-1.9 1.6 5.1 4.1-1.2 5.5 6.7-.3 2.7 3.2 3.7-4.1 4.2.9 4.7 1.4 4.7-2 .2-4.4.8-3.6 2.5 1 4-3.8 2.5.8-.4 4.1 1.8 2.2-.6 5.7-2.9 2.8.5 2.2 2.5 3 2.3 1.6.2 4.1-3.2.3 1.5 2.7 1.2.9.3 5.8-.8 1.1-4 1.3-2.1 4.1 4.5 2.5.5 1.8-1.8.3v3l-3.8.7v3.1l-3.8.7-1.4-2.8h-3.9l-1.3 2-4.4.6-.4 1.8-2.5-1.7-1.8 1.9-.8 1.8-5.5.5-.6-1.6-2.5.8 1.1 4.1-2.7 2.5-5.2-2.7-1.7 2.2-1.2.3.2-2.9.3-2.8-2.7-1.6-.7 3.3-4.9 4.6-2.3-1.8h-3l1.8-3.3v-4.3l-4.6-3.7-.3-1.9 1.4-1.1 5.1.1 1.7-5.4-2.5-3-3.5-1.5 2.1-2.4-3.1-2-1.8 1.5-3.3-.6-2.3-3.4.3-4.2 1.3-4.4-4-5.1-1.5 2.1-1.1-1.6-4.2.9-4-1 .8-5.9-3.3-2.5.5-5.1-2.3-1.7-1.5-3.4 3-1.7-.8-.9 2.2-1.9 5.2.3 2.8 1.5 2.6-3.1 1.2-.1 1.6 3 4.6-2 2.6-2.9m-.4-1l-.4.4-2.6 2.6-3.5 1.5-1.2-2.2-.3-.6-.7.1-1.2.1h-.4l-.3.3-2.1 2.5-2.1-1.1-.2-.1h-.2l-5.2-.3h-.4l-.3.3-2.2 1.9-.8.7.7.8-1.9 1.1-.8.4.4.8 1.5 3.4.1.2.2.2 1.8 1.4-.5 4.6-.1.6.5.3 2.9 2.1-.7 5.3-.1.9.9.2 4 1 .2.1h.2l3.6-.8.8 1.1.8 1.1.8-1.1.8-1 2.9 3.7-1.1 4v.2l-.3 4.2v.3l.2.3 2.3 3.4.2.3.4.1 3.3.6.5.1.4-.3 1.2-1 1.5 1-1.3 1.5-.9 1 1.3.5 3.3 1.4 2 2.4-1.3 4.2-4.4-.1h-.3l-.3.2-1.4 1.1-.5.4.1.6.3 1.9.1.4.3.2 4.2 3.4v3.5l-1.7 3.1-.8 1.5h4.4l2 1.6.7.5.6-.6 4.9-4.6.2-.2.1-.3.4-1.9.9.6-.3 2.1-.2 2.9-.1 1.4 1.3-.3 1.2-.3.3-.1.2-.3 1.2-1.6 4.4 2.3.6.3.5-.5 2.7-2.5.4-.4-.1-.6-.8-3.2.7-.2.3.7.3.7.8-.1 5.5-.5.6-.1.2-.5.8-1.6 1.1-1.1 1.8 1.2 1.2.8.3-1.4.2-1.1 3.7-.5.5-.1.3-.4 1-1.6h2.8l1.2 2.3.3.7.7-.1 3.8-.7.8-.1v-3l3-.5.8-.1v-3l1-.2 1.1-.2-.3-1.1-.5-1.8-.1-.4-.4-.2-3.6-2.1 1.5-2.9 3.6-1.1.3-.1.2-.3.8-1.1.2-.3v-.4l-.3-5.8v-.4l-.3-.3-1-.8-.7-1.2 1.7-.2.9-.1v-.9l-.2-4.1v-.5l-.4-.3-2.2-1.5-2.3-2.7-.7-1.4 2.5-2.4.3-.3v-.4l.6-5.7v-.4l-.3-.3-1.5-1.9.3-3.7.1-.8-.8-.2-2.5-.8-.6-.2-.4.4-3.5 3.4-1.9-.8-1.1-.4-.3 1.1-.8 3.6v.2l-.2 3.8-3.8 1.6-4.3-1.3-4.2-.9-.6-.1-.4.4-3 3.2-2-2.4-.3-.4h-.5l-5.4.3.9-4.2.1-.6-.5-.4-4.2-3.4 1-.9.3-.2.1-.3.5-2.7.2-1.1-1.1-.1-3.7-.3h-.4l-.3.3-2.8 2.4.1-1.2.1-.8-.8-.2-2.1-.6-.2-.1h-.2l-4.4.9-2-4.6-.2-.5-.5-.1-3.4-.5-.6.1z"/><path class="st0" d="M224.3 318.7l-5.1-2.9h-7.3l-10.7 7.8-1.2-4.2-2.1-1.4-1.2 7.5-7.1-1.5-6.9-3.2-1.2-4.8-2.5-3.5 3.8-1.4 6.2.9.9-3.7-1.6-4.1 3.4-4.3 4.6-1.9.8-6.2 6.7-1.7-.6-4.5 3.2-4-4.1-3 .9-8.1 3.2-3.3 5.1-1.3-.3 5.5 1 2.9 7.4-6.7.3 3.2 4.3 2.8 3.6-5.1 3.5 4 6 1.8 1.4-2.8-4.9-4.4 1.3-2.3-.9-2.4 1.1-5.9-2.4-5-4 .3-5.5-3.5 1.8-4.3-1.9-3.1.8-6.3.7-2.4-2.3-1.7-2.7 4-4.2-8.5-5.8-3.1 2.5-5.3 1.9-4.8-1.5-3.7v-4.6l-2.8-3-3.3 3.5-3.6-5.2 4.3-2.6.2-3.7 2.8-.3 3 2.9 4 .4 2.6-2.3 1.5 2.2 5.2-.3.5-4 3.5-1.1 2.9 1.5 3.7-1.3 1.5 3 5.5.1 1.8 2.1-2.9 1.7 1.7 3.8 2.2 1.6-.5 5.2 3.3 2.4-.8 6.1 4.4 1.1 4.1-.8 1.3 1.8 1.5-2.1 3.6 4.6-1.2 4.3-.3 4.4 2.4 3.7 3.6.6 1.7-1.4 2.5 1.6-2.1 2.5 3.9 1.7 2.2 2.8-1.5 4.9-5-.1-1.8 1.3.4 2.3 4.6 3.6v4l-2.2 3.9h-.9l-4.7 3.2-4.8 1.1-.3 6.2-4.2 2.1.3 4.5-4.4 5.5-2.6-4.8-3.4-6.4-4.4-1.3-2.1 3.7-.1 1.7 1.4 2.9 5.9 1.9 3.7 5.4-3.4 3.1-4.9 7.3-1.9-2.8-1.9 3.5-1.9-2.7-3.2 2 .3 3.3-3.8.7.5 3-.8 3.1-2.4-2.6.1-5.5-2.7-1.9-1.4 5.1-.3 5.6 2.9 2.4-1.6 2 3.4 2.5.6 5.6-2.6 4.9z"/><path class="st1" d="M230.5 191.5l3 1.5 3.5-1.2 1.4 2.9 5.6.2 1.3 1.5-2.7 1.6 1.9 4.4 2.1 1.5-.5 5.1 3.3 2.5-.8 6.2 5 1.3 3.9-.8 1.5 2.1 1.6-2.1 3 3.9-1.2 4.1-.3 4.6 2.7 4 4 .8 1.6-1.3 1.7 1.1-2.2 2.6 4.4 1.9 2 2.4-1.4 4.3-4.8-.1-2.1 1.6.5 2.8 4.5 3.6v3.6l-2 3.5h-1l-4.7 3.2-5.1 1.1-.3 6.4-4.3 2.1.3 4.7-3.7 4.8-2.3-4.1-3.4-6.6-5-1.5-2.4 4.2-.1 1.9 1.6 3.2 5.9 1.9 3.4 5-3.1 2.9-4.5 6.7-1.9-2.8-1.9 3.5-1.7-2.4-3.8 2.4.3 3.1-3.8.7.5 3.4-.5 2.1-1.7-1.8.1-5.6-3.5-2.4-1.6 5.8-.3 6 2.8 2.2-1.6 2.1 3.6 2.6.5 5.2-1.8 3.4-1-6.2-5.4-3.1H212l-10.3 7.5-1-3.7-2.9-1.9-1.2 7.7-6.5-1.4-6.6-3.1-1.1-4.6-2.2-3.1 3-1.1 6.6.9 1-4.3-1.6-4 3.1-4 4.8-2 .7-6.1 6.8-1.8-.6-4.7 3.4-4.2-4.3-3.2.8-7.6 3-3 4.3-1.1-.3 4.9 1.3 3.8 7.2-6.6.2 2.4 4.9 3.3 3.6-5 3.1 3.6 6.5 2 1.9-3.5-5-4.4 1.2-2.2-.9-2.4 1-6-2.5-5.4-4.3.3-5-3.2 1.8-4.1-2-3.1.9-6.2.7-2.7-3-2.2-2.5 3.7-3.9-7.8-5.5-2.9 2.2-4.9 2.1-5-1.6-3.8v-4.7l-3.3-3.5-3.2 3.5-3-4.3 4.1-2.4.2-3.6 2.2-.2 2.9 2.8 4.4.5 2.3-2.1 1.3 2 6-.3.5-4 2.8-1.7m.1-1l-.4.1-3 .9-.6.2-.1.6-.4 3.2-4.6.3-1-1.5-.6-1-.9.8-2 1.8-3.6-.4-2.7-2.6-.3-.3-.5.1-2.2.2-.9.1v.9l-.1 3-3.6 2.1-.9.5.6.9 3 4.3.7 1 .8-.9 2.5-2.7 2.3 2.5v4.5l.1.2 1.4 3.4-1.9 4.6-2.2 4.9-.4.9.8.4 5.2 2.8 3.8 7.5.8 1.5 1-1.4 1.9-2.8 1.6 1.2-.5 2v.2l-.9 6.2-.1.4.2.3 1.7 2.7-1.6 3.6-.3.8.7.5 5 3.2.3.2h.3l3.6-.3 2.1 4.5-1 5.7v.3l.1.3.7 2-1 1.8-.4.7.6.5 4.4 3.9-1.1 2-5.5-1.6-2.9-3.4-.8-1-.7 1-3 4.2-3.7-2.5-.2-1.9-.2-2-1.5 1.4-6 5.6-.7-2.2.3-4.7.1-1.4-1.3.4-4.3 1.1-.3.1-.3.1-3 3-.2.2v.3l-.8 7.6-.1.6.5.3 3.4 2.6-2.7 3.4-.3.3.1.4.5 3.9-6 1.6-.7.2-.1.7-.7 5.5-4.3 1.7-.2.1-.2.2-3.1 4-.4.5.2.5 1.5 3.7-.7 3.1-5.7-.8h-.2l-.2.1-3 1.1-1.2.4.8 1.1 2.1 3 1.1 4.4.1.5.4.2 6.6 3.1h.2l6.5 1.4 1 .2.2-1 1-6.1 1.3.9.9 3.3.4 1.4 1.2-.8 10-7.3h7l4.8 2.7.9 5.8.5 2.9 1.4-2.6 1.8-3.4.1-.3v-.3l-.5-5.2v-.4l-.4-.3-2.7-2 1-1.3.6-.8-.8-.6-2.4-1.9.3-5.4 1.2-4.3 1.9 1.3-.1 5.1v.4l.3.3 1.7 1.8 1.3 1.3.4-1.8.5-2.1v-.4l-.4-2.5 2.9-.6.9-.2-.1-.9-.2-2.5 2.5-1.6 1.2 1.6.9 1.3.8-1.4 1.1-2.1 1 1.5.8 1.2.8-1.2 4.4-6.6 3-2.8.6-.6-.5-.7-3.4-5-.2-.3-.3-.1-5.5-1.8-1.3-2.6.1-1.4 1.9-3.3 3.8 1.2 3.3 6.2 2.3 4.1.7 1.3.9-1.2 3.7-4.8.2-.3v-.4l-.3-4 3.7-1.8.5-.3v-.6l.3-5.6 4.3-.9h.2l.2-.1 4.5-3.1h1.1l.3-.5 2-3.5.1-.2v-4.4l-.4-.3-4.2-3.4-.3-1.8 1.4-1 4.4.1h.7l.2-.7 1.4-4.3.2-.5-.3-.4-2-2.4-.2-.2-.2-.1-3.2-1.4 1.3-1.5.8-.9-1-.6-1.7-1.1-.6-.4-.6.5-1.3 1-3.2-.6-2.2-3.4.3-4.2 1.2-4 .1-.5-.3-.4-3-3.9-.8-1-.8 1.1-.7 1-.7-1-.4-.5-.6.1-3.6.8-3.9-1 .7-5.3.1-.6-.5-.3-2.9-2.1.5-4.6.1-.6-.5-.3-1.9-1.4-1.4-3.3 2-1.1 1.1-.6-.8-.9-1.3-1.5-.3-.3h-.4l-5-.1-1.2-2.4-.4-.8-.8.3-3 1.1-2.6-1.3h-.5z"/><path class="st0" d="M202.6 199.2l-1.5-4.3-6.5-1.3-3.6 2.4-4.2-6.2-6.8-.6v-3.3l-3.7-.2-4.6-5.5-4 .4-3.5-2.7-1.3-4.2-2.3-2.9-2.9.1 3.2-5.8-.3-11.7 2.7-4 2.4-.7 2.5-2 3.5 2.7 2.9-1.3.3-3.4-.9-6.1-2.8-5.3 1.1-1.9.9-3.3.4-2.1-1.1-1.9 2.4-2.4 3.1-1.1 5 .1 4.2-1.1 3 1.4 2.7-2.6 4.2 1.6 3.6-.4 2.9-2.8 3.5-.4.8 5.5-.9 4.1 2.3 3.5h6.4l4.6-2.6 3.5.1 1.7 1.4-2.5 2.1 1.9 2.1-1 2.1.9 1-.1 2-2.1 2.2 6.5 5.6.2 4.6-4.1 3.1.4 2.7 1.9-.6-.5 3.5 1.8.5.7 4.1 1 3.6h2.7l.4 4.2 3.2.2v3.8l.2 4 1.7 1.5-2.7 3.3-2.6-1.9-2.6 2.6 5.2 3.8 1.2 2.8-3.7 1.3-2.9-1.5-3.4 1.1-.5 4-5.4.3-1.5-2.2-2.5 2.3-4.1-.4-2.9-2.9-2.7.3-.2 3.7-4.3 2.6z"/><path class="st1" d="M206.7 116.9l.7 4.9-.9 4.2 2.6 3.9h6.8l4.6-2.6 3.1.1 1.1.9-2.4 2 2 2.2-1 2.1 1 1.1-.1 1.7-2.4 2.5 6.7 5.8.2 4.2-4.1 3 .5 3.7 1.7-.6-.4 3.1 2 .6.7 3.8 1 3.9 2.7.1.5 4.1 3.1.2-.1 3.3.2 4.3 1.5 1.3-2.1 2.5-2.6-1.9-3.3 3.3 5.6 4.1.9 2.1-3 1.1-2.9-1.5-3.9 1.2-.5 3.9-4.7.3-1.6-2.4-2.8 2.5-3.7-.4-3-2.9-3.4.4-.2 3.9-3.7 2.2-.2-.2-1.6-4.6-7-1.4-3.3 2.3-4-6-6.6-.6v-3.3l-4-.2-4.6-5.5-4 .4-3.3-2.4-1.3-4.2-2.4-3.1-2.3.1 2.9-5.1-.3-11.7 2.5-3.8 2.3-.7 2.3-1.8 3.4 2.7 3.5-1.5.3-3.8-.9-6.2-2.7-5.1 1-1.7.9-3.4.4-2.3-1.1-1.7 2.1-2 2.9-1 5 .1 4.1-1.1 3.2 1.5 2.7-2.7 4 1.6 3.9-.4 2.9-2.8 2.9-.6m.8-1.1l-1 .1-2.8.4h-.3l-.2.2-2.6 2.6-3.3.4-3.8-1.5-.6-.2-.5.4-2.2 2.2-2.5-1.2-.3-.2-.4.1-3.9 1.1-4.8-.1h-.2l-.2.1-2.9 1-.2.1-.2.2-2.1 2-.6.6.4.7.9 1.4-.3 1.9-.9 3.2-.9 1.6-.3.5.3.5 2.6 5 .9 6-.3 3.1-2.4 1.1-3-2.3-.6-.5-.6.5-2.1 1.7-2.1.6-.3.1-.2.3-2.5 3.8-.2.3v.3l.3 11.4-2.7 4.9-.9 1.5h3.6l2 2.6 1.3 4.1.1.3.3.2 3.3 2.4.3.2h.4l3.5-.4 4.3 5.1.3.3h.4l3 .2v3.3l.9.1 6.1.6 3.8 5.6.6.8.8-.6 3-2 6 1.2 1.4 4v.1l.1.1.2.2.5.8.8-.5 3.7-2.2.5-.3v-.5l.1-3 2.1-.2 2.7 2.6.2.2h.3l3.7.4.5.1.3-.3 1.9-1.8 1 1.4.3.5h.6l4.7-.3h.8l.1-.8.4-3.2 2.9-.9 2.6 1.3.4.2.4-.1 3-1.1 1-.4-.4-1-.9-2.1-.1-.2-.2-.2-4.7-3.4 1.8-1.9 1.9 1.4.8.6.6-.7 2.1-2.5.6-.8-.7-.6-1.2-1-.2-3.9.1-3.3v-.9l-.9-.1-2.3-.2-.4-3.3-.1-.9h-.9l-1.9-.1-.8-3.2-.6-3.8-.1-.6-.6-.2-1.1-.3.3-2.2.2-1.6-1.5.5-.6.2-.3-1.9 3.7-2.7.4-.3v-.5l-.2-4.2v-.4l-.3-.3-5.9-5.1 1.6-1.7.3-.3v-.4l.1-1.7v-.4l-.3-.3-.5-.6.7-1.5.3-.6-1-.8-1.3-1.4 1.6-1.3.9-.8-.9-.8-1.1-.9-.3-.2h-.3l-3.1-.1h-.3l-.3.1-4.3 2.5h-6l-2-3.1.8-3.8v-.4l-.7-4.9-.2-1.1z"/><circle class="st1" cx="254.4" cy="102.6" r="6.6"/></svg>