<svg id="Layer_1" data-name="Layer 1" xmlns="http://www.w3.org/2000/svg" viewBox="0 0 196.02 153"><defs><style>.cls-1{fill:#010101}.cls-2{fill:#f2b81b}</style></defs><title>icon</title><path class="cls-1" d="M109.61 11H2.23a2.34 2.34 0 0 0-1 .25 2.42 2.42 0 0 0-.51.38A2.21 2.21 0 0 0 0 13.2v82.46a2.23 2.23 0 0 0 2.23 2.23h107.38a2.11 2.11 0 0 0 .89-.19 2.19 2.19 0 0 0 1.33-2V13.2a2.23 2.23 0 0 0-2.22-2.2zM4.45 15.42h102.93v78H4.45v-78z"/><path class="cls-1" d="M75.05 80.87A2.22 2.22 0 0 1 73 79.51L55.27 37.28 40.93 78.63a2.22 2.22 0 1 1-4.2-1.46L53 30.33a2.22 2.22 0 0 1 4.15-.13l20 47.59a2.22 2.22 0 0 1-2.1 3.08z"/><path class="cls-1" d="M66.34 61.74h-19.6a2.22 2.22 0 1 1 0-4.45h19.6a2.22 2.22 0 1 1 0 4.45z"/><path class="cls-2" d="M193.8 66.09h-86.42v4.44h84.2v78H88.64V93.42H84.2v57.36a2.22 2.22 0 0 0 2.22 2.22H193.8a2.23 2.23 0 0 0 2.22-2.22V68.31a2.23 2.23 0 0 0-2.22-2.22z"/><path class="cls-2" d="M137.26 124.13a2.23 2.23 0 0 1-2.14-1.62c-5.41-19.25-1.54-38.44-1.37-39.24a2.22 2.22 0 0 1 4.35.9c0 .19-3.81 19 1.3 37.13a2.22 2.22 0 0 1-2.14 2.83z"/><path class="cls-2" d="M146.43 134a2.22 2.22 0 0 1-.11-4.44c.56 0 13.72-.83 13.72-12a9.54 9.54 0 0 0-5-8.66 15.78 15.78 0 0 0-3.73-1.57C147.53 115.12 140 127.53 130 129c-7.64 1.11-9.84-2.87-10.43-4.64-1.92-5.76 3.31-14.35 11.42-18.76a30.11 30.11 0 0 1 17.73-3.25c.44-1 .8-1.91 1.08-2.67a2.22 2.22 0 0 1 4.17 1.54c-.06.17-.34.92-.84 2.08a19.84 19.84 0 0 1 4.15 1.83 14.07 14.07 0 0 1 7.19 12.48c0 12.33-11.75 16.14-18 16.43h-.11zm-1.29-27.48a25.58 25.58 0 0 0-12 2.93c-7.13 3.88-10.29 10.56-9.32 13.45.68 2 3.78 1.9 5.57 1.64 7.12-1 13.5-10.47 17.33-18-.52.04-1.05.03-1.58.03zM128.87 93c-5.47 0-8.81-.27-9.12-.3a2.22 2.22 0 0 1 .37-4.43A172.8 172.8 0 0 0 159.38 86a2.22 2.22 0 0 1 .76 4.38A186.89 186.89 0 0 1 128.87 93z"/><path class="cls-1" d="M109.63 10.94H2.25a2.2 2.2 0 0 0-1.06.27 2.42 2.42 0 0 0-.51.38A2.27 2.27 0 0 0 0 13.18v82.46a2.23 2.23 0 0 0 2.22 2.23h107.41a2.37 2.37 0 0 0 .87-.17 2.26 2.26 0 0 0 .68-.46 2.21 2.21 0 0 0 .68-1.6V13.18a2.23 2.23 0 0 0-2.23-2.24zm-2.22 82.47H4.48v-78h102.93v78z"/><path class="cls-1" d="M75.08 80.85A2.22 2.22 0 0 1 73 79.49L55.29 37.26 41 78.61a2.22 2.22 0 1 1-4.2-1.46L53 30.31a2.22 2.22 0 0 1 4.15-.13l20 47.59a2.22 2.22 0 0 1-2.07 3.08z"/><path class="cls-1" d="M66.36 61.72H46.77a2.22 2.22 0 1 1 0-4.45h19.6a2.22 2.22 0 0 1-.01 4.45z"/></svg>