<svg id="Layer_1" data-name="Layer 1" xmlns="http://www.w3.org/2000/svg" viewBox="0 0 78.26 56.18"><defs><style>.cls-1{fill:#a2a1a1}</style></defs><title>Icon</title><path class="cls-1" d="M37.72 1.5A3.29 3.29 0 0 1 41 4.79v46.59a3.29 3.29 0 0 1-3.29 3.29H4.32a2.81 2.81 0 0 1-2.25-1.14l-.07-.1a2.7 2.7 0 0 1-.49-1.57V4.33a2.81 2.81 0 0 1 .57-1.71v-.06a2.8 2.8 0 0 1 2.18-1h33.4m0-1.5H4.32A4.3 4.3 0 0 0 1 1.6a4.3 4.3 0 0 0-1 2.73v47.53a4.2 4.2 0 0 0 .76 2.43l.06.09a4.31 4.31 0 0 0 3.49 1.8h33.4a4.79 4.79 0 0 0 4.79-4.79V4.79A4.79 4.79 0 0 0 37.72 0z"/><path class="cls-1" d="M21.36 35.36a.75.75 0 0 1-.75-.75v-4.75a.75.75 0 0 1 0-.25.75.75 0 0 1 0-.3c0-.11.19-2.67 2.16-3.48l.23-.08c-.34-.58-.72-1.12-1.08-1.61a6.54 6.54 0 0 1-1.32-2.44.74.74 0 0 1 0-.12V9a.75.75 0 0 1 1.5 0v12.5a6.65 6.65 0 0 0 1 1.76 20.24 20.24 0 0 1 1.29 2c1-.39 1.45-.75 1.48-1.56 0-1.22-.4-1.65-.66-1.72a.79.79 0 0 1-.61-.74c0-.34.12-8.27 4.36-10.51a.75.75 0 0 1 1.1.67v9.24c-.06 9.71-.06 9.71-.55 9.92a.75.75 0 0 1-.29.06h-3.86a6.7 6.7 0 0 1-3.72 4.69.76.76 0 0 1-.28.05zm.75-4.75v2.64a5.22 5.22 0 0 0 1.71-2.64h-1.71zm3.42-1.5h3c0-2.33.08-10.14.1-16.2-1.78 2-2.35 5.84-2.44 7.82.58.35 1.33 1.15 1.26 3a3.11 3.11 0 0 1-2.34 2.88 7.13 7.13 0 0 1 .41 2.5zm-3.38 0H24a5.68 5.68 0 0 0-.36-2l-.32.12a2.46 2.46 0 0 0-1.17 1.88z"/><path class="cls-1" d="M21.35 35.36a.76.76 0 0 1-.28-.06 6.7 6.7 0 0 1-3.72-4.69h-3.87a.75.75 0 0 1-.29-.06c-.5-.21-.5-.21-.57-9.95 0-4.62-.05-9.24-.05-9.24a.75.75 0 0 1 1.1-.67c4.25 2.24 4.38 10.17 4.38 10.51a.75.75 0 0 1-.64.75c-.24.06-.68.49-.63 1.71 0 .83.5 1.19 1.55 1.59a20.84 20.84 0 0 1 1.18-1.76 5.08 5.08 0 0 0 1.08-1.93V9a.75.75 0 0 1 1.5 0v12.57a5.33 5.33 0 0 1-1.37 2.81c-.32.44-.66.91-1 1.4l.16.07c2 .81 2.16 3.37 2.17 3.48a.75.75 0 0 1 0 .3.75.75 0 0 1 0 .25v4.75a.75.75 0 0 1-.7.73zm-2.45-4.75a5.24 5.24 0 0 0 1.7 2.64v-2.64h-1.7zm-.21-1.5h1.88a2.46 2.46 0 0 0-1.19-1.89l-.29-.11a5.3 5.3 0 0 0-.41 2zm-4.48 0h3a6.78 6.78 0 0 1 .48-2.5 3.13 3.13 0 0 1-2.38-2.89c-.06-1.83.68-2.64 1.26-3-.08-1.44-.49-5.68-2.46-7.83 0 6.11.05 13.9.1 16.22zm14.59-4.69H27a.75.75 0 0 1 0-1.5h1.8a.75.75 0 0 1 0 1.5z"/><path class="cls-1" d="M15.51 24.42h-1.8a.75.75 0 0 1 0-1.5h1.8a.75.75 0 1 1 0 1.5zm38.97 31.76a3.15 3.15 0 0 1-3-2.08L49.29 48a3.15 3.15 0 0 1 1.89-4l20.64-7.47a3.15 3.15 0 0 1 4 1.89l2.23 6.15a3.15 3.15 0 0 1-1.89 4L55.55 56l-.25-.71.25.71a3.12 3.12 0 0 1-1.07.18zm18.41-18.41a1.65 1.65 0 0 0-.56.1l-20.64 7.46a1.65 1.65 0 0 0-1 2.11l2.22 6.15a1.65 1.65 0 0 0 2.11 1l20.64-7.47a1.65 1.65 0 0 0 1-2.11l-2.23-6.15a1.65 1.65 0 0 0-1.54-1.09zM21.18 50.86a2.38 2.38 0 0 1-2.24-1.57L17.77 46a2.38 2.38 0 0 1 1.43-3l11.87-4.3a2.38 2.38 0 0 1 3 1.43l1.18 3.26a2.38 2.38 0 0 1-1.43 3L22 50.71a2.39 2.39 0 0 1-.82.15zM31.87 40a.88.88 0 0 0-.3.05L19.7 44.38a.88.88 0 0 0-.53 1.13l1.18 3.26a.88.88 0 0 0 1.13.53L33.36 45a.88.88 0 0 0 .53-1.13l-1.19-3.26a.88.88 0 0 0-.83-.61z"/><path class="cls-1" d="M22 47a.75.75 0 0 1-.25-1.46l9.08-3.29a.75.75 0 1 1 .51 1.41L22.23 47a.74.74 0 0 1-.23 0zm41.65 2.42a3.25 3.25 0 1 1 3.25-3.25 3.25 3.25 0 0 1-3.25 3.25zm0-5a1.75 1.75 0 1 0 1.75 1.75 1.75 1.75 0 0 0-1.75-1.74z"/></svg>