<svg id="Layer_1" data-name="Layer 1" xmlns="http://www.w3.org/2000/svg" viewBox="0 0 49.72 54.75"><defs><style>.cls-1{fill:#010101}.cls-2{fill:#f2b81b}</style></defs><title>Icon</title><path class="cls-1" d="M49 48.13h-4.5a.75.75 0 0 1 0-1.5H49a.75.75 0 0 1 0 1.5zm-8.78 0h-4.47a.75.75 0 0 1 0-1.5h4.47a.75.75 0 0 1 0 1.5zm-27.51-.01H9.5a.75.75 0 0 1 0-1.5h2.08zM25.3 12a6 6 0 1 1 6-6 6 6 0 0 1-6 6zm0-10.53A4.51 4.51 0 1 0 29.81 6a4.52 4.52 0 0 0-4.51-4.5zM19 37.78h-1.5V36.6a.72.72 0 0 1 .08-.32.73.73 0 0 1 .67-.43.72.72 0 0 1 .67.43.26.26 0 0 1 .05.12.58.58 0 0 1 0 .19v1.18zm7 9.05V54a.73.73 0 0 1-.62.73.29.29 0 0 1-.13 0h-4.62a3.08 3.08 0 0 1-3.15-3v-4.88h1.5v4.89a1.6 1.6 0 0 0 1.65 1.51h3.89v-6.42H26z"/><path class="cls-1" d="M33.11 35.61v16A3.12 3.12 0 0 1 30 54.75h-4.48a.25.25 0 0 1-.12 0 .73.73 0 0 1-.63-.75v-7.14h1.5v6.42H30a1.62 1.62 0 0 0 1.65-1.66v-16a.37.37 0 0 1 0-.11.75.75 0 0 1 1.46.1z"/><path class="cls-1" d="M18.19 37.35a.75.75 0 0 1-.75-.73l-.07-1.09a2.72 2.72 0 0 1-.65-1.53s-.08-10.68-.08-11.43a8.45 8.45 0 0 1 8.5-8.57 8.66 8.66 0 0 1 8.41 6.91c.16 1.37.31 12.31.32 12.78a3.16 3.16 0 0 1-1 2.19.75.75 0 0 1-1.06-1.06 1.68 1.68 0 0 0 .53-1.12c0-3.14-.18-11.53-.3-12.55a7.14 7.14 0 0 0-6.93-5.65 7 7 0 0 0-7 7.07c0 .75.08 11.43.08 11.43a2.17 2.17 0 0 0 .38.67l.19.27a.75.75 0 0 1 .13.4v1.26a.75.75 0 0 1-.73.77z"/><path class="cls-2" d="M26.14 36.28H12.37a2 2 0 0 0-2 2v7.84a2 2 0 0 0 .06.49 2 2 0 0 0 1.67 1.5h14.17a1.62 1.62 0 0 0 .44-.07 2 2 0 0 0 1.44-1.93v-7.82a2 2 0 0 0-2.01-2.01zM12.37 46.64h-.13a.5.5 0 0 1-.37-.49v-7.86a.5.5 0 0 1 .5-.51h13.77a.51.51 0 0 1 .51.51v7.84a.51.51 0 0 1-.38.49h-13.9z"/><path class="cls-2" d="M22.38 37.33a.75.75 0 0 1-.75-.7 2.17 2.17 0 0 0-.88-1.72 1.48 1.48 0 0 0-1.42 0 .75.75 0 1 1-.62-1.37 2.9 2.9 0 0 1 2.81.05 3.64 3.64 0 0 1 1.6 2.91.75.75 0 0 1-.7.8z"/><path class="cls-1" d="M5.22 48.13H.75a.75.75 0 0 1 0-1.5h4.47a.75.75 0 0 1 0 1.5z"/></svg>