<svg id="Layer_1" data-name="Layer 1" xmlns="http://www.w3.org/2000/svg" viewBox="0 0 165.5 153"><defs><style>.cls-1{fill:#f2b81b;}.cls-2{fill:#010101;}</style></defs><title>icon</title><path class="cls-1" d="M162.85,153H2.38a2.38,2.38,0,1,1,0-4.76H162.85A2.38,2.38,0,1,1,162.85,153Z"/><path class="cls-1" d="M150.23,138.29H15a2.38,2.38,0,0,1,0-4.76H150.23A2.38,2.38,0,0,1,150.23,138.29Z"/><path class="cls-2" d="M147.87,43.07H16.79a2.38,2.38,0,0,1-2.38-2.38V32.27a2.38,2.38,0,0,1,1.36-2.15L75.23,1.73a15.86,15.86,0,0,1,13.68,0l60,28.42a2.38,2.38,0,0,1,1.36,2.15v8.41A2.38,2.38,0,0,1,147.87,43.07ZM19.17,38.3H145.49V33.78L86.88,6a11.11,11.11,0,0,0-9.59,0L19.17,33.78V38.3Z"/><path class="cls-2" d="M48.36,111.3H32.15a2.38,2.38,0,0,1-2.38-2.51l3-57.46a2.38,2.38,0,0,1,2.38-2.26h10a2.38,2.38,0,0,1,2.38,2.25l3.13,57.46A2.38,2.38,0,0,1,48.36,111.3Zm-13.7-4.76H45.85L43,53.85H37.44Z"/><path class="cls-2" d="M77,111.3H60.78a2.38,2.38,0,0,1-2.38-2.51l3-57.46a2.38,2.38,0,0,1,2.38-2.26h10a2.38,2.38,0,0,1,2.38,2.25l3.13,57.46A2.38,2.38,0,0,1,77,111.3Zm-13.7-4.76H74.47L71.6,53.85H66.07Z"/><path class="cls-2" d="M105.61,111.3H89.4A2.38,2.38,0,0,1,87,108.79l3-57.46a2.38,2.38,0,0,1,2.38-2.26h10a2.38,2.38,0,0,1,2.38,2.25L108,108.79A2.38,2.38,0,0,1,105.61,111.3Zm-13.7-4.76H103.1l-2.87-52.69H94.69Z"/><path class="cls-2" d="M134.24,111.3H118a2.38,2.38,0,0,1-2.38-2.51l3-57.46a2.38,2.38,0,0,1,2.38-2.26h10a2.38,2.38,0,0,1,2.38,2.25l3.13,57.46A2.38,2.38,0,0,1,134.24,111.3Zm-13.7-4.76h11.18l-2.87-52.69h-5.53Z"/><path class="cls-1" d="M134.8,123.67H30.44a2.38,2.38,0,0,1,0-4.76H134.8A2.38,2.38,0,0,1,134.8,123.67Z"/></svg>