<svg id="Layer_1" data-name="Layer 1" xmlns="http://www.w3.org/2000/svg" viewBox="0 0 27.87 36.83"><defs><style>.cls-1{fill:#231f20}.cls-2{fill:none;stroke:#231f20;stroke-linecap:round;stroke-linejoin:round;stroke-width:1.5px}</style></defs><title>service10-3</title><path class="cls-1" d="M1075 595a1.39 1.39 0 0 1 1.39 1.39v31.05a1.39 1.39 0 0 1-1.39 1.39h-22.15a1.32 1.32 0 0 1-1-.52l-.06-.08a1.26 1.26 0 0 1-.23-.73v-31.16a1.33 1.33 0 0 1 .25-.78v-.06a1.32 1.32 0 0 1 1-.5H1075m0-1.5h-22.15a2.82 2.82 0 0 0-2.19 1 2.82 2.82 0 0 0-.62 1.77v31.23a2.75 2.75 0 0 0 .5 1.59v.06a2.83 2.83 0 0 0 2.29 1.18H1075a2.89 2.89 0 0 0 2.89-2.89v-31.05a2.89 2.89 0 0 0-2.89-2.89z" transform="translate(-1050.01 -593.5)"/><path class="cls-2" d="M1064 615.48a2.68 2.68 0 0 1 1.3-2.17c1.19-.49 2.71-.65 2.77-2.17.06-1.75-1-1.9-1-1.9s0-6 3-7.54c0 0 0 14.21-.1 14.16h-6v3.63a4.61 4.61 0 0 0 2.6-3.91c.22-2.93-2.39-4.77-2.6-6.08v-9.66" transform="translate(-1050.01 -593.5)"/><path class="cls-2" d="M1064 615.48a2.68 2.68 0 0 0-1.3-2.17c-1.19-.49-2.71-.65-2.77-2.17-.06-1.75 1-1.9 1-1.9s-.07-6-3-7.54c0 0 .07 14.21.12 14.16h6v3.63a4.61 4.61 0 0 1-2.6-3.91c-.22-2.93 2.6-4.76 2.6-6.08v-9.66" transform="translate(-1050.01 -593.5)"/><path class="cls-2" d="M19.64 17.62h-1.38m-8.79 0H8.09m-1.9 11.63h15.5"/></svg>