<svg id="Layer_1" data-name="Layer 1" xmlns="http://www.w3.org/2000/svg" viewBox="0 0 41.21 32.73"><defs><style>.cls-1,.cls-2{fill:none;stroke:#fff;stroke-linecap:round;stroke-width:1.5px}.cls-1{stroke-linejoin:round}.cls-2{stroke-miterlimit:10}</style></defs><title>service10</title><path class="cls-1" d="M1215.35 504.08v7a1.24 1.24 0 0 1-.44 1v9.51a1.38 1.38 0 0 1-1.37 1.37h-5.49a1.38 1.38 0 0 1-1.38-1.37c0-2 0-6-.08-9.64a1.23 1.23 0 0 1-.32-.83v-4.31c0-1.09-.06-1.92-.06-2.35a4.6 4.6 0 0 1 9.11-.88 3.48 3.48 0 0 1 .03.5z" transform="translate(-1180.38 -490.93)"/><circle class="cls-2" cx="5.35" cy="3.88" r="3.13"/><path class="cls-2" d="M5.42 31.74v-9.32"/><path class="cls-1" d="M1190.31 504.08v7a1.24 1.24 0 0 1-.44 1v9.51a1.38 1.38 0 0 1-1.37 1.37h-5.49a1.38 1.38 0 0 1-1.38-1.37c0-2 0-6-.08-9.64a1.23 1.23 0 0 1-.32-.83v-4.31c0-1.09-.06-1.92-.06-2.35a4.6 4.6 0 0 1 9.11-.88 3.48 3.48 0 0 1 .03.5z" transform="translate(-1180.38 -490.93)"/><circle class="cls-2" cx="17.89" cy="3.88" r="3.13"/><path class="cls-2" d="M17.96 31.74v-9.32"/><path class="cls-1" d="M1202.85 504.08v7a1.24 1.24 0 0 1-.44 1v9.51a1.38 1.38 0 0 1-1.37 1.37h-5.49a1.38 1.38 0 0 1-1.38-1.37c0-2 0-6-.08-9.64a1.23 1.23 0 0 1-.32-.83v-4.31c0-1.09-.06-1.92-.06-2.35a4.6 4.6 0 0 1 9.11-.88 3.48 3.48 0 0 1 .03.5z" transform="translate(-1180.38 -490.93)"/><circle class="cls-1" cx="30.39" cy="3.88" r="3.13"/><path class="cls-1" d="M30.46 31.74v-9.32"/><path class="cls-2" d="M40.46 31.98V.76"/></svg>