<svg id="Layer_1" data-name="Layer 1" xmlns="http://www.w3.org/2000/svg" viewBox="0 0 39.62 38.82"><defs><style>.cls-1{fill:none;stroke:#fff;stroke-miterlimit:10;}</style></defs><title>service6</title><rect class="cls-1" x="0.5" y="31.81" width="38.62" height="6.5"/><path class="cls-1" d="M867.59,548.61l-15.32-7.26a3.46,3.46,0,0,0-3,0l-15.19,7.25v2.15h33.48v-2.15Z" transform="translate(-831.11 -540.52)"/><polygon class="cls-1" points="10.26 12.55 7.7 12.55 6.92 29.29 11.06 29.29 10.26 12.55"/><polygon class="cls-1" points="17.57 12.55 15.01 12.55 14.23 29.29 18.37 29.29 17.57 12.55"/><polygon class="cls-1" points="24.88 12.55 22.32 12.55 21.54 29.29 25.68 29.29 24.88 12.55"/><polygon class="cls-1" points="32.19 12.55 29.63 12.55 28.85 29.29 32.99 29.29 32.19 12.55"/></svg>