<svg id="Layer_1" data-name="Layer 1" xmlns="http://www.w3.org/2000/svg" viewBox="0 0 62.21 36.84">
    <defs>
        <style>
            .cls-1{fill:#a2a2a2;}.cls-2,.cls-3{fill:none;stroke:#a2a2a2;stroke-linecap:round;stroke-width:1.5px;}.cls-2{stroke-miterlimit:10;}.cls-3{stroke-linejoin:round;}
        </style>
    </defs>
    <title>icons</title>
    <path class="cls-1"
          d="M51.45,1.51a1.32,1.32,0,0,1,1,.5l0,0a1.33,1.33,0,0,1,.26.8V34a1.26,1.26,0,0,1-.23.73l0,0,0,0.06a1.32,1.32,0,0,1-1,.49H27.91V1.51H51.45m0-1.5h-25V36.84h25a2.83,2.83,0,0,0,2.29-1.18l0-.06a2.75,2.75,0,0,0,.5-1.59V2.85a2.82,2.82,0,0,0-.62-1.77l0,0a2.82,2.82,0,0,0-2.19-1h0Z"/>
    <path class="cls-1"
          d="M26.4,1.51V35.34H2.86a1.32,1.32,0,0,1-1-.52l-0.06-.08A1.26,1.26,0,0,1,1.53,34V2.85a1.33,1.33,0,0,1,.25-0.78h0l0-.06a1.32,1.32,0,0,1,1-.5H26.4M27.9,0h-25a2.82,2.82,0,0,0-2.19,1l0,0A2.82,2.82,0,0,0,0,2.85V34a2.75,2.75,0,0,0,.5,1.59l0,0.06a2.83,2.83,0,0,0,2.29,1.18h25V0h0Z"/>
    <circle class="cls-2" cx="40.35" cy="12.52" r="3.13"/>
    <path class="cls-3" d="M44.93,21.79a3.48,3.48,0,0,0-.07-0.57,4.6,4.6,0,0,0-9.1.56A13,13,0,0,0,44.93,21.79Z"/>
    <circle class="cls-3" cx="40.32" cy="16.49" r="10.21"/>
    <line class="cls-2" x1="48.88" y1="22.55" x2="59.69" y2="33.15"/>
    <rect class="cls-1" x="55.21" y="23.3" width="2.48" height="13.57" rx="1.06" ry="1.06"
          transform="translate(-4.74 48.73) rotate(-45)"/>
</svg>