<svg id="Layer_1" data-name="Layer 1" xmlns="http://www.w3.org/2000/svg" viewBox="0 0 49.72 54.75"><defs><style>.cls-1{fill:#a2a1a1;}</style></defs><title>Icon</title><path class="cls-1" d="M49,48.13H44.5a0.75,0.75,0,0,1,0-1.5H49A0.75,0.75,0,0,1,49,48.13Z"/><path class="cls-1" d="M40.22,48.13H35.75a0.75,0.75,0,0,1,0-1.5h4.47A0.75,0.75,0,0,1,40.22,48.13Z"/><path class="cls-1" d="M12.71,48.12H9.5a0.75,0.75,0,0,1,0-1.5h2.08Z"/><path class="cls-1" d="M25.3,12a6,6,0,1,1,6-6A6,6,0,0,1,25.3,12Zm0-10.53A4.51,4.51,0,1,0,29.81,6,4.52,4.52,0,0,0,25.3,1.5Z"/><path class="cls-1" d="M19,37.78h-1.5V36.6a0.72,0.72,0,0,1,.08-0.32,0.73,0.73,0,0,1,.67-0.43,0.72,0.72,0,0,1,.67.43,0.26,0.26,0,0,1,.05.12h0a0.58,0.58,0,0,1,0,.19v1.18Z"/><path class="cls-1" d="M26,46.83V54a0.73,0.73,0,0,1-.62.73,0.29,0.29,0,0,1-.13,0H20.63a3.08,3.08,0,0,1-3.15-3V46.85s1.5,0,1.5,0v4.89a1.6,1.6,0,0,0,1.65,1.51h3.89V46.83H26Z"/><path class="cls-1" d="M33.11,35.61v16A3.12,3.12,0,0,1,30,54.75H25.52a0.25,0.25,0,0,1-.12,0A0.73,0.73,0,0,1,24.77,54V46.86h1.37l0.13,0v6.42H30a1.62,1.62,0,0,0,1.65-1.66v-16a0.37,0.37,0,0,1,0-.11h0A0.75,0.75,0,0,1,33.11,35.61Z"/><path class="cls-1" d="M18.19,37.35a0.75,0.75,0,0,1-.75-0.73l-0.07-1.09A2.72,2.72,0,0,1,16.72,34h0s-0.08-10.68-.08-11.43A8.45,8.45,0,0,1,25.14,14a8.66,8.66,0,0,1,8.41,6.91c0.16,1.37.31,12.31,0.32,12.78a3.16,3.16,0,0,1-1,2.19,0.75,0.75,0,0,1-1.06-1.06,1.68,1.68,0,0,0,.53-1.12c0-3.14-.18-11.53-0.3-12.55a7.14,7.14,0,0,0-6.93-5.65,7,7,0,0,0-7,7.07c0,0.75.08,11.43,0.08,11.43a2.17,2.17,0,0,0,.38.67l0.19,0.27a0.75,0.75,0,0,1,.13.4l0,1.26a0.75,0.75,0,0,1-.73.77h0Z"/><path class="cls-1" d="M26.14,36.28H12.37a2,2,0,0,0-2,2v7.84a2,2,0,0,0,.06.49,2,2,0,0,0,1.67,1.5l0.27,0h13.9a1.62,1.62,0,0,0,.44-0.07,2,2,0,0,0,1.44-1.93V38.29A2,2,0,0,0,26.14,36.28ZM12.37,46.64l-0.13,0a0.5,0.5,0,0,1-.37-0.49V38.29a0.5,0.5,0,0,1,.5-0.51H26.14a0.51,0.51,0,0,1,.51.51v7.84a0.51,0.51,0,0,1-.38.49l-0.13,0H12.37Z"/><path class="cls-1" d="M22.38,37.33a0.75,0.75,0,0,1-.75-0.7,2.17,2.17,0,0,0-.88-1.72,1.48,1.48,0,0,0-1.42,0,0.75,0.75,0,1,1-.62-1.37,2.9,2.9,0,0,1,2.81.05,3.64,3.64,0,0,1,1.6,2.91,0.75,0.75,0,0,1-.7.8h0Z"/><path class="cls-1" d="M5.22,48.13H0.75a0.75,0.75,0,0,1,0-1.5H5.22A0.75,0.75,0,0,1,5.22,48.13Z"/></svg>