<?xml version="1.0" encoding="utf-8"?>
<!-- Generator: Adobe Illustrator 19.2.0, SVG Export Plug-In . SVG Version: 6.00 Build 0)  -->
<svg version="1.1" id="Layer_1" xmlns="http://www.w3.org/2000/svg" xmlns:xlink="http://www.w3.org/1999/xlink" x="0px" y="0px"
	 viewBox="0 0 64.9 109" style="enable-background:new 0 0 64.9 109;" xml:space="preserve">
<style type="text/css">
	.st0{fill:#FFFFFF;}
</style>
<title>Trizub</title>
<path class="st0" d="M64.8,7.9c-8.7,4.9-12.9,10.2-15.3,17.3c-1.5,4.6-2.5,9.3-2.9,14.1c-1.7,15.9-1.9,18-1.9,18
	c1.8-0.2,3.6,0.4,5,1.5c1.1,1.1,1.7,2.6,1.7,4.2c0,2-1.2,3.8-3,4.7c-1.3,0.6-2.8,0.9-4.2,0.9c-1.2-1.8-8.6-14-8.7-27.5
	c-0.1-11.8,0.4-13.2,0.5-21c0.1-5.6,1.6-12.8-2.8-18.9C32.7,0.4,32.6,0,32.4,0c-0.4,0.3-0.7,0.7-0.9,1.1c-4.4,6.1-2.9,13.3-2.8,19
	c0.2,7.7,0.6,9.2,0.5,21c-0.1,13.6-7.5,25.7-8.7,27.5c-1.4,0-2.9-0.3-4.2-0.9c-1.8-0.9-2.9-2.7-3-4.7c-0.1-1.6,0.5-3.1,1.7-4.2
	c1.4-1.1,3.2-1.7,5-1.5c0,0-0.1-2.1-1.9-18c-0.4-4.8-1.4-9.5-2.9-14.1C13,18.1,8.7,12.8,0,7.9V87l0,0l0,0l18.1,0.1
	c0.7,3.3,1.9,6.5,3.6,9.5l0.4,0.8c1.9,3,4.3,5.7,7,8c1.2,1,2.3,2.2,3.2,3.6c0-0.1,0.1-0.1,0.2,0c0,0,0,0,0,0c0.9-1.3,2-2.5,3.2-3.6
	c2.7-2.3,5.1-5,7-8c0.2-0.3,0.3-0.5,0.4-0.8c1.6-3,2.8-6.2,3.6-9.5L64.8,87l0,0l0,0v-4.5L64.8,7.9z M5.3,19.3
	c0-0.7,5.9,6.4,6.7,13.6l2.3,19.9c-2.9,1.4-5,4-5.8,7.1H5.3V19.3z M17.7,81.5H5.4L5.3,65.5h3.2c2.3,7.8,10.1,8.2,10.1,8.2
	C18,76.2,17.7,78.9,17.7,81.5z M24.1,74.9c3.3,0.6,5.6,3.4,5.6,6.7H23C22.9,79.3,23.3,77,24.1,74.9z M29.9,98.6
	c-3.2-3.1-5.3-7.2-6.1-11.6h6.1V98.6z M32.4,74.3c-1.9-2.4-6.1-4.4-6.1-4.4c2.6-5.6,3.9-6.7,6.2-15.3c2.5,8.5,4.2,10.4,6.2,15.2
	C38.5,69.9,34.1,72.1,32.4,74.3z M35.2,98.6V87h6C40.2,93.3,35.2,98.6,35.2,98.6z M35,81.6c0,0,0-5.7,5.6-6.7
	c0.9,2.1,1.3,4.4,1.2,6.7H35z M47.2,81.6c0-2.6-0.4-5.3-1-7.8c0,0,8-0.6,10.3-8.3h2.8v16.2L47.2,81.6z M56.2,59.9
	c-0.5-2.1-1.6-3.9-3.2-5.3c-0.8-0.7-1.6-1.3-2.5-1.8l2.2-20.1c0.7-6.4,6.1-13.5,6.5-13.3l0.2,40.5L56.2,59.9z"/>
</svg>
