<svg id="Layer_1" xmlns="http://www.w3.org/2000/svg" viewBox="0 0 44.6 31.1"><style>.st0,.st1{fill:none;stroke:#000;stroke-width:1.5;stroke-linecap:round;stroke-miterlimit:10}.st1{stroke:#f3b81a}</style><title>icons</title><path d="M41.7 1.5c.3 0 .6.1.8.2.4.3.6.8.6 1.3v25.2c0 .4-.2.8-.5 1.1-.3.2-.6.3-.9.3H2.9c-.3 0-.6-.2-.9-.4-.3-.3-.5-.7-.5-1.1V3c0-.4.2-.9.5-1.2.3-.2.6-.3 1-.3h38.7m0-1.5H3c-.7 0-1.3.2-1.9.7C.4 1.2 0 2.1 0 3v25.2c0 .8.4 1.7 1 2.2.5.4 1.1.7 1.8.7h38.8c1.7 0 3-1.3 3-3V3c0-1-.5-1.9-1.3-2.4h-.1c-.4-.4-1-.6-1.5-.6z"/><path class="st0" d="M16.2 15.6L1.4 29.8m41.8 0l-15-14.2m-12-.1L1.4 1.4m41.8-.1l-15 14.1"/><path class="st1" d="M28.1 15.6l-3.4 3.2c-1.4 1.2-3.5 1.2-5 0l-3.3-3.2"/></svg>