<svg id="Layer_1" xmlns="http://www.w3.org/2000/svg" viewBox="0 0 227.7 141.2"><style>.st0{fill:#010101}.st1{fill:#f2b81b}.st2{fill:#afb0b3}.st3{fill:#fff}.st4,.st5{fill:none;stroke:#010101;stroke-width:5;stroke-miterlimit:10}.st5{stroke:#f2b81b}</style><path class="st2" d="M133.6 141.3H.4v-26.6h133.2v26.6zm-128.2-5h123.2v-16.6H5.4v16.6zm119.4-88.2H8.7V36.9l51.8-24.7c3.8-1.8 8.2-1.8 12 0L124.8 37v11.1zm-111.1-5h106.1v-3L70.4 16.6c-2.5-1.2-5.3-1.2-7.7 0L13.7 40v3.1zm26.9 65.4h-19l2.8-55.8h13.3l2.9 55.8zm-13.8-5h8.5l-2.4-45.8h-3.7l-2.4 45.8zm38 5h-19l2.8-55.8h13.3l2.9 55.8zm-13.7-5h8.5l-2.4-45.8h-3.7l-2.4 45.8zm38 5h-19l2.8-55.8h13.3l2.9 55.8zm-13.7-5h8.5l-2.4-45.8h-3.7l-2.4 45.8zm38 5h-19l2.8-55.8h13.3l2.9 55.8zm-13.8-5h8.5l-2.4-45.8H102l-2.4 45.8z"/><path class="st2" d="M227.1 106.5l-55.6-31.3c-.6-.3-1.4-.1-1.7.5l-.9 1.5-11.5-6.5c5.3-10.9 6.5-23.1 3.2-34.9-3.5-12.6-11.8-23.1-23.2-29.5-11.4-6.4-24.7-8-37.3-4.5C87.5 5.4 77 13.6 70.5 25c-6.4 11.4-8 24.7-4.5 37.3C69.6 75 77.9 85.4 89.3 91.8c7.4 4.2 15.6 6.3 24 6.3 4.5 0 8.9-.6 13.3-1.8 11.9-3.3 21.9-10.8 28.4-21.2l11.5 6.4-.9 1.7c-.3.6-.1 1.4.5 1.7l55.7 31.3c.6.4 1.4.1 1.7-.5l4.3-7.6c.1-.5-.1-1.3-.7-1.6zm-101.9-15c-11.3 3.2-23.2 1.8-33.5-4C81.5 81.7 74.1 72.3 70.9 61s-1.8-23.2 4-33.5S90.1 9.8 101.4 6.7c4-1.1 8-1.7 12-1.7 7.5 0 14.8 1.9 21.5 5.7 10.3 5.8 17.7 15.2 20.8 26.5 1.1 4 1.7 8 1.7 12 0 7.5-1.9 14.8-5.7 21.5-5.7 10.2-15.2 17.6-26.5 20.8z"/></svg>