<svg id="Layer_1" data-name="Layer 1" xmlns="http://www.w3.org/2000/svg" viewBox="0 0 132 153"><defs><style>.cls-1{fill:#afb0b3;}</style></defs><title>icon</title><path class="cls-1" d="M112.49,153H2.36A2.36,2.36,0,0,1,0,150.64V2.75A2.36,2.36,0,0,1,2.36.39H112.49a2.36,2.36,0,0,1,2.36,2.36v147.9A2.36,2.36,0,0,1,112.49,153ZM4.72,148.28H110.13V5.1H4.72V148.28Z"/><path class="cls-1" d="M91.2,115.82H21.93a2.36,2.36,0,1,1,0-4.72H91.2A2.36,2.36,0,1,1,91.2,115.82Z"/><path class="cls-1" d="M91.2,95.62H21.93a2.36,2.36,0,0,1,0-4.72H91.2A2.36,2.36,0,0,1,91.2,95.62Z"/><path class="cls-1" d="M128,132.22a2.67,2.67,0,0,1-1.9-.79L72.94,78.31a2.68,2.68,0,1,1,3.79-3.79l53.12,53.12A2.68,2.68,0,0,1,128,132.22Z"/><path class="cls-1" d="M76,132.22a2.68,2.68,0,0,1-1.9-4.58l53.12-53.12a2.68,2.68,0,0,1,3.79,3.79L77.93,131.43A2.67,2.67,0,0,1,76,132.22Z"/><path class="cls-1" d="M41.36,51.16A14.22,14.22,0,1,1,55.57,36.95,14.23,14.23,0,0,1,41.36,51.16Zm0-23.72a9.5,9.5,0,1,0,9.5,9.5A9.51,9.51,0,0,0,41.36,27.45Z"/><path class="cls-1" d="M60.73,71.21H22a2.36,2.36,0,0,1-2.36-2.37V68.47a21.73,21.73,0,0,1,43.46.08,2.68,2.68,0,0,1-.68,1.82A2.5,2.5,0,0,1,60.73,71.21ZM24.5,66.49h33.7A17,17,0,0,0,24.5,66.49Z"/></svg>