<svg id="Layer_1" data-name="Layer 1" xmlns="http://www.w3.org/2000/svg" viewBox="0 0 67.29 59.17"><defs><style>.cls-1{fill:#f2b81b;}.cls-2{fill:#010101;}</style></defs><title>Icon</title><path class="cls-1" d="M67.19,16.45c-0.38-1.67-2.25-2.13-4.63-2.71a30.65,30.65,0,0,1-4.51-1.38c-2.74-1.15-3.61-1-4.81-.68a7.33,7.33,0,0,1-2.5.3c-1.93-.06-2-0.77-2.18-1.76A2.51,2.51,0,0,0,48,8.78a3.06,3.06,0,0,0-3.05-1,1.29,1.29,0,0,1-1.19-.16c-0.52-.48-0.48-0.56-0.21-1.22A5.64,5.64,0,0,0,44,5.05c0.23-1.83-.65-4.18-2.34-4.76-2.38-.81-4.89.24-6.9,1.08a9.57,9.57,0,0,1-2.31.78c-2.17.17-2.36,1.71-2.49,2.74a2.83,2.83,0,0,1-.41,1.43C29,7.06,24.45,5.75,21,3.87c-1.88-1-9.07-3.6-11.3-1.79C8.2,3.32,7.86,5.5,8.85,7.62c0.53,1.14-1.55,3-2.55,3.91L6,11.78c-0.19.18-.42,0.37-0.66,0.57-1.29,1.07-3.06,2.54-2.75,4.8a3.26,3.26,0,0,1-1,1.85C0.75,20-.19,21.15,0,22.62c0.28,1.83,2.68,2.89,4.65,3.46,1.41,0.4,3.25.8,5.79,1.36L11,27.56c3.25,0.71,4.38-.37,5.49-1.41a6.15,6.15,0,0,1,1.76-1.3c1.4-.64,1.58-0.5,2.57.31a15.37,15.37,0,0,0,1.88,1.33c1.37,0.82,1.62,2.38,1.86,3.88a6.32,6.32,0,0,0,.85,2.71L26,33.78a15.1,15.1,0,0,1,1.28,1.81A5.5,5.5,0,0,1,26.49,35a3,3,0,0,0-3.13-.69,2,2,0,0,0-1.28,1.89,4.19,4.19,0,0,1-1.44,2.72,4.69,4.69,0,0,0-1.41,2.36,1.86,1.86,0,0,0,.62,1.85c1.33,1.08,4.17.31,6.32-.53,2.6-1,4-3.36,5-5.08a15.47,15.47,0,0,1,1-1.48l0.2-.23a1.45,1.45,0,0,1,1.23-.45,0.81,0.81,0,0,1,.6.47l0.14,0.32a4.25,4.25,0,0,0,.9,1.36,4.06,4.06,0,0,0,3.68,1.16l0.36-.07c0.33-.07.79-0.16,1-0.19a11.37,11.37,0,0,1-1.87.66c-1.46.43-2.73,0.8-2.67,1.87a1.32,1.32,0,0,0,.89,1.19,2.45,2.45,0,0,0,.5.17,2.37,2.37,0,0,1,1.64,1.39,11.22,11.22,0,0,1,1.64.27c0-.06,0-0.12,0-0.18a3.71,3.71,0,0,0-.68-1.48,3.87,3.87,0,0,0-2-1.41c0.36-.14.83-0.28,1.2-0.38,1.58-.47,3.38-1,3.08-2.42A1.29,1.29,0,0,0,41,37a4.57,4.57,0,0,0-2,.12l-0.35.07a2.56,2.56,0,0,1-2.57-1,7.18,7.18,0,0,1-3.81-2.06,3,3,0,0,0-.93.64A2.43,2.43,0,0,0,31,35a12.21,12.21,0,0,0-1.13,1.72c-1,1.62-2.17,3.63-4.28,4.45-3.08,1.2-4.49,1-4.84.77a0.4,0.4,0,0,1-.08-0.44,3.59,3.59,0,0,1,1-1.6,5.6,5.6,0,0,0,1.82-3.67,0.59,0.59,0,0,1,.36-0.57,1.58,1.58,0,0,1,1.54.41c0.56,0.52,2,1.67,2.84,1,1.28-1,0-2.71-1.15-4.19l-0.52-.68a5.33,5.33,0,0,1-.56-2c-0.27-1.68-.61-3.77-2.59-4.94A13,13,0,0,1,21.8,24c-1.21-1-2-1.48-4.15-.5a7.9,7.9,0,0,0-2.17,1.57c-1,1-1.66,1.58-4.13,1L10.79,26c-2.52-.55-4.34-1-5.69-1.34C3,24,1.63,23.16,1.51,22.39S2,20.79,2.73,20s1.52-1.86,1.36-3c-0.19-1.43,1.09-2.5,2.23-3.44,0.26-.21.5-0.42,0.72-0.61l0.26-.24C8.77,11.33,11.21,9.13,10.21,7c-0.7-1.5-.52-2.93.46-3.73,1.22-1,7.06.53,9.63,1.94,0.09,0,8.51,4.56,10.44,2a4.22,4.22,0,0,0,.71-2.17c0.13-1.07.2-1.35,1.11-1.42a9.8,9.8,0,0,0,2.77-.9c1.79-.74,4-1.67,5.84-1C42,2,42.67,3.56,42.51,4.85a3.81,3.81,0,0,1-.31,1,2.18,2.18,0,0,0,.59,2.9,2.72,2.72,0,0,0,2.38.54,1.65,1.65,0,0,1,1.76.48,2,2,0,0,1,.15.64c0.15,1,.43,3,3.61,3a8.64,8.64,0,0,0,3-.35c0.89-.25,1.43-0.4,3.83.61A31.2,31.2,0,0,0,62.2,15.2c1.88,0.46,3.35.82,3.53,1.59,0.26,1.13-.36,5.7-1.49,7.42a1,1,0,0,1-.4.43c-3.38.33-4.15,3.07-4.56,4.54-0.07.22-.12,0.43-0.19,0.61S58.36,31,53.71,32.53l-0.6.19c-2.45.76-7.57,2.34-7.93,5.21a2.72,2.72,0,0,0,.9,2.52,3.81,3.81,0,0,0,3.56.53c1.42-.44,3.24-0.77,3.8.13A2.72,2.72,0,0,1,52.8,43a0.86,0.86,0,0,1-.89.37,5.23,5.23,0,0,0-4.26.82,11.21,11.21,0,0,0-1.22,1.07l-1.06,1.06a11.94,11.94,0,0,1,1.15,1c0.36-.36.73-0.73,1.06-1a11,11,0,0,1,.86-0.77,3.7,3.7,0,0,1,3.17-.63,2.49,2.49,0,0,0,2.56-1.15c0.66-1,1.05-2.5.57-3.3C53.87,39,52,38.67,49.19,39.55a2.37,2.37,0,0,1-2.14-.25,1.26,1.26,0,0,1-.39-1.19c0.25-1.9,5.25-3.45,6.9-4l0.62-.2c4-1.29,5.91-2.43,6.33-3.68,0.07-.2.14-0.43,0.21-0.68,0.4-1.44.91-3.23,3.27-3.46a2,2,0,0,0,1.4-.94C66.79,23.24,67.57,18.11,67.19,16.45Z"/><path class="cls-2" d="M37.39,20.39A8.69,8.69,0,0,0,31,35a8.45,8.45,0,0,0,4.18,2.48A8.59,8.59,0,0,0,41,37,8.69,8.69,0,0,0,37.39,20.39Zm0,15.9A6.72,6.72,0,0,1,36,36.16,7.2,7.2,0,1,1,37.39,36.29Z"/><path class="cls-2" d="M51.86,54a14.51,14.51,0,0,0-4.28-7.79,10.81,10.81,0,0,0-1.15-1,10.1,10.1,0,0,0-.84-0.62,14.47,14.47,0,0,0-5.88-2.31,13.61,13.61,0,0,0-3.06-.17,14.08,14.08,0,0,0-2.13.26A14.79,14.79,0,0,0,22.67,55.8a0.73,0.73,0,0,0,.48.75,40.36,40.36,0,0,0,28.45,0,0.76,0.76,0,0,0,.49-0.74A10.52,10.52,0,0,0,51.86,54ZM24.22,55.35A13.26,13.26,0,0,1,38.79,43.69a11.22,11.22,0,0,1,1.64.27,13.14,13.14,0,0,1,4.33,1.89c0.21,0.14.41,0.28,0.61,0.44a11.94,11.94,0,0,1,1.15,1,13.21,13.21,0,0,1,3.87,7,7.66,7.66,0,0,1,.16,1.07A38.73,38.73,0,0,1,24.22,55.35Z"/></svg>