<svg id="Layer_1" data-name="Layer 1" xmlns="http://www.w3.org/2000/svg" viewBox="0 0 62.21 36.84"><defs><style>.cls-1,.cls-2,.cls-3,.cls-4{fill:none;stroke-linecap:round;stroke-width:1.5px}.cls-1,.cls-2{stroke:#000}.cls-1,.cls-4,.cls-5{stroke-miterlimit:10}.cls-2,.cls-3{stroke-linejoin:round}.cls-3,.cls-4,.cls-5{stroke:#f3b81a}.cls-5{fill:#f3b81a}</style></defs><title>icons</title><path d="M51.45 1.51a1.32 1.32 0 0 1 1 .5 1.33 1.33 0 0 1 .26.8V34a1.26 1.26 0 0 1-.23.73v.06a1.32 1.32 0 0 1-1 .49H27.91V1.51h23.54m0-1.5h-25v36.83h25a2.83 2.83 0 0 0 2.29-1.18v-.06a2.75 2.75 0 0 0 .5-1.59V2.85a2.82 2.82 0 0 0-.62-1.77 2.82 2.82 0 0 0-2.19-1z"/><path d="M26.4 1.51v33.83H2.86a1.32 1.32 0 0 1-1-.52l-.06-.08a1.26 1.26 0 0 1-.27-.74V2.85a1.33 1.33 0 0 1 .25-.78v-.06a1.32 1.32 0 0 1 1-.5H26.4M27.9 0h-25A2.82 2.82 0 0 0 .71 1 2.82 2.82 0 0 0 0 2.85V34a2.75 2.75 0 0 0 .5 1.59v.06a2.83 2.83 0 0 0 2.29 1.18h25V0z"/><circle class="cls-1" cx="40.35" cy="12.52" r="3.13"/><path class="cls-2" d="M44.93 21.79a3.48 3.48 0 0 0-.07-.57 4.6 4.6 0 0 0-9.1.56 13 13 0 0 0 9.17.01z"/><circle class="cls-3" cx="40.32" cy="16.49" r="10.21"/><path class="cls-4" d="M48.88 22.55l10.81 10.6"/><rect class="cls-5" x="55.21" y="23.3" width="2.48" height="13.57" rx="1.06" ry="1.06" transform="rotate(-45 56.452 30.087)"/></svg>