<svg id="Layer_1" data-name="Layer 1" xmlns="http://www.w3.org/2000/svg" viewBox="0 0 42.63 29.76"><defs><style>.cls-1{fill:#fff}.cls-2,.cls-3{fill:none;stroke:#fff;stroke-linecap:round;stroke-width:1.5px}.cls-2{stroke-miterlimit:10}.cls-3{stroke-linejoin:round}</style></defs><title>service10-4w</title><path class="cls-1" d="M1152.53 600.95a1.26 1.26 0 0 1 .73.23h.06a1.32 1.32 0 0 1 .49 1v24.1a1.33 1.33 0 0 1-.48 1 1.37 1.37 0 0 1-.85.31h-37a1.39 1.39 0 0 1-.8-.34 1.32 1.32 0 0 1-.45-1v-24.1a1.32 1.32 0 0 1 .5-1 1.33 1.33 0 0 1 .8-.26h37m0-1.5h-37a2.82 2.82 0 0 0-1.77.62 2.82 2.82 0 0 0-1 2.19v24.1a2.81 2.81 0 0 0 1 2.12 2.89 2.89 0 0 0 1.73.71h37.1a2.83 2.83 0 0 0 2.83-2.83v-24.1a2.83 2.83 0 0 0-1.18-2.29h-.06a2.75 2.75 0 0 0-1.59-.5z" transform="translate(-1112.73 -599.45)"/><circle class="cls-2" cx="11.84" cy="9.82" r="3.72"/><path class="cls-3" d="M1130 620.29a4.14 4.14 0 0 0-.08-.67 5.47 5.47 0 0 0-10.82.67 15.51 15.51 0 0 0 10.9 0z" transform="translate(-1112.73 -599.45)"/><path class="cls-3" d="M21.6 12.35H36m-14.4 4.71h8.64"/></svg>