<svg id="Layer_1" data-name="Layer 1" xmlns="http://www.w3.org/2000/svg" viewBox="0 0 27.87 36.83"><defs><style>.cls-1,.cls-3{fill:#fff}.cls-2{fill:none;stroke-linecap:round;stroke-linejoin:round;stroke-width:1.5px;stroke:#fff}.cls-3{stroke:#fff;stroke-miterlimit:10}</style></defs><title>service10-4w</title><path class="cls-1" d="M1230 952a1.39 1.39 0 0 1 1.39 1.39v31.05a1.39 1.39 0 0 1-1.39 1.39h-22.15a1.32 1.32 0 0 1-1-.52l-.06-.08a1.26 1.26 0 0 1-.23-.73v-31.12a1.33 1.33 0 0 1 .25-.78v-.06a1.32 1.32 0 0 1 1-.5H1230m0-1.5h-22.15a2.82 2.82 0 0 0-2.19 1 2.82 2.82 0 0 0-.62 1.77v31.16a2.75 2.75 0 0 0 .5 1.59v.06a2.83 2.83 0 0 0 2.29 1.18H1230a2.89 2.89 0 0 0 2.89-2.89v-30.98a2.89 2.89 0 0 0-2.89-2.89z" transform="translate(-1205.01 -950.54)"/><path class="cls-2" d="M6.19 27.25h15.5"/><path class="cls-2" d="M1226.77 959.74v3.39h-5.52a2.54 2.54 0 0 0-4.58 0h-5.52v-3.39h15.62zm0 5.7v3.39h-15.62v-3.39h5.57a2.52 2.52 0 0 0 2.24 1.35 2.54 2.54 0 0 0 2.25-1.35h5.56z" transform="translate(-1205.01 -950.54)"/><circle class="cls-3" cx="13.91" cy="13.68" r="1.1"/></svg>