<svg id="Layer_1" data-name="Layer 1" xmlns="http://www.w3.org/2000/svg" viewBox="0 0 234.5 121.5"><defs><style>.cls-1{fill:#010101;}.cls-2{fill:#f2b81b;}</style></defs><title>icon</title><path class="cls-1" d="M124.87,43.64H112.5l0-16.63h16.84a3.26,3.26,0,0,0,0-6.51H110.13a3.14,3.14,0,0,0-1.45.34A3.24,3.24,0,0,0,106,24.07l0.09,49.35a4.9,4.9,0,0,0,4.08,3.76s7.15,0.24,14.74.24A16.89,16.89,0,0,0,124.87,43.64Zm0,27.26c-4.91,0-9.64-.11-12.31-0.18l0-20.57h12.36A10.38,10.38,0,1,1,124.87,70.91Z"/><path class="cls-1" d="M45.75,74.17l-22-53a3.47,3.47,0,0,0-3.12-2,3.27,3.27,0,0,0-3,2.23L0.17,73.56a3.25,3.25,0,1,0,6.17,2.08l6-17.91H31.87l7.87,18.94a3.25,3.25,0,0,0,3,2A3.29,3.29,0,0,0,44,78.43,3.25,3.25,0,0,0,45.75,74.17Zm-31.24-23L21.05,31.7l8.11,19.51H14.52Z"/><path class="cls-1" d="M112.49,43.63h-2.68a0.05,0.05,0,0,1,0,0Z"/><path class="cls-1" d="M112.5,50c1.92,0.06,4.62.11,7.57,0.13H112.5V50Z"/><path class="cls-1" d="M123.46,43.64q-0.46,0-.92,0c-3.26,0-6.44,0-8.8,0h9.72Z"/><path class="cls-1" d="M112.49,43.63h-2.68a0.05,0.05,0,0,1,0,0Z"/><path class="cls-1" d="M122.92,50.15h0Z"/><path class="cls-1" d="M231.19,77.42h-5.27c-14.44,0-27.33-10.35-29.17-24.67a28.45,28.45,0,0,1,28.18-32.16l6.35,0a3.25,3.25,0,0,1,3.24,3.28h0a3.26,3.26,0,0,1-3.27,3.23l-6.33,0a21.93,21.93,0,0,0-21.8,24.09c1.11,11.38,11.34,19.72,22.77,19.72h5.29A3.26,3.26,0,1,1,231.19,77.42Z"/><path class="cls-2" d="M166.4,31.64A48.81,48.81,0,1,0,79.09,74.52l-7.34,4.83-1.21-1.87a1.26,1.26,0,0,0-1.74-.38L15.08,111.62a1.27,1.27,0,0,0-.38,1.74l4.7,7.3a1.26,1.26,0,0,0,1.74.38L74.85,86.52a1.28,1.28,0,0,0,.38-1.74L73.7,82.4l7.35-4.84A48.82,48.82,0,0,0,166.4,31.64Zm-5.76,35.17a43.4,43.4,0,1,1,.69-33.19A43.13,43.13,0,0,1,160.64,66.82Z"/></svg>