<svg id="Layer_1" data-name="Layer 1" xmlns="http://www.w3.org/2000/svg" viewBox="0 0 55.7 32.98"><defs><style>.cls-1{fill:none;stroke:#fff;stroke-miterlimit:10;}.cls-2{fill:#fff;}</style></defs><title>service7</title><circle class="cls-1" cx="36.1" cy="11.21" r="2.8"/><path class="cls-1" d="M1048.32,537.36a3.11,3.11,0,0,0-.06-0.51,4.12,4.12,0,0,0-8.15.5A11.68,11.68,0,0,0,1048.32,537.36Z" transform="translate(-1008.11 -517.85)"/><path class="cls-2" d="M1054.15,518.85a1.52,1.52,0,0,1,1.18.57l0,0a1.53,1.53,0,0,1,.31.93v27.9a1.47,1.47,0,0,1-.27.85l0,0,0,0h0a1.53,1.53,0,0,1-1.2.59h-21.42v-31h21.42m0-1h-22.42v33h22.42a2.53,2.53,0,0,0,2.05-1.06l0-.05a2.47,2.47,0,0,0,.45-1.42v-27.9a2.53,2.53,0,0,0-.56-1.58l0,0a2.53,2.53,0,0,0-2-.94h0Z" transform="translate(-1008.11 -517.85)"/><path class="cls-2" d="M1032.07,518.85v31h-21.42a1.53,1.53,0,0,1-1.22-.62h0l0-.06a1.47,1.47,0,0,1-.27-0.85v-27.9a1.53,1.53,0,0,1,.31-0.92h0l0,0a1.52,1.52,0,0,1,1.18-.57h21.42m1-1h-22.42a2.53,2.53,0,0,0-2,.94l0,0a2.53,2.53,0,0,0-.56,1.58v27.9a2.47,2.47,0,0,0,.45,1.42l0,0.05a2.53,2.53,0,0,0,2.05,1.06h22.42v-33h0Z" transform="translate(-1008.11 -517.85)"/><circle class="cls-1" cx="36.08" cy="14.76" r="9.14"/><line class="cls-1" x1="43.75" y1="20.19" x2="53.42" y2="29.68"/><rect class="cls-1" x="1057.16" y="537.84" width="2.22" height="13.17" rx="0.96" ry="0.96" transform="translate(-1083.11 389.92) rotate(-45)"/></svg>