<svg id="Layer_1" data-name="Layer 1" xmlns="http://www.w3.org/2000/svg" viewBox="0 0 132 153"><defs><style>.cls-1{fill:#afb0b3}</style></defs><title>icon</title><path class="cls-1" d="M112.49 153H2.36A2.36 2.36 0 0 1 0 150.64V2.75A2.36 2.36 0 0 1 2.36.39h110.13a2.36 2.36 0 0 1 2.36 2.36v147.9a2.36 2.36 0 0 1-2.36 2.35zM4.72 148.28h105.41V5.1H4.72v143.18z"/><path class="cls-1" d="M91.2 115.82H21.93a2.36 2.36 0 1 1 0-4.72H91.2a2.36 2.36 0 1 1 0 4.72zm0-20.2H21.93a2.36 2.36 0 0 1 0-4.72H91.2a2.36 2.36 0 0 1 0 4.72z"/><path class="cls-1" d="M128 132.22a2.67 2.67 0 0 1-1.9-.79L72.94 78.31a2.68 2.68 0 1 1 3.79-3.79l53.12 53.12a2.68 2.68 0 0 1-1.85 4.58z"/><path class="cls-1" d="M76 132.22a2.68 2.68 0 0 1-1.9-4.58l53.12-53.12a2.68 2.68 0 0 1 3.79 3.79l-53.08 53.12a2.67 2.67 0 0 1-1.93.79zM41.36 51.16a14.22 14.22 0 1 1 14.21-14.21 14.23 14.23 0 0 1-14.21 14.21zm0-23.72a9.5 9.5 0 1 0 9.5 9.5 9.51 9.51 0 0 0-9.5-9.49z"/><path class="cls-1" d="M60.73 71.21H22a2.36 2.36 0 0 1-2.36-2.37v-.37a21.73 21.73 0 0 1 43.46.08 2.68 2.68 0 0 1-.68 1.82 2.5 2.5 0 0 1-1.69.84zM24.5 66.49h33.7a17 17 0 0 0-33.7 0z"/></svg>