<svg id="Layer_1" data-name="Layer 1" xmlns="http://www.w3.org/2000/svg" viewBox="0 0 56.06 29.89"><defs><style>.cls-1{fill:none;}.cls-1,.cls-2,.cls-3,.cls-4{stroke:#fff;}.cls-1,.cls-2,.cls-4{stroke-linecap:round;stroke-width:1.5px;}.cls-1,.cls-4{stroke-linejoin:round;}.cls-2,.cls-3,.cls-4{fill:#fff;}.cls-2,.cls-3{stroke-miterlimit:10;}</style></defs><title>service5</title><circle class="cls-1" cx="876.19" cy="706.14" r="10.62" transform="translate(-843.07 723.26) rotate(-78.11)"/><line class="cls-2" x1="20.44" y1="18.78" x2="7.35" y2="27.51"/><rect class="cls-3" x="858.1" y="711.67" width="2.58" height="15.29" rx="1.06" ry="1.06" transform="translate(144.74 -1088.23) rotate(56.89)"/><path class="cls-3" d="M873.41,712.55a0.75,0.75,0,0,1-.75-0.75l0-11.37a0.75,0.75,0,0,1,.75-0.75h0a0.75,0.75,0,0,1,.75.75l0,11.37a0.75,0.75,0,0,1-.75.75h0Z" transform="translate(-847.74 -694.77)"/><path class="cls-3" d="M878,701.12H873.6a0.75,0.75,0,0,1,0-1.5H878A0.75,0.75,0,0,1,878,701.12Z" transform="translate(-847.74 -694.77)"/><path class="cls-4" d="M873.33,705.76" transform="translate(-847.74 -694.77)"/><path class="cls-3" d="M877,712.73c-1.75,0-3.4-.06-3.4-0.06a0.75,0.75,0,0,1,0-1.5h0s1.63,0.06,3.34.06a2.39,2.39,0,1,0,0-4.78h-3.47a0.75,0.75,0,0,1,0-1.5H877A3.89,3.89,0,1,1,877,712.73Z" transform="translate(-847.74 -694.77)"/><path class="cls-3" d="M902.53,712.73h-1.21A6.7,6.7,0,0,1,894.6,707a6.55,6.55,0,0,1,6.49-7.41h1.46a0.75,0.75,0,0,1,.75.76h0a0.75,0.75,0,0,1-.75.74h-1.46a5.05,5.05,0,0,0-5,5.55,5.2,5.2,0,0,0,5.24,4.54h1.22A0.75,0.75,0,0,1,902.53,712.73Z" transform="translate(-847.74 -694.77)"/><path class="cls-3" d="M858.08,713a0.75,0.75,0,0,1-.69-0.46l-4.31-10.36-3.39,10.12a0.75,0.75,0,1,1-1.42-.48l4-12a0.75,0.75,0,0,1,.68-0.51,0.8,0.8,0,0,1,.72.46l5.07,12.2A0.75,0.75,0,0,1,858.08,713Z" transform="translate(-847.74 -694.77)"/><path class="cls-3" d="M855.66,708.19h-4.75a0.75,0.75,0,0,1,0-1.5h4.75A0.75,0.75,0,1,1,855.66,708.19Z" transform="translate(-847.74 -694.77)"/></svg>