<svg id="Layer_1" xmlns="http://www.w3.org/2000/svg" viewBox="0 0 139.5 141.2"><style>.st0{fill:#010101}.st1{fill:#f2b81b}.st2{fill:#afb0b3}.st3{fill:#fff}.st4,.st5{fill:none;stroke:#010101;stroke-width:5;stroke-miterlimit:10}.st5{stroke:#f2b81b}</style><path class="st2" d="M76.7 115.2H.2V19.8h19.1v5.6c0 .5.5 1 1 1h4.3c.6 0 1-.5 1-1v-5.6h63.9v5.6c0 .6.5 1 1 1h4.3c.6 0 1-.5 1-1v-5.6h18.5v59l-3-.7c-2.1-.5-4.2-.7-6.4-.7-5.6 0-11 1.6-15.6 4.5a28.8 28.8 0 0 0-6.5 5.6c-4.6 5.3-7.2 12.1-7.2 19.2 0 1.9.2 3.7.5 5.5l.6 3zm-71.5-5h65.6c-.1-1.1-.2-2.3-.2-3.4 0-8.3 3-16.2 8.4-22.5 2.2-2.6 4.8-4.8 7.6-6.5 5.5-3.5 11.8-5.3 18.3-5.3 1.5 0 2.9.1 4.4.3v-48h-8.5v.6c0 3.3-2.7 6-6 6h-4.3c-3.3 0-6-2.7-6-6v-.6H30.6v.6c0 3.3-2.7 6-6 6h-4.3c-3.3 0-6-2.7-6-6v-.6H5.2v85.4z"/><path class="st2" d="M94.8 31.4h-4.3c-3.3 0-6-2.7-6-6V6c0-3.3 2.7-6 6-6h4.3c3.3 0 6 2.7 6 6v19.4c0 3.3-2.7 6-6 6zM90.5 5c-.5 0-1 .5-1 1v19.4c0 .6.5 1 1 1h4.3c.6 0 1-.5 1-1V6c0-.5-.5-1-1-1h-4.3zM24.6 31.4h-4.3c-3.3 0-6-2.7-6-6V6c0-3.3 2.7-6 6-6h4.3c3.3 0 6 2.7 6 6v19.4c0 3.3-2.7 6-6 6zM20.3 5c-.6 0-1 .5-1 1v19.4c0 .5.5 1 1 1h4.3c.6 0 1-.5 1-1V6c0-.5-.5-1-1-1h-4.3zm84.6 136.1c-16.5 0-30.6-11.7-33.7-27.9-.4-2.1-.6-4.2-.6-6.4 0-8.3 3-16.2 8.4-22.5 2.2-2.6 4.8-4.8 7.6-6.5 5.5-3.5 11.8-5.3 18.3-5.3 2.5 0 5 .3 7.4.8 15.6 3.4 26.9 17.5 26.9 33.5.1 18.9-15.3 34.3-34.3 34.3zm0-63.6c-5.6 0-11 1.6-15.6 4.5a28.8 28.8 0 0 0-6.5 5.6c-4.6 5.3-7.2 12.1-7.2 19.2 0 1.9.2 3.7.5 5.5 2.6 13.8 14.7 23.8 28.8 23.8 16.2 0 29.3-13.1 29.3-29.3 0-13.6-9.6-25.7-22.9-28.6-2.1-.5-4.2-.7-6.4-.7zm-68.3-9.7H14V45.2h22.6v22.6zm-17.6-5h12.6V50.2H19v12.6zm49.9 5H46.3V45.2h22.6v22.6zm-17.6-5h12.6V50.2H51.3v12.6zm49.7 5H78.4V45.2H101v22.6zm-17.6-5H96V50.2H83.4v12.6zM36.6 100H14V77.4h22.6V100zM19 95h12.6V82.4H19V95zm49.9 5H46.3V77.4h22.6V100zm-17.6-5h12.6V82.4H51.3V95z"/><path class="st2" d="M78.4 92.6V77.4h18.2L89.3 82a28.8 28.8 0 0 0-6.5 5.6l-4.4 5zm37.6 17.6h-14.8V88.5h5v16.7h9.8z"/></svg>