<svg id="Layer_1" data-name="Layer 1" xmlns="http://www.w3.org/2000/svg" viewBox="0 0 44.31 56.71"><defs><style>.cls-1{fill:#010101}.cls-2{fill:#f2b81b}</style></defs><title>Icon</title><path class="cls-1" d="M22 23.95a7.53 7.53 0 1 1 7.53-7.53A7.54 7.54 0 0 1 22 23.95zm0-13.56a6 6 0 1 0 6 6 6 6 0 0 0-6-6zm.07 31.77a34.49 34.49 0 0 1-12.2-2.23.75.75 0 0 1-.48-.76 12.69 12.69 0 0 1 25.1-1.54 9.84 9.84 0 0 1 .2 1.59.75.75 0 0 1-.49.73 34.48 34.48 0 0 1-12.13 2.21zm-11.14-3.44a33 33 0 0 0 22.21 0c0-.28-.07-.55-.13-.82a11.19 11.19 0 0 0-22.08.82z"/><path class="cls-2" d="M22.16 56.71a.75.75 0 0 1-.38-.11L11.6 50.53A25.19 25.19 0 0 1 0 29.27v-22a.75.75 0 0 1 .53-.7L21.86 0a.74.74 0 0 1 .44 0l21.48 6.57a.75.75 0 0 1 .53.72v22a25.27 25.27 0 0 1-11.54 21.17l-10.23 6.15a.75.75 0 0 1-.38.1zM1.5 7.84v21.43a23.68 23.68 0 0 0 10.89 20l9.76 5.84L32 49.19a23.77 23.77 0 0 0 10.81-19.95V7.84L22.08 1.53z"/></svg>