<svg id="Layer_1" data-name="Layer 1" xmlns="http://www.w3.org/2000/svg" viewBox="0 0 47.49 31.05"><defs><style>.cls-1,.cls-2{fill:none;stroke-width:1.5px}.cls-1{stroke:#000;stroke-miterlimit:10}.cls-2{stroke:#f3b81a;stroke-linecap:round;stroke-linejoin:round}</style></defs><title>icons</title><path d="M44.34 1.5a1.57 1.57 0 0 1 .91.29h.12A1.65 1.65 0 0 1 46 3.15V27.9a1.65 1.65 0 0 1-.6 1.27 1.69 1.69 0 0 1-1.06.38H3.06a1.72 1.72 0 0 1-1-.43 1.64 1.64 0 0 1-.56-1.22V3.15a1.64 1.64 0 0 1 .62-1.28h.05a1.65 1.65 0 0 1 1-.33h41.17m0-1.5H3.16a3.14 3.14 0 0 0-2 .69A3.14 3.14 0 0 0 0 3.15V27.9a3.14 3.14 0 0 0 1.08 2.36A3.22 3.22 0 0 0 3 31h41.34a3.16 3.16 0 0 0 3.15-3.15V3.15A3.15 3.15 0 0 0 46.18.6h-.07a3.07 3.07 0 0 0-1.77-.6z"/><path class="cls-1" d="M42.41 9.26A4.09 4.09 0 0 1 35.33 12a4.08 4.08 0 1 1 0-5.56 4.09 4.09 0 0 1 7.08 2.82z"/><path class="cls-2" d="M20.98 22.24h-4.85m24.74 0H36.8m-5.52 0h-4.79m-15.87 0H6.34"/></svg>