<svg id="Layer_1" data-name="Layer 1" xmlns="http://www.w3.org/2000/svg" viewBox="0 0 52.57 57.45"><defs><style>.cls-1{fill:#a2a1a1}</style></defs><title>Icon</title><path class="cls-1" d="M1.54 23.33A.75.75 0 0 1 1 22l5-4.91a.75.75 0 0 1 1 1.07l-5 4.91a.75.75 0 0 1-.46.26zm49.4-.06a.75.75 0 0 1-.52-.21l-4.68-4.48a.75.75 0 1 1 1-1.08l4.72 4.5a.75.75 0 0 1-.52 1.27zM37 10a.75.75 0 0 1-.51-.2l-8-7.45a3.87 3.87 0 0 0-4.91 0L16.1 9.76A.75.75 0 1 1 15 8.69l7.54-7.41a5.39 5.39 0 0 1 6.91 0l8 7.47A.75.75 0 0 1 37 10z"/><path class="cls-1" d="M46.86 28.48h-1.5V11.57a1.23 1.23 0 0 0-1.23-1.23H8.62a1.23 1.23 0 0 0-1.23 1.23v16.66h-1.5V11.57a2.73 2.73 0 0 1 2.73-2.73h35.51a2.73 2.73 0 0 1 2.73 2.73v16.91z"/><path class="cls-1" d="M51.35 56.38a.75.75 0 0 1-.52-.21L33.79 40a.75.75 0 0 1 0-1.09L51 22.77a.75.75 0 0 1 1 1.1L35.4 39.42l16.47 15.67a.75.75 0 0 1-.52 1.29zm-50.03-.09A.75.75 0 0 1 .81 55l16.71-15.59L.87 23.87a.75.75 0 0 1 1-1.1l17.26 16.1a.75.75 0 0 1 0 1.1L1.83 56.09a.75.75 0 0 1-.51.2z"/><path class="cls-1" d="M51.16 56.31a.75.75 0 0 1-.51-.2l-21.59-20.3a4.07 4.07 0 0 0-5.6 0L2.41 56a.75.75 0 1 1-1-1.08l21.02-20.17a5.57 5.57 0 0 1 7.67 0L51.67 55a.75.75 0 0 1-.51 1.31z"/><path class="cls-1" d="M51 21.5a4 4 0 0 0-1.41-.71 7.3 7.3 0 0 1 .86 2.21 2.27 2.27 0 0 1 .35 1.18v29.73a1.59 1.59 0 0 1-1.65 1.65H3.42a2.12 2.12 0 0 1-1.06-.47 1.89 1.89 0 0 1-.59-1.3V24.33a2.48 2.48 0 0 1 .59-1.53 1.78 1.78 0 0 1 .47-.47 5.74 5.74 0 0 0-.12-1.41 4 4 0 0 0-1.41.71 3.35 3.35 0 0 0-1.3 2.7V54a3.57 3.57 0 0 0 1.18 2.59 3.39 3.39 0 0 0 2.12.83H49a3.47 3.47 0 0 0 3.54-3.54V24.33A3.32 3.32 0 0 0 51 21.5zm-12.72-2.42H13.82a.75.75 0 0 1 0-1.5h24.46a.75.75 0 0 1 0 1.5z"/><path class="cls-1" d="M38.28 25.27H13.82a.75.75 0 1 1 0-1.5h24.46a.75.75 0 0 1 0 1.5z"/></svg>