<svg id="Layer_1" data-name="Layer 1" xmlns="http://www.w3.org/2000/svg" viewBox="0 0 27.87 36.83"><defs><style>.cls-1{fill:#fff;}.cls-2{fill:none;stroke:#fff;stroke-linecap:round;stroke-linejoin:round;stroke-width:1.5px;}</style></defs><title>service10-3w</title><path class="cls-1" d="M1075,595a1.39,1.39,0,0,1,1.39,1.39v31.05a1.39,1.39,0,0,1-1.39,1.39h-22.15a1.32,1.32,0,0,1-1-.52l-0.06-.08a1.26,1.26,0,0,1-.23-0.73V596.34a1.33,1.33,0,0,1,.25-0.78h0l0-.06a1.32,1.32,0,0,1,1-.5H1075m0-1.5h-22.15a2.82,2.82,0,0,0-2.19,1l0,0a2.82,2.82,0,0,0-.62,1.77V627.5a2.75,2.75,0,0,0,.5,1.59l0,0.06a2.83,2.83,0,0,0,2.29,1.18H1075a2.89,2.89,0,0,0,2.89-2.89V596.39a2.89,2.89,0,0,0-2.89-2.89h0Z" transform="translate(-1050.01 -593.5)"/><path class="cls-2" d="M1064,615.48a2.68,2.68,0,0,1,1.3-2.17c1.19-.49,2.71-0.65,2.77-2.17,0.06-1.75-1-1.9-1-1.9s0-6,3-7.54c0,0,0,14.21-.1,14.16h-6v3.63a4.61,4.61,0,0,0,2.6-3.91c0.22-2.93-2.39-4.77-2.6-6.08v-9.66" transform="translate(-1050.01 -593.5)"/><path class="cls-2" d="M1064,615.48a2.68,2.68,0,0,0-1.3-2.17c-1.19-.49-2.71-0.65-2.77-2.17-0.06-1.75,1-1.9,1-1.9s-0.07-6-3-7.54c0,0,.07,14.21.12,14.16h6v3.63a4.61,4.61,0,0,1-2.6-3.91c-0.22-2.93,2.6-4.76,2.6-6.08v-9.66" transform="translate(-1050.01 -593.5)"/><line class="cls-2" x1="19.64" y1="17.62" x2="18.26" y2="17.62"/><line class="cls-2" x1="9.47" y1="17.62" x2="8.09" y2="17.62"/><line class="cls-2" x1="6.19" y1="29.25" x2="21.69" y2="29.25"/></svg>