<svg id="Layer_1" data-name="Layer 1" xmlns="http://www.w3.org/2000/svg" viewBox="0 0 41.21 32.73"><defs><style>.cls-1,.cls-2{fill:none;stroke:#fff;stroke-linecap:round;stroke-width:1.5px;}.cls-1{stroke-linejoin:round;}.cls-2{stroke-miterlimit:10;}</style></defs><title>service10</title><path class="cls-1" d="M1215.35,504.08v7a1.24,1.24,0,0,1-.44,1c0,3.62,0,7.51,0,9.51a1.38,1.38,0,0,1-1.37,1.37l-5.49,0a1.38,1.38,0,0,1-1.38-1.37c0-2,0-6-.08-9.64a1.23,1.23,0,0,1-.32-0.83v-4.31c0-1.09-.06-1.92-0.06-2.35a4.6,4.6,0,0,1,9.11-.88A3.48,3.48,0,0,1,1215.35,504.08Z" transform="translate(-1180.38 -490.93)"/><path class="cls-1" d="M1213.73,495.39" transform="translate(-1180.38 -490.93)"/><circle class="cls-2" cx="5.35" cy="3.88" r="3.13"/><line class="cls-2" x1="5.42" y1="31.74" x2="5.42" y2="22.42"/><path class="cls-1" d="M1190.31,504.08v7a1.24,1.24,0,0,1-.44,1c0,3.62,0,7.51,0,9.51a1.38,1.38,0,0,1-1.37,1.37l-5.49,0a1.38,1.38,0,0,1-1.38-1.37c0-2,0-6-.08-9.64a1.23,1.23,0,0,1-.32-0.83v-4.31c0-1.09-.06-1.92-0.06-2.35a4.6,4.6,0,0,1,9.11-.88A3.48,3.48,0,0,1,1190.31,504.08Z" transform="translate(-1180.38 -490.93)"/><circle class="cls-2" cx="17.89" cy="3.88" r="3.13"/><line class="cls-2" x1="17.96" y1="31.74" x2="17.96" y2="22.42"/><path class="cls-1" d="M1202.85,504.08v7a1.24,1.24,0,0,1-.44,1c0,3.62,0,7.51,0,9.51a1.38,1.38,0,0,1-1.37,1.37l-5.49,0a1.38,1.38,0,0,1-1.38-1.37c0-2,0-6-.08-9.64a1.23,1.23,0,0,1-.32-0.83v-4.31c0-1.09-.06-1.92-0.06-2.35a4.6,4.6,0,0,1,9.11-.88A3.48,3.48,0,0,1,1202.85,504.08Z" transform="translate(-1180.38 -490.93)"/><circle class="cls-1" cx="30.39" cy="3.88" r="3.13"/><line class="cls-1" x1="30.46" y1="31.74" x2="30.46" y2="22.42"/><line class="cls-2" x1="40.46" y1="31.98" x2="40.46" y2="0.76"/></svg>