<svg id="Layer_1" data-name="Layer 1" xmlns="http://www.w3.org/2000/svg" viewBox="0 0 27.87 36.83"><defs><style>.cls-1{fill:#231f20;}.cls-2{fill:none;stroke:#231f20;stroke-linecap:round;stroke-linejoin:round;stroke-width:1.5px;}</style></defs><title>service10-2</title><path class="cls-1" d="M1230,952a1.39,1.39,0,0,1,1.39,1.39v31.05a1.39,1.39,0,0,1-1.39,1.39h-22.15a1.32,1.32,0,0,1-1-.52l-0.06-.08a1.26,1.26,0,0,1-.23-0.73V953.38a1.33,1.33,0,0,1,.25-0.78h0l0-.06a1.32,1.32,0,0,1,1-.5H1230m0-1.5h-22.15a2.82,2.82,0,0,0-2.19,1l0,0a2.82,2.82,0,0,0-.62,1.77v31.16a2.75,2.75,0,0,0,.5,1.59l0,0.06a2.83,2.83,0,0,0,2.29,1.18H1230a2.89,2.89,0,0,0,2.89-2.89V953.43a2.89,2.89,0,0,0-2.89-2.89h0Z" transform="translate(-1205.01 -950.54)"/><line class="cls-2" x1="6.19" y1="27.25" x2="21.69" y2="27.25"/><path class="cls-2" d="M1226.77,959.74v3.39h-5.52a2.54,2.54,0,0,0-4.58,0h-5.52v-3.39h15.62Z" transform="translate(-1205.01 -950.54)"/><path class="cls-2" d="M1226.77,965.44v3.39h-15.62v-3.39h5.57a2.52,2.52,0,0,0,2.24,1.35,2.54,2.54,0,0,0,2.25-1.35h5.56Z" transform="translate(-1205.01 -950.54)"/><circle class="cls-1" cx="13.91" cy="13.68" r="1.1"/></svg>