<svg id="Layer_1" data-name="Layer 1" xmlns="http://www.w3.org/2000/svg" viewBox="0 0 39.9 31.59"><defs><style>.cls-1{fill:none;stroke:#231f20;stroke-linejoin:round;stroke-width:1.5px;}</style></defs><title>service10-1</title><path class="cls-1" d="M1211.41,1022.71l-7.07,6.83h0l-2.34,2.26,2.23,2.37h0l6.75,7.15,2.34-2.26-4.12-4.37a0.61,0.61,0,0,1,.45-1h11.63v-3.27h-11.59a0.61,0.61,0,0,1-.43-1.06l4.39-4.24Z" transform="translate(-1201.25 -1021.96)"/><path class="cls-1" d="M1231,1052.79l7.07-6.83h0l2.34-2.26-2.23-2.37h0l-6.75-7.15-2.34,2.26,4.12,4.37a0.61,0.61,0,0,1-.45,1h-11.63v3.27h11.59a0.61,0.61,0,0,1,.43,1.06l-4.39,4.24Z" transform="translate(-1201.25 -1021.96)"/></svg>