<svg id="Layer_1" data-name="Layer 1" xmlns="http://www.w3.org/2000/svg" viewBox="0 0 234.5 121.5"><defs><style>.cls-1{fill:#afb0b3}</style></defs><title>icon</title><path class="cls-1" d="M124.87 43.64H112.5V27.01h16.84a3.26 3.26 0 0 0 0-6.51h-19.21a3.14 3.14 0 0 0-1.45.34 3.24 3.24 0 0 0-2.68 3.23l.09 49.35a4.9 4.9 0 0 0 4.08 3.76s7.15.24 14.74.24a16.89 16.89 0 0 0-.04-33.78zm0 27.26c-4.91 0-9.64-.11-12.31-.18V50.15h12.36a10.38 10.38 0 1 1-.05 20.76zm-79.12 3.27l-22-53a3.47 3.47 0 0 0-3.12-2 3.27 3.27 0 0 0-3 2.23L.17 73.56a3.25 3.25 0 1 0 6.17 2.08l6-17.91h19.53l7.87 18.94a3.25 3.25 0 0 0 3 2 3.29 3.29 0 0 0 1.26-.24 3.25 3.25 0 0 0 1.75-4.26zm-31.24-23l6.54-19.47 8.11 19.51H14.52zm97.98-7.54h-2.68z"/><path class="cls-1" d="M112.5 50c1.92.06 4.62.11 7.57.13h-7.57V50zm10.96-6.36h-9.72 9.72zm-10.97-.01h-2.68zm10.43 6.52zm108.27 27.27h-5.27c-14.44 0-27.33-10.35-29.17-24.67a28.45 28.45 0 0 1 28.18-32.16h6.35a3.25 3.25 0 0 1 3.24 3.28 3.26 3.26 0 0 1-3.27 3.23h-6.33a21.93 21.93 0 0 0-21.8 24.09c1.11 11.38 11.34 19.72 22.77 19.72h5.29a3.26 3.26 0 1 1 .01 6.51z"/><path class="cls-1" d="M166.4 31.64a48.81 48.81 0 1 0-87.31 42.88l-7.34 4.83-1.21-1.87a1.26 1.26 0 0 0-1.74-.38l-53.72 34.52a1.27 1.27 0 0 0-.38 1.74l4.7 7.3a1.26 1.26 0 0 0 1.74.38l53.71-34.52a1.28 1.28 0 0 0 .38-1.74L73.7 82.4l7.35-4.84a48.82 48.82 0 0 0 85.35-45.92zm-5.76 35.17a43.4 43.4 0 1 1 .69-33.19 43.13 43.13 0 0 1-.69 33.2z"/></svg>