<?xml version="1.0" encoding="utf-8"?>
<!-- Generator: Adobe Illustrator 19.2.0, SVG Export Plug-In . SVG Version: 6.00 Build 0)  -->
<svg version="1.1" id="Layer_1" xmlns="http://www.w3.org/2000/svg" xmlns:xlink="http://www.w3.org/1999/xlink" x="0px" y="0px"
	 viewBox="0 0 227.7 141.2" style="enable-background:new 0 0 227.7 141.2;" xml:space="preserve">
<style type="text/css">
	.st0{fill:#010101;}
	.st1{fill:#F2B81B;}
	.st2{fill:#AFB0B3;}
	.st3{fill:#FFFFFF;}
	.st4{fill:none;stroke:#010101;stroke-width:5;stroke-miterlimit:10;}
	.st5{fill:none;stroke:#F2B81B;stroke-width:5;stroke-miterlimit:10;}
</style>
<g>
	<path class="st2" d="M133.6,141.3H0.4v-26.6h133.2V141.3z M5.4,136.3h123.2v-16.6H5.4V136.3z"/>
</g>
<g>
	<path class="st2" d="M124.8,48.1H8.7V36.9l51.8-24.7c3.8-1.8,8.2-1.8,12,0l52.3,24.8V48.1z M13.7,43.1h106.1v-3L70.4,16.6
		c-2.5-1.2-5.3-1.2-7.7,0L13.7,40V43.1z"/>
</g>
<g>
	<path class="st2" d="M40.6,108.5h-19l2.8-55.8h13.3L40.6,108.5z M26.8,103.5h8.5l-2.4-45.8h-3.7L26.8,103.5z"/>
</g>
<g>
	<path class="st2" d="M64.8,108.5h-19l2.8-55.8h13.3L64.8,108.5z M51.1,103.5h8.5l-2.4-45.8h-3.7L51.1,103.5z"/>
</g>
<g>
	<path class="st2" d="M89.1,108.5h-19l2.8-55.8h13.3L89.1,108.5z M75.4,103.5h8.5l-2.4-45.8h-3.7L75.4,103.5z"/>
</g>
<g>
	<path class="st2" d="M113.4,108.5h-19l2.8-55.8h13.3L113.4,108.5z M99.6,103.5h8.5l-2.4-45.8h-3.7L99.6,103.5z"/>
</g>
<g>
	<g>
		<path class="st2" d="M227.1,106.5l-55.6-31.3c-0.6-0.3-1.4-0.1-1.7,0.5l-0.9,1.5l-11.5-6.5c5.3-10.9,6.5-23.1,3.2-34.9
			c-3.5-12.6-11.8-23.1-23.2-29.5c-11.4-6.4-24.7-8-37.3-4.5C87.5,5.4,77,13.6,70.5,25c-6.4,11.4-8,24.7-4.5,37.3
			C69.6,75,77.9,85.4,89.3,91.8c7.4,4.2,15.6,6.3,24,6.3c4.5,0,8.9-0.6,13.3-1.8c11.9-3.3,21.9-10.8,28.4-21.2l11.5,6.4l-0.9,1.7
			c-0.3,0.6-0.1,1.4,0.5,1.7l55.7,31.3c0.6,0.4,1.4,0.1,1.7-0.5l4.3-7.6C227.9,107.6,227.7,106.8,227.1,106.5z M125.2,91.5
			c-11.3,3.2-23.2,1.8-33.5-4C81.5,81.7,74.1,72.3,70.9,61s-1.8-23.2,4-33.5c5.8-10.3,15.2-17.7,26.5-20.8c4-1.1,8-1.7,12-1.7
			c7.5,0,14.8,1.9,21.5,5.7c10.3,5.8,17.7,15.2,20.8,26.5c1.1,4,1.7,8,1.7,12c0,7.5-1.9,14.8-5.7,21.5
			C146,80.9,136.5,88.3,125.2,91.5z"/>
	</g>
</g>
</svg>
