<svg id="Layer_1" data-name="Layer 1" xmlns="http://www.w3.org/2000/svg" viewBox="0 0 46.37 36.85"><defs><style>.cls-1,.cls-2{fill:none;stroke:#a2a2a2;stroke-width:1.5px}.cls-1{stroke-miterlimit:10}.cls-2{stroke-linecap:round;stroke-linejoin:round}</style></defs><title>icons</title><circle class="cls-1" cx="5.89" cy="4.29" r="3.54"/><path class="cls-1" d="M5.97 35.83V25.28m5.11-10.49v7.89a1.41 1.41 0 0 1-.5 1.08v10.76A1.56 1.56 0 0 1 9 36.07H2.79a1.56 1.56 0 0 1-1.57-1.55c0-2.3 0-6.77-.09-10.91a1.39 1.39 0 0 1-.36-.94v-4.86C.7 16.58.68 15.64.68 15.15a5.21 5.21 0 0 1 10.32-1 3.94 3.94 0 0 1 .08.64z"/><circle class="cls-1" cx="20.09" cy="4.29" r="3.54"/><path class="cls-1" d="M20.16 35.83V25.28m5.11-10.49v7.89a1.41 1.41 0 0 1-.5 1.08v10.76a1.56 1.56 0 0 1-1.56 1.55H17a1.56 1.56 0 0 1-1.57-1.55c0-2.3 0-6.77-.09-10.91a1.39 1.39 0 0 1-.36-.94v-4.86c-.05-1.23-.07-2.17-.07-2.66a5.21 5.21 0 0 1 10.32-1 3.94 3.94 0 0 1 .04.64z"/><circle class="cls-1" cx="34.23" cy="4.29" r="3.54"/><path class="cls-1" d="M34.31 35.83V25.28m5.11-10.49v7.89a1.41 1.41 0 0 1-.5 1.08v10.76a1.56 1.56 0 0 1-1.56 1.55h-6.21a1.56 1.56 0 0 1-1.57-1.55c0-2.3 0-6.77-.09-10.91a1.39 1.39 0 0 1-.36-.94v-4.86C29 16.58 29 15.64 29 15.15a5.21 5.21 0 0 1 10.32-1 3.94 3.94 0 0 1 .1.64z"/><path class="cls-2" d="M45.62 36.1V.76"/></svg>