<svg id="Layer_1" data-name="Layer 1" xmlns="http://www.w3.org/2000/svg" viewBox="0 0 46.37 36.85"><defs><style>.cls-1,.cls-2{fill:none;stroke:#a2a2a2;stroke-width:1.5px;}.cls-1{stroke-miterlimit:10;}.cls-2{stroke-linecap:round;stroke-linejoin:round;}</style></defs><title>icons</title><circle class="cls-1" cx="5.89" cy="4.29" r="3.54"/><line class="cls-1" x1="5.97" y1="35.83" x2="5.97" y2="25.28"/><path class="cls-1" d="M11.08,14.79v7.89a1.41,1.41,0,0,1-.5,1.08c0,4.09,0,8.5,0,10.76A1.56,1.56,0,0,1,9,36.07l-6.21,0a1.56,1.56,0,0,1-1.57-1.55c0-2.3,0-6.77-.09-10.91a1.39,1.39,0,0,1-.36-0.94V17.81C0.7,16.58.68,15.64,0.68,15.15a5.21,5.21,0,0,1,10.32-1A3.94,3.94,0,0,1,11.08,14.79Z"/><circle class="cls-1" cx="20.09" cy="4.29" r="3.54"/><line class="cls-1" x1="20.16" y1="35.83" x2="20.16" y2="25.28"/><path class="cls-1" d="M25.27,14.79v7.89a1.41,1.41,0,0,1-.5,1.08c0,4.09,0,8.5,0,10.76a1.56,1.56,0,0,1-1.56,1.55l-6.21,0a1.56,1.56,0,0,1-1.57-1.55c0-2.3,0-6.77-.09-10.91a1.39,1.39,0,0,1-.36-0.94V17.81c-0.05-1.23-.07-2.17-0.07-2.66a5.21,5.21,0,0,1,10.32-1A3.94,3.94,0,0,1,25.27,14.79Z"/><circle class="cls-1" cx="34.23" cy="4.29" r="3.54"/><line class="cls-1" x1="34.31" y1="35.83" x2="34.31" y2="25.28"/><path class="cls-1" d="M39.42,14.79v7.89a1.41,1.41,0,0,1-.5,1.08c0,4.09,0,8.5,0,10.76a1.56,1.56,0,0,1-1.56,1.55l-6.21,0a1.56,1.56,0,0,1-1.57-1.55c0-2.3,0-6.77-.09-10.91a1.39,1.39,0,0,1-.36-0.94V17.81C29,16.58,29,15.64,29,15.15a5.21,5.21,0,0,1,10.32-1A3.94,3.94,0,0,1,39.42,14.79Z"/><line class="cls-2" x1="45.62" y1="36.1" x2="45.62" y2="0.76"/></svg>