<svg id="Layer_1" data-name="Layer 1" xmlns="http://www.w3.org/2000/svg" viewBox="0 0 42.63 27.87"><defs><style>.cls-1{fill:#fff;}.cls-2,.cls-3,.cls-4{fill:none;stroke:#fff;stroke-width:1.5px;}.cls-2,.cls-3{stroke-linejoin:round;}.cls-3,.cls-4{stroke-linecap:round;}.cls-4{stroke-miterlimit:10;}</style></defs><title>service9</title><path class="cls-1" d="M1046.41,498.1a1.26,1.26,0,0,1,.73.23l0,0,0.06,0a1.32,1.32,0,0,1,.49,1v22.21a1.33,1.33,0,0,1-.48,1,1.37,1.37,0,0,1-.85.31h-37a1.39,1.39,0,0,1-.8-0.34,1.32,1.32,0,0,1-.45-1V499.43a1.32,1.32,0,0,1,.5-1l0,0a1.33,1.33,0,0,1,.8-0.26h37m0-1.5h-37a2.82,2.82,0,0,0-1.77.62l0,0a2.82,2.82,0,0,0-1,2.19v22.21a2.81,2.81,0,0,0,1,2.12,2.89,2.89,0,0,0,1.73.71h37.1a2.83,2.83,0,0,0,2.83-2.83V499.43a2.83,2.83,0,0,0-1.18-2.29l-0.06,0a2.75,2.75,0,0,0-1.59-.5h0Z" transform="translate(-1006.61 -496.6)"/><path class="cls-2" d="M1044.68,504.91a136.59,136.59,0,0,0-9,3.67A4.94,4.94,0,1,1,1044.68,504.91Z" transform="translate(-1006.61 -496.6)"/><line class="cls-3" x1="18.83" y1="19.96" x2="14.48" y2="19.96"/><line class="cls-4" x1="36.69" y1="19.96" x2="33.03" y2="19.96"/><line class="cls-4" x1="28.08" y1="19.96" x2="23.78" y2="19.96"/><line class="cls-3" x1="9.53" y1="19.96" x2="5.69" y2="19.96"/></svg>